<?xml version="1.0" encoding="utf-8"?>
<!-- Generator: Adobe Illustrator 16.0.0, SVG Export Plug-In . SVG Version: 6.00 Build 0)  -->
<!DOCTYPE svg PUBLIC "-//W3C//DTD SVG 1.1//EN" "http://www.w3.org/Graphics/SVG/1.1/DTD/svg11.dtd">
<svg version="1.1" xmlns="http://www.w3.org/2000/svg" xmlns:xlink="http://www.w3.org/1999/xlink" x="0px" y="0px"
	 width="708.662px" height="226.772px" viewBox="0 0 708.662 226.772" enable-background="new 0 0 708.662 226.772"
	 xml:space="preserve">
<g id="Layer_1">
	<g>
		<path d="M283.087,112.999c0,58.705-47.591,106.296-106.299,106.296c-58.708,0-106.299-47.592-106.299-106.296
			c0-58.71,47.591-106.303,106.299-106.303C235.496,6.696,283.087,54.289,283.087,112.999z"/>
		<polyline fill="none" stroke="#FFFFFF" stroke-width="11.3386" stroke-miterlimit="10" points="158.45,155.516 203.632,112.999 
			158.45,70.478 		"/>
	</g>
	<g>
		<g>
			<path fill="#FFFFFF" stroke="#000000" stroke-width="11.3386" stroke-miterlimit="10" d="M632.542,112.749
				c0,55.804-45.24,101.042-101.046,101.042c-55.807,0-101.047-45.238-101.047-101.042c0-55.809,45.24-101.05,101.047-101.05
				C587.302,11.699,632.542,56.94,632.542,112.749z"/>
			<polyline fill="none" stroke="#000000" stroke-width="11.3386" stroke-miterlimit="10" points="513.9,155.516 557.36,112.999 
				513.9,70.478 			"/>
		</g>
	</g>
</g>
<g id="Layer_3" display="none">
</g>
<g id="Layer_4" display="none">
</g>
</svg>
