<?xml version="1.0" encoding="utf-8"?>
<!-- Generator: Adobe Illustrator 16.0.0, SVG Export Plug-In . SVG Version: 6.00 Build 0)  -->
<!DOCTYPE svg PUBLIC "-//W3C//DTD SVG 1.1//EN" "http://www.w3.org/Graphics/SVG/1.1/DTD/svg11.dtd">
<svg version="1.1" id="Layer_1" xmlns="http://www.w3.org/2000/svg" xmlns:xlink="http://www.w3.org/1999/xlink" x="0px" y="0px"
	 width="50px" height="50px" viewBox="0 0 50 50" enable-background="new 0 0 50 50" xml:space="preserve">
<g id="circle" display="none">
	<circle display="inline" fill="#231F20" stroke="#FFFFFF" stroke-width="4.252" stroke-miterlimit="10" cx="25" cy="25" r="20"/>
</g>
<g id="square">
	<rect x="5" y="5" fill="none" stroke="#FFFFFF" stroke-width="2.8346" stroke-miterlimit="10" width="40" height="40"/>
</g>
<g id="eye">
	<path fill="none" stroke="#FFFFFF" stroke-width="2.8346" stroke-miterlimit="10" d="M39.607,24.9c0,0-5.076-8.254-14.607-8.254
		c-9.532,0-14.608,8.254-14.608,8.254v0.202c0,0,5.076,8.253,14.608,8.253c9.531,0,14.607-8.253,14.607-8.253V24.9z"/>
	<path fill="none" stroke="#FFFFFF" stroke-width="2.8346" stroke-miterlimit="10" d="M30.996,25c0,3.309-2.687,5.996-5.996,5.996
		c-3.318,0-6.005-2.687-6.005-5.996c0-3.318,2.687-6.005,6.005-6.005C28.31,18.996,30.996,21.682,30.996,25z"/>
	<path fill="#FFFFFF" d="M24.999,22.904c1.156,0,2.095,0.938,2.095,2.097c0,1.155-0.938,2.095-2.095,2.095
		c-1.158,0-2.095-0.94-2.095-2.095C22.904,23.841,23.841,22.904,24.999,22.904z"/>
</g>
<g id="rulers">
</g>
</svg>
