<?xml version="1.0" encoding="utf-8"?>
<!-- Generator: Adobe Illustrator 16.0.0, SVG Export Plug-In . SVG Version: 6.00 Build 0)  -->
<!DOCTYPE svg PUBLIC "-//W3C//DTD SVG 1.1//EN" "http://www.w3.org/Graphics/SVG/1.1/DTD/svg11.dtd">
<svg version="1.1" id="Layer_1" xmlns="http://www.w3.org/2000/svg" xmlns:xlink="http://www.w3.org/1999/xlink" x="0px" y="0px"
	 width="2084.982px" height="573.057px" viewBox="0 0 2084.982 573.057" enable-background="new 0 0 2084.982 573.057"
	 xml:space="preserve">
<g id="outlined">
	<g id="L_copy">
		<path fill="#FFFFFF" d="M260.016,407.8l127.78,0.132l8.201-0.017c39.138,0,70.866,31.61,70.866,70.749
			c0,39.14-31.729,70.869-70.866,70.869h-8.201h-156.37l-42.106-0.02c-39.138,0-70.866-31.729-70.866-70.867l0.051-18.68v-280.51
			v-19.089l0.019-53.985c0-39.019,31.728-70.662,70.752-70.662c38.974,0,70.661,31.553,70.741,70.503c0,0.05,0,1.802,0,1.802
			L260.016,407.8z"/>
	</g>
	<g id="A_copy">
		<rect x="449.035" y="335.931" display="none" fill="#241F20" width="214.464" height="85.038"/>
		<path display="none" fill="#241F20" d="M785.454,413.368c0,0-142.429-307.097-167.312-359.516
			c-1.678-3.535-2.82-5.911-3.351-6.957c-7.245-14.324-19.218-26.376-34.881-33.682c-36.273-16.913-79.287-2.089-97.538,33.101
			c-0.588,1.121-1.146,2.256-1.677,3.404L311.962,411.529c0,0-0.78,1.672-0.802,1.72c-17.254,37.201-1.059,81.408,36.131,98.751
			c37.237,17.363,81.593,1.287,98.952-35.946l0.855-1.835L548.287,257.24l101.42,217.52c0,0,0.78,1.672,0.803,1.719
			c17.409,37.131,61.683,53.142,98.871,35.798C786.619,494.911,802.815,450.6,785.454,413.368z"/>
		<path fill="#FFFFFF" d="M983.874,444.547c0,0-142.429-307.095-167.312-359.514c-1.679-3.535-2.821-5.911-3.352-6.957
			c-7.245-14.324-19.218-26.376-34.881-33.682c-36.273-16.913-79.287-2.089-97.538,33.101c-0.588,1.121-1.146,2.256-1.677,3.404
			l-168.73,361.809c0,0-0.779,1.672-0.803,1.72c-17.253,37.201-1.058,81.408,36.13,98.751c37.236,17.363,81.59,1.287,98.951-35.945
			l0.855-1.835l24.832-53.249h152.697l25.079,53.788c0,0,0.78,1.673,0.803,1.72c17.409,37.13,61.683,53.141,98.871,35.797
			C985.039,526.09,1001.235,481.78,983.874,444.547z M710.01,367.11l36.698-78.691l36.69,78.691H710.01z"/>
	</g>
	<g id="M_copy">
		<path display="none" fill="#241F20" d="M1441.917,426.195c-0.01-0.048-0.375-1.762-0.375-1.762l-51.834-233.816l-17.385-66.191
			l-15.211-70.057c-8.113-38.166-45.729-62.52-83.898-54.407c-6.99,1.486-13.515,3.967-19.469,7.25
			c-15.093,8.119-27.295,21.696-33.308,39.159l-23.637,67.682l-25.32,63.578l-83.073,238.458c0,0-0.57,1.655-0.587,1.701
			c-12.604,36.854,7.084,77.004,43.935,89.694c36.896,12.701,77.198-6.887,89.903-43.776l50.798-144.863l31.024,136.615
			c8.113,38.165,45.729,62.519,83.897,54.407C1425.501,501.761,1449.938,464.309,1441.917,426.195z"/>
		<path display="none" fill="#241F20" d="M868.128,426.195c0.01-0.048,0.375-1.762,0.375-1.762l51.834-233.816l17.385-66.191
			l15.211-70.057c8.113-38.166,45.729-62.52,83.898-54.407c6.99,1.486,13.515,3.967,19.469,7.25
			c15.093,8.119,27.295,21.696,33.308,39.159l23.637,67.682l25.32,63.578l83.073,238.458c0,0,0.57,1.655,0.587,1.701
			c12.604,36.854-7.084,77.004-43.935,89.694c-36.896,12.701-77.198-6.887-89.903-43.776l-50.798-144.863l-31.024,136.615
			c-8.113,38.165-45.729,62.519-83.897,54.407C884.544,501.761,860.108,464.309,868.128,426.195z"/>
		<g>
			<path fill="#FFFFFF" d="M1602.115,463.544c-0.01-0.048-0.375-1.761-0.375-1.761l-51.832-233.816L1517.312,91.72
				c-8.113-38.166-45.729-62.52-83.898-54.407c-6.99,1.485-13.516,3.967-19.469,7.249c-15.094,8.119-27.295,21.696-33.31,39.16
				l-48.957,131.26l-16.457,47.239l-16.459-47.239l-48.957-131.26c-6.012-17.464-18.215-31.041-33.307-39.16
				c-5.955-3.282-12.479-5.764-19.469-7.249c-38.17-8.112-75.785,16.241-83.898,54.407l-32.596,136.248l-51.834,233.816
				c0,0-0.365,1.713-0.375,1.761c-8.021,38.114,16.416,75.566,54.537,83.671c38.17,8.111,75.785-16.242,83.897-54.407
				l31.025-136.614l48.232,137.546c5.299,23,21.985,42.847,45.934,51.094c7.227,2.488,14.582,3.72,21.836,3.844
				c0.478,0.012,0.953,0.006,1.432,0.008c0.478-0.002,0.955,0.004,1.431-0.008c7.256-0.124,14.61-1.354,21.838-3.844
				c23.947-8.247,40.635-28.094,45.934-51.094l48.232-137.546l31.025,136.614c8.112,38.165,45.729,62.52,83.896,54.407
				C1585.701,539.111,1610.135,501.659,1602.115,463.544z"/>
		</g>
	</g>
	<g id="P_copy">
		<path fill="#FFFFFF" d="M1810.96,34.747l-29.873,0.008v-0.051l-72.012,0.019c-39.086,0-70.773,31.688-70.773,70.775l0.052,18.655
			v280.15v19.065l0.02,53.915c0,38.968,31.686,70.568,70.66,70.568c38.922,0,70.568-31.512,70.647-70.41c0-0.051,0-1.801,0-1.801
			v-74.772l27.029,0.001c0,0,4.531,0,4.66,0c100.787-0.208,182.434-82.198,182.434-183.047
			C1993.804,116.844,1911.923,34.747,1810.96,34.747z M1804.382,261.998c-0.033,0-1.238,0-1.238,0l-24.03-0.001l0.133-88.572
			l25.027-0.005c26.862,0,48.646,19.862,48.646,44.294C1852.919,242.111,1831.196,261.947,1804.382,261.998z"/>
		<path display="none" fill="none" stroke="#FFFFFF" stroke-width="22.6772" stroke-linecap="round" stroke-miterlimit="10" d="
			M1680.153,141.172c0,0-0.107,301.173,0,321.712c0.073,14.384-3.056,45.308,35.577,54.745"/>
		<path display="none" fill="none" stroke="#FFFFFF" stroke-width="22.6772" stroke-linecap="round" stroke-miterlimit="10" d="
			M1814.939,128.757c46.021,0.312,68.437,22.672,68.437,61.81"/>
		<path display="none" fill="none" stroke="#FFFFFF" stroke-width="22.6772" stroke-linecap="round" stroke-miterlimit="10" d="
			M1915.468,303.833c-40.666,33.333-73.332,36.367-111.606,36.367"/>
		<circle display="none" fill="#FFFFFF" cx="1679.727" cy="97.794" r="11.374"/>
	</g>
</g>
</svg>
