<?xml version="1.0" encoding="utf-8"?>
<!-- Generator: Adobe Illustrator 16.0.0, SVG Export Plug-In . SVG Version: 6.00 Build 0)  -->
<!DOCTYPE svg PUBLIC "-//W3C//DTD SVG 1.1//EN" "http://www.w3.org/Graphics/SVG/1.1/DTD/svg11.dtd">
<svg version="1.1" xmlns="http://www.w3.org/2000/svg" xmlns:xlink="http://www.w3.org/1999/xlink" x="0px" y="0px"
	 width="708.662px" height="354.331px" viewBox="0 0 708.662 354.331" enable-background="new 0 0 708.662 354.331"
	 xml:space="preserve">
<g id="Layer_1">
	<g>
		<path d="M279.603,116.543c0,58.705-47.591,106.296-106.299,106.296c-58.708,0-106.299-47.591-106.299-106.296
			c0-58.71,47.591-106.303,106.299-106.303C232.012,10.24,279.603,57.833,279.603,116.543z"/>
		<polyline fill="none" stroke="#FFFFFF" stroke-width="11.3386" stroke-miterlimit="10" points="157.8,159.06 202.981,116.542 
			157.799,74.022 		"/>
	</g>
	<g>
		<path d="M54.023,297.05l4.216-4.897c2.914,2.728,6.819,4.588,10.539,4.588c4.588,0,7.068-2.046,7.068-5.208
			c0-3.348-2.604-4.401-6.262-5.951l-5.58-2.418c-3.968-1.674-8.184-4.836-8.184-10.787c0-6.448,5.704-11.408,13.639-11.408
			c4.712,0,9.299,1.984,12.461,5.146l-3.658,4.587c-2.604-2.17-5.332-3.472-8.804-3.472c-3.844,0-6.386,1.798-6.386,4.774
			c0,3.161,3.1,4.34,6.448,5.703l5.518,2.294c4.774,2.046,8.184,5.084,8.184,10.974c0,6.571-5.456,12.027-14.569,12.027
			C63.198,303.002,57.867,300.832,54.023,297.05z"/>
		<path d="M87.999,287.068c0-9.919,6.881-15.995,14.011-15.995c8.245,0,12.585,5.952,12.585,14.445c0,1.364-0.124,2.729-0.31,3.472
			H94.942c0.62,5.394,4.092,8.494,8.99,8.494c2.604,0,4.835-0.807,7.067-2.232l2.418,4.464c-2.914,1.922-6.572,3.286-10.416,3.286
			C94.57,303.002,87.999,297.112,87.999,287.068z M108.396,284.155c0-4.712-2.046-7.564-6.199-7.564
			c-3.596,0-6.696,2.666-7.316,7.564H108.396z"/>
		<path d="M119.432,287.068c0-9.919,6.881-15.995,14.011-15.995c8.246,0,12.585,5.952,12.585,14.445c0,1.364-0.124,2.729-0.31,3.472
			h-19.343c0.62,5.394,4.092,8.494,8.99,8.494c2.604,0,4.835-0.807,7.067-2.232l2.418,4.464c-2.914,1.922-6.572,3.286-10.416,3.286
			C126.003,303.002,119.432,297.112,119.432,287.068z M139.829,284.155c0-4.712-2.046-7.564-6.199-7.564
			c-3.596,0-6.696,2.666-7.316,7.564H139.829z"/>
		<path d="M165.249,271.817h5.89l0.496,4.154h0.248c2.542-2.729,5.518-4.898,9.3-4.898c4.463,0,7.005,2.046,8.431,5.456
			c2.914-3.1,5.952-5.456,9.795-5.456c6.448,0,9.424,4.402,9.424,12.09v19.095h-7.192v-18.165c0-5.021-1.488-6.882-4.649-6.882
			c-1.922,0-4.03,1.24-6.386,3.782v21.265h-7.129v-18.165c0-5.021-1.488-6.882-4.712-6.882c-1.86,0-4.03,1.24-6.386,3.782v21.265
			h-7.129V271.817z"/>
		<path d="M215.53,287.068c0-10.167,6.881-15.995,14.445-15.995c7.626,0,14.507,5.828,14.507,15.995
			c0,10.105-6.881,15.934-14.507,15.934C222.412,303.002,215.53,297.174,215.53,287.068z M237.167,287.068
			c0-6.138-2.728-10.167-7.192-10.167c-4.463,0-7.129,4.029-7.129,10.167c0,6.076,2.666,10.105,7.129,10.105
			C234.439,297.174,237.167,293.145,237.167,287.068z"/>
		<path d="M251.552,271.817h5.89l0.496,5.394h0.248c2.17-3.968,5.394-6.138,8.618-6.138c1.55,0,2.542,0.187,3.472,0.62l-1.24,6.2
			c-1.054-0.311-1.86-0.496-3.162-0.496c-2.418,0-5.332,1.674-7.192,6.262v18.599h-7.129V271.817z"/>
		<path d="M272.074,287.068c0-9.919,6.881-15.995,14.011-15.995c8.246,0,12.585,5.952,12.585,14.445c0,1.364-0.124,2.729-0.31,3.472
			h-19.343c0.62,5.394,4.092,8.494,8.99,8.494c2.604,0,4.835-0.807,7.067-2.232l2.418,4.464c-2.914,1.922-6.572,3.286-10.416,3.286
			C278.645,303.002,272.074,297.112,272.074,287.068z M292.47,284.155c0-4.712-2.046-7.564-6.199-7.564
			c-3.596,0-6.696,2.666-7.316,7.564H292.47z"/>
	</g>
	
		<line fill="none" stroke="#000000" stroke-width="8.5039" stroke-miterlimit="10" x1="53.995" y1="322.444" x2="302.661" y2="322.444"/>
	<g>
		<path fill="#FFFFFF" stroke="#000000" stroke-width="11.3386" stroke-miterlimit="10" d="M632.542,116.292
			c0,55.804-45.24,101.042-101.046,101.042c-55.807,0-101.047-45.239-101.047-101.042c0-55.809,45.24-101.05,101.047-101.05
			C587.302,15.243,632.542,60.484,632.542,116.292z"/>
		<polyline fill="none" stroke="#000000" stroke-width="11.3386" stroke-miterlimit="10" points="516.757,156.709 559.706,116.292 
			516.757,75.872 		"/>
	</g>
	<g>
		<path d="M409.203,297.049l4.216-4.897c2.914,2.728,6.819,4.588,10.539,4.588c4.588,0,7.068-2.046,7.068-5.208
			c0-3.348-2.604-4.401-6.262-5.951l-5.58-2.418c-3.968-1.674-8.184-4.836-8.184-10.787c0-6.448,5.704-11.408,13.639-11.408
			c4.712,0,9.299,1.984,12.461,5.146l-3.658,4.587c-2.604-2.17-5.332-3.472-8.804-3.472c-3.844,0-6.386,1.798-6.386,4.774
			c0,3.161,3.1,4.34,6.448,5.703l5.518,2.294c4.774,2.046,8.184,5.084,8.184,10.974c0,6.571-5.456,12.027-14.569,12.027
			C418.378,303.001,413.046,300.831,409.203,297.049z"/>
		<path d="M443.179,287.067c0-9.919,6.881-15.995,14.011-15.995c8.245,0,12.585,5.952,12.585,14.445c0,1.364-0.124,2.729-0.31,3.472
			h-19.343c0.62,5.394,4.092,8.494,8.99,8.494c2.604,0,4.835-0.807,7.067-2.232l2.418,4.464c-2.914,1.922-6.572,3.286-10.416,3.286
			C449.75,303.001,443.179,297.111,443.179,287.067z M463.575,284.154c0-4.712-2.046-7.564-6.199-7.564
			c-3.596,0-6.696,2.666-7.316,7.564H463.575z"/>
		<path d="M474.612,287.067c0-9.919,6.881-15.995,14.011-15.995c8.246,0,12.585,5.952,12.585,14.445c0,1.364-0.124,2.729-0.31,3.472
			h-19.343c0.62,5.394,4.092,8.494,8.99,8.494c2.604,0,4.835-0.807,7.067-2.232l2.418,4.464c-2.914,1.922-6.572,3.286-10.416,3.286
			C481.183,303.001,474.612,297.111,474.612,287.067z M495.008,284.154c0-4.712-2.046-7.564-6.199-7.564
			c-3.596,0-6.696,2.666-7.316,7.564H495.008z"/>
		<path d="M520.429,271.816h5.89l0.496,4.154h0.248c2.542-2.729,5.518-4.898,9.3-4.898c4.463,0,7.005,2.046,8.431,5.456
			c2.914-3.1,5.952-5.456,9.795-5.456c6.448,0,9.424,4.402,9.424,12.09v19.095h-7.192v-18.165c0-5.021-1.488-6.882-4.649-6.882
			c-1.922,0-4.03,1.24-6.386,3.782v21.265h-7.129v-18.165c0-5.021-1.488-6.882-4.712-6.882c-1.86,0-4.03,1.24-6.386,3.782v21.265
			h-7.129V271.816z"/>
		<path d="M570.71,287.067c0-10.167,6.881-15.995,14.445-15.995c7.626,0,14.507,5.828,14.507,15.995
			c0,10.105-6.881,15.934-14.507,15.934C577.591,303.001,570.71,297.173,570.71,287.067z M592.347,287.067
			c0-6.138-2.728-10.167-7.192-10.167c-4.463,0-7.129,4.029-7.129,10.167c0,6.076,2.666,10.105,7.129,10.105
			C589.619,297.173,592.347,293.144,592.347,287.067z"/>
		<path d="M606.732,271.816h5.89l0.496,5.394h0.248c2.17-3.968,5.394-6.138,8.618-6.138c1.55,0,2.542,0.187,3.472,0.62l-1.24,6.2
			c-1.054-0.311-1.86-0.496-3.162-0.496c-2.418,0-5.332,1.674-7.192,6.262v18.599h-7.129V271.816z"/>
		<path d="M627.253,287.067c0-9.919,6.881-15.995,14.011-15.995c8.246,0,12.585,5.952,12.585,14.445c0,1.364-0.124,2.729-0.31,3.472
			h-19.343c0.62,5.394,4.092,8.494,8.99,8.494c2.604,0,4.835-0.807,7.067-2.232l2.418,4.464c-2.914,1.922-6.572,3.286-10.416,3.286
			C633.825,303.001,627.253,297.111,627.253,287.067z M647.65,284.154c0-4.712-2.046-7.564-6.199-7.564
			c-3.596,0-6.696,2.666-7.316,7.564H647.65z"/>
	</g>
	
		<line fill="none" stroke="#000000" stroke-width="8.5039" stroke-miterlimit="10" x1="407.162" y1="322.443" x2="655.829" y2="322.443"/>
</g>
<g id="Layer_3" display="none">
</g>
<g id="Layer_4" display="none">
</g>
</svg>
