<?xml version="1.0" encoding="utf-8"?>
<!-- Generator: Adobe Illustrator 16.0.0, SVG Export Plug-In . SVG Version: 6.00 Build 0)  -->
<!DOCTYPE svg PUBLIC "-//W3C//DTD SVG 1.1//EN" "http://www.w3.org/Graphics/SVG/1.1/DTD/svg11.dtd">
<svg version="1.1" id="Layer_1" xmlns="http://www.w3.org/2000/svg" xmlns:xlink="http://www.w3.org/1999/xlink" x="0px" y="0px"
	 width="566.929px" height="425.197px" viewBox="0 0 566.929 425.197" enable-background="new 0 0 566.929 425.197"
	 xml:space="preserve">
<g>
	<path fill="#010101" d="M197.572,221.656c0-56.475,36.222-91.917,79.064-91.917c25.706,0,47.517,13.632,56.864,38.948l5.063-35.443
		h38.559L355.702,255.93c-1.169,7.79,0.778,11.295,7.399,11.295h13.242l-5.062,29.601h-18.695c-30.38,0-35.442-10.516-35.442-25.706
		v-3.505c-13.243,21.032-29.601,32.716-53.749,32.716C226.004,300.331,197.572,269.562,197.572,221.656z M324.932,211.14
		c0-28.043-14.8-47.517-40.116-47.517c-28.821,0-47.127,23.369-47.127,57.254c0,27.652,14.8,45.958,39.337,45.958
		C304.679,266.835,324.932,243.467,324.932,211.14z"/>
</g>
<path fill="none" stroke="#231F20" stroke-width="7.0866" stroke-miterlimit="10" d="M448.296-79.446"/>
<polygon fill="none" stroke="#010101" stroke-width="49.6063" stroke-miterlimit="10" points="442.414,375.588 74.5,375.588 
	132.448,52.989 500.517,52.989 "/>
</svg>
