<?xml version="1.0" encoding="utf-8"?>
<!-- Generator: Adobe Illustrator 16.0.0, SVG Export Plug-In . SVG Version: 6.00 Build 0)  -->
<!DOCTYPE svg PUBLIC "-//W3C//DTD SVG 1.1//EN" "http://www.w3.org/Graphics/SVG/1.1/DTD/svg11.dtd">
<svg version="1.1" id="Layer_1" xmlns="http://www.w3.org/2000/svg" xmlns:xlink="http://www.w3.org/1999/xlink" x="0px" y="0px"
	 width="425.197px" height="113.386px" viewBox="0 0 425.197 113.386" enable-background="new 0 0 425.197 113.386"
	 xml:space="preserve">
<g>
	<path d="M40.767,48.831c-5.503,0-8.705,2.401-11.006,5.003l-5.803-5.903c3.702-4.402,8.705-7.504,17.609-7.504
		c10.105,0,17.709,5.703,17.709,18.109V83.35H49.171l0.3-6.003c-3.001,4.502-7.004,6.903-13.207,6.903
		c-8.304,0-15.108-3.902-15.108-13.307c0-8.705,7.004-12.507,16.509-12.607h11.506C49.171,51.633,46.169,48.831,40.767,48.831z
		 M38.365,65.34c-4.402,0-7.304,1.602-7.304,5.303c0,3.603,2.802,5.503,8.004,5.503c5.903,0,10.105-2.901,10.105-7.504V65.34H38.365
		z"/>
	<path d="M71.684,41.327h10.205l-0.3,7.804c2.701-5.203,7.704-8.705,14.908-8.705c10.806,0,19.51,9.105,19.51,21.812
		c0,12.707-8.804,22.012-19.71,22.012c-7.003,0-12.006-3.401-14.408-8.104v28.415H71.684V41.327z M105.601,62.238
		c0-7.604-4.602-12.807-11.906-12.807c-7.404,0-12.206,5.203-12.206,12.807c0,7.904,4.802,13.107,12.206,13.107
		C100.999,75.346,105.601,70.143,105.601,62.238z"/>
	<path d="M126.814,41.327h10.205l-0.3,7.804c2.701-5.203,7.704-8.705,14.908-8.705c10.806,0,19.51,9.105,19.51,21.812
		c0,12.707-8.804,22.012-19.71,22.012c-7.004,0-12.006-3.401-14.408-8.104v28.415h-10.205V41.327z M160.731,62.238
		c0-7.604-4.602-12.807-11.906-12.807c-7.404,0-12.206,5.203-12.206,12.807c0,7.904,4.802,13.107,12.206,13.107
		C156.129,75.346,160.731,70.143,160.731,62.238z"/>
	<path d="M198.454,48.831c-5.503,0-8.705,2.401-11.006,5.003l-5.803-5.903c3.702-4.402,8.705-7.504,17.609-7.504
		c10.105,0,17.709,5.703,17.709,18.109V83.35h-10.105l0.3-6.003c-3.001,4.502-7.004,6.903-13.207,6.903
		c-8.304,0-15.108-3.902-15.108-13.307c0-8.705,7.004-12.507,16.509-12.607h11.506C206.858,51.633,203.857,48.831,198.454,48.831z
		 M196.053,65.34c-4.402,0-7.304,1.602-7.304,5.303c0,3.603,2.802,5.503,8.004,5.503c5.903,0,10.105-2.901,10.105-7.504V65.34
		H196.053z"/>
	<path d="M229.371,41.327h10.105l-0.101,7.904c2.802-6.604,7.604-8.705,12.207-8.705c3.001,0,5.103,0.7,6.903,1.801l-3.402,9.105
		c-1.601-0.8-3.201-1.401-5.502-1.401c-6.004,0-10.105,3.502-10.105,12.908v20.41h-10.105V41.327z"/>
	<path d="M286.7,75.746c5.503,0,9.505-2.201,11.906-4.503l5.903,6.203c-3.902,3.902-9.305,6.804-17.709,6.804
		c-14.407,0-23.713-9.305-23.713-21.911c0-12.507,9.806-21.912,22.412-21.912c14.308,0,22.411,10.605,21.711,25.313h-33.817
		C274.594,71.844,278.997,75.746,286.7,75.746z M297.005,58.736c-0.9-5.703-4.402-9.905-11.406-9.905
		c-6.503,0-11.005,3.602-12.206,9.905H297.005z"/>
	<path d="M317.918,41.327h10.105l-0.2,7.804c2.602-5.503,7.904-8.705,14.207-8.705c9.305,0,15.708,6.604,15.708,18.01V83.35h-10.104
		V59.237c0-6.004-2.802-9.505-8.705-9.505c-6.604,0-10.905,4.002-10.905,10.806V83.35h-10.105V41.327z"/>
	<path d="M372.849,69.143V49.832h-6.304v-8.504h6.304V19.416h10.104v21.911h11.206v8.504h-11.206v19.511
		c0,4.802,1.602,6.203,4.202,6.203c2.401,0,3.902-1.101,5.003-2.001l4.803,6.803c-2.102,2.001-5.403,4.003-10.806,4.003
		C378.251,84.351,372.849,80.348,372.849,69.143z"/>
</g>
</svg>
