<?xml version="1.0" encoding="utf-8"?>
<!-- Generator: Adobe Illustrator 16.0.0, SVG Export Plug-In . SVG Version: 6.00 Build 0)  -->
<!DOCTYPE svg PUBLIC "-//W3C//DTD SVG 1.1//EN" "http://www.w3.org/Graphics/SVG/1.1/DTD/svg11.dtd">
<svg version="1.1" id="Layer_1" xmlns="http://www.w3.org/2000/svg" xmlns:xlink="http://www.w3.org/1999/xlink" x="0px" y="0px"
	 width="425.197px" height="113.386px" viewBox="0 0 425.197 113.386" enable-background="new 0 0 425.197 113.386"
	 xml:space="preserve">
<g>
	<path d="M40.667,50.932c-5.103,0-7.804,2.201-9.705,3.902l-7.504-8.004c4.002-3.902,8.504-7.003,18.51-7.003
		c10.906,0,19.21,5.903,19.21,19.31V83.35H47.771l0.3-5.903c-3.202,4.902-6.903,6.804-12.606,6.804
		c-7.804,0-15.008-3.502-15.008-13.407c0-9.104,6.904-12.807,17.409-12.807h9.905C47.57,53.133,45.169,50.932,40.667,50.932z
		 M38.565,66.041c-3.402,0-4.902,1.5-4.902,3.901s2.001,3.803,5.803,3.803c5.503,0,8.305-2.401,8.305-6.004v-1.7H38.565z"/>
	<path d="M71.484,40.727h13.507l-0.3,6.604c2.601-4.603,7.104-7.504,13.707-7.504c10.305,0,19.01,9.004,19.01,22.112
		c0,13.106-8.905,22.312-19.31,22.312c-6.503,0-10.906-2.701-13.107-6.604v26.914H71.484V40.727z M103.5,61.938
		c0-6.304-3.602-10.206-9.305-10.206c-5.803,0-9.605,3.902-9.605,10.206c0,6.703,3.802,10.506,9.605,10.506
		C99.898,72.444,103.5,68.642,103.5,61.938z"/>
	<path d="M126.614,40.727h13.507l-0.3,6.604c2.601-4.603,7.104-7.504,13.707-7.504c10.305,0,19.01,9.004,19.01,22.112
		c0,13.106-8.905,22.312-19.31,22.312c-6.503,0-10.906-2.701-13.107-6.604v26.914h-13.507V40.727z M158.631,61.938
		c0-6.304-3.602-10.206-9.305-10.206c-5.803,0-9.605,3.902-9.605,10.206c0,6.703,3.802,10.506,9.605,10.506
		C155.029,72.444,158.631,68.642,158.631,61.938z"/>
	<path d="M199.255,50.932c-5.103,0-7.804,2.201-9.705,3.902l-7.504-8.004c4.002-3.902,8.504-7.003,18.51-7.003
		c10.906,0,19.209,5.903,19.209,19.31V83.35h-13.407l0.3-5.903c-3.202,4.902-6.903,6.804-12.606,6.804
		c-7.804,0-15.008-3.502-15.008-13.407c0-9.104,6.904-12.807,17.409-12.807h9.905C206.159,53.133,203.757,50.932,199.255,50.932z
		 M197.154,66.041c-3.402,0-4.902,1.5-4.902,3.901s2.001,3.803,5.803,3.803c5.503,0,8.304-2.401,8.304-6.004v-1.7H197.154z"/>
	<path d="M230.072,40.727h13.507l-0.2,7.704c3.102-7.004,8.104-8.604,12.507-8.604c2.802,0,4.902,0.8,6.604,1.701l-4.303,12.307
		c-1.7-0.801-3.302-1.301-5.202-1.301c-6.104,0-9.405,2.801-9.405,11.906v18.91h-13.507V40.727z"/>
	<path d="M291.105,73.044c4.902,0,8.604-1.9,10.705-3.401l7.704,8.305c-4.103,3.602-9.305,6.303-18.21,6.303
		c-15.207,0-25.013-9.205-25.013-22.312c0-12.907,10.306-22.112,23.513-22.112c15.308,0,23.612,11.406,22.611,26.314h-32.316
		C281.4,70.543,285.001,73.044,291.105,73.044z M298.808,58.336c-0.6-4.702-3.602-7.504-8.904-7.504s-8.904,2.401-10.005,7.504
		H298.808z"/>
	<path d="M321.623,40.727h13.507l-0.3,7.003c2.602-5.103,7.604-7.904,13.507-7.904c9.305,0,16.009,6.803,16.009,18.91V83.35h-13.508
		V59.638c0-4.803-2.301-7.505-7.104-7.505c-5.402,0-8.604,3.001-8.604,8.405V83.35h-13.507V40.727z"/>
	<path d="M378.255,67.341V51.933h-6.304V40.727h6.304V18.516h13.406v22.211h10.906v11.206h-10.906v15.809
		c0,4.303,1.401,5.203,3.502,5.203c2.201,0,3.802-1.201,4.702-1.801l5.104,9.404c-2.102,1.701-5.703,3.902-11.906,3.902
		C384.458,84.45,378.255,80.147,378.255,67.341z"/>
</g>
</svg>
