<?xml version="1.0" encoding="utf-8"?>
<!-- Generator: Adobe Illustrator 16.0.0, SVG Export Plug-In . SVG Version: 6.00 Build 0)  -->
<!DOCTYPE svg PUBLIC "-//W3C//DTD SVG 1.1//EN" "http://www.w3.org/Graphics/SVG/1.1/DTD/svg11.dtd">
<svg version="1.1" xmlns="http://www.w3.org/2000/svg" xmlns:xlink="http://www.w3.org/1999/xlink" x="0px" y="0px" width="700px"
	 height="540px" viewBox="0 0 700 540" enable-background="new 0 0 700 540" xml:space="preserve">
<g id="text" display="none">
	<text transform="matrix(1 0 0 1 190.1792 282.4639)" display="inline" font-family="'NimbusSan-Reg'" font-size="48">Trop illustration</text>
	
		<line id="underbar_12_" display="inline" fill="none" stroke="#000000" stroke-width="4.252" stroke-miterlimit="10" x1="190.179" y1="295.881" x2="508.543" y2="295.881"/>
</g>
<g id="outline">
	<g id="Trop" display="none">
		<g display="inline">
			<path d="M205.205,282.464h-4.561V254.43h-9.985v-3.984h24.53v3.984h-9.985V282.464z"/>
			<path d="M220.227,259.278v3.648c0.912-1.344,1.296-1.872,1.92-2.448c1.056-1.104,2.736-1.824,4.128-1.824
				c0.864,0,1.68,0.192,2.448,0.576v3.984c-0.912-0.192-1.392-0.24-2.016-0.24c-3.552,0-6.289,3.168-6.289,7.297v12.192h-4.417
				v-23.186H220.227z"/>
			<path d="M253.445,271.039c0,7.104-4.561,12.049-11.185,12.049s-11.137-4.944-11.137-12.241c0-7.249,4.513-12.193,11.137-12.193
				C249.029,258.654,253.445,263.551,253.445,271.039z M235.587,270.847c0,5.424,2.448,8.544,6.721,8.544
				c4.176,0,6.673-3.12,6.673-8.4c0-5.568-2.4-8.641-6.721-8.641C238.036,262.351,235.587,265.471,235.587,270.847z"/>
			<path d="M263.091,259.086v2.544c2.16-2.112,4.224-3.024,7.057-3.024c6.192,0,10.272,4.896,10.272,12.433
				c0,7.345-3.84,12.049-9.889,12.049c-3.12,0-5.665-1.104-7.44-3.264v9.984h-4.417v-30.722H263.091z M262.851,270.703
				c0,5.616,2.304,8.688,6.577,8.688c4.176,0,6.528-3.072,6.528-8.544s-2.352-8.544-6.528-8.544S262.851,265.375,262.851,270.703z"
				/>
			<path d="M304.466,255.582h-4.417v-5.136h4.417V255.582z M304.466,282.464h-4.417v-23.186h4.417V282.464z"/>
			<path d="M315.314,282.464h-4.416v-32.018h4.416V282.464z"/>
			<path d="M326.163,282.464h-4.417v-32.018h4.417V282.464z"/>
			<path d="M347.763,282.464v-2.64c-2.305,2.447-4.177,3.264-7.345,3.264c-2.736,0-4.992-0.912-6.289-2.544
				c-1.104-1.44-1.536-3.072-1.536-5.761v-15.505h4.417v15.169c0,3.168,1.44,4.704,4.464,4.704c3.793,0,6.097-2.208,6.097-5.808
				v-14.065h4.417v23.186H347.763z"/>
			<path d="M371.81,266.383c-0.624-2.88-2.208-4.08-5.28-4.08c-2.641,0-4.417,1.104-4.417,2.736c0,1.152,0.816,1.92,2.688,2.4
				l5.377,1.392c4.848,1.248,6.864,3.264,6.864,6.816c0,4.561-3.744,7.44-9.648,7.44c-6.289,0-10.033-3.072-10.514-8.593h4.369
				c0.239,3.072,2.544,4.896,6.24,4.896c3.168,0,5.232-1.392,5.232-3.552c0-1.536-1.008-2.353-3.696-3.072l-4.608-1.152
				c-2.448-0.624-3.937-1.296-4.896-2.16c-1.057-0.912-1.729-2.448-1.729-3.984c0-3.984,3.696-6.816,8.929-6.816
				c3.312,0,6.049,1.104,7.681,3.072c1.009,1.248,1.44,2.496,1.633,4.656H371.81z"/>
			<path d="M391.009,262.783h-4.176v14.545c0,1.344,0.624,2.111,1.729,2.111c0.624,0,1.248-0.144,2.447-0.624v3.601
				c-1.92,0.432-2.64,0.528-3.696,0.528c-3.312,0-4.896-1.776-4.896-5.616v-14.545h-3.121v-3.504h3.121v-7.345h4.416v7.345h4.176
				V262.783z"/>
			<path d="M399.503,259.278v3.648c0.912-1.344,1.296-1.872,1.92-2.448c1.057-1.104,2.736-1.824,4.129-1.824
				c0.864,0,1.68,0.192,2.448,0.576v3.984c-0.912-0.192-1.393-0.24-2.017-0.24c-3.552,0-6.288,3.168-6.288,7.297v12.192h-4.417
				v-23.186H399.503z"/>
			<path d="M411.646,266.959c0.192-2.736,0.721-4.368,1.872-5.665c1.488-1.68,4.272-2.64,7.537-2.64
				c5.761,0,9.024,2.736,9.024,7.537v10.897c0,1.824,0.24,2.208,1.248,2.208c0.385,0,0.624-0.048,1.152-0.24v3.408
				c-1.056,0.24-1.968,0.336-2.88,0.336c-2.112,0-3.072-0.912-3.457-3.12c-2.352,2.353-4.896,3.408-8.017,3.408
				c-4.512,0-7.584-2.784-7.584-6.864c0-3.744,2.304-6.048,7.009-7.008l5.136-1.008c2.784-0.528,3.36-0.96,3.36-2.4
				c0-2.256-1.968-3.648-5.088-3.648c-2.257,0-4.033,0.72-4.657,1.968c-0.336,0.624-0.432,1.152-0.527,2.832H411.646z
				 M426.144,270.559c-0.815,0.336-1.584,0.576-2.735,0.864l-4.513,1.057c-2.688,0.624-3.889,1.728-3.889,3.552
				c0,2.112,1.729,3.553,4.32,3.553c3.744,0,6.816-2.736,6.816-6.049V270.559z"/>
			<path d="M445.919,262.783h-4.176v14.545c0,1.344,0.624,2.111,1.729,2.111c0.624,0,1.248-0.144,2.447-0.624v3.601
				c-1.92,0.432-2.64,0.528-3.696,0.528c-3.312,0-4.896-1.776-4.896-5.616v-14.545h-3.121v-3.504h3.121v-7.345h4.416v7.345h4.176
				V262.783z"/>
			<path d="M454.606,255.582h-4.417v-5.136h4.417V255.582z M454.606,282.464h-4.417v-23.186h4.417V282.464z"/>
			<path d="M482.207,271.039c0,7.104-4.56,12.049-11.185,12.049s-11.137-4.944-11.137-12.241c0-7.249,4.512-12.193,11.137-12.193
				C477.791,258.654,482.207,263.551,482.207,271.039z M464.35,270.847c0,5.424,2.448,8.544,6.721,8.544
				c4.177,0,6.673-3.12,6.673-8.4c0-5.568-2.4-8.641-6.721-8.641C466.798,262.351,464.35,265.471,464.35,270.847z"/>
			<path d="M491.661,259.278v2.64c2.305-2.448,4.177-3.264,7.345-3.264c2.736,0,4.992,0.912,6.289,2.544
				c1.104,1.44,1.536,3.072,1.536,5.76v15.505h-4.417v-15.169c0-3.168-1.439-4.704-4.464-4.704c-3.793,0-6.097,2.208-6.097,5.808
				v14.065h-4.417v-23.186H491.661z"/>
		</g>
		
			<line id="underbar_13_" display="inline" fill="none" stroke="#000000" stroke-width="4.252" stroke-miterlimit="10" x1="190.179" y1="295.881" x2="508.543" y2="295.881"/>
	</g>
	<g id="Sqpatterns" display="none">
		
			<line id="underbar_8_" display="inline" fill="none" stroke="#000000" stroke-width="4.252" stroke-miterlimit="10" x1="186.636" y1="324.228" x2="422.181" y2="324.228"/>
		
			<line id="underbar_11_" display="inline" fill="none" stroke="#000000" stroke-width="4.252" stroke-miterlimit="10" x1="186.636" y1="270.191" x2="496.347" y2="270.191"/>
		<g display="inline">
			<path d="M209.534,232.874c-0.48-4.417-3.12-6.577-7.969-6.577c-4.272,0-7.008,1.824-7.008,4.608c0,2.353,1.68,3.745,5.76,4.656
				l5.185,1.152c3.792,0.864,5.712,1.681,7.249,3.072c1.68,1.488,2.592,3.648,2.592,6.145c0,6.049-4.896,9.793-12.673,9.793
				c-8.305,0-13.297-4.225-13.969-11.905h4.752c0.48,5.089,3.84,7.921,9.361,7.921c4.608,0,7.873-2.256,7.873-5.473
				c0-2.399-1.729-3.984-5.089-4.8l-7.2-1.729c-5.857-1.392-8.497-3.984-8.497-8.305c0-5.616,4.657-9.169,12.001-9.169
				c7.345,0,11.281,3.408,12.289,10.609H209.534z"/>
			<path d="M241.454,262.349h-4.417v-9.89c-2.256,2.209-4.464,3.169-7.393,3.169c-5.953,0-9.889-4.896-9.889-12.289
				c0-7.44,3.937-12.146,10.177-12.146c2.88,0,4.992,0.912,7.104,3.12v-2.496h4.417V262.349z M224.22,243.387
				c0,5.473,2.353,8.545,6.529,8.545c4.128,0,6.529-3.072,6.529-8.401c0-5.568-2.305-8.641-6.529-8.641
				C226.572,234.89,224.22,237.962,224.22,243.387z"/>
			<path d="M263.148,255.004v-2.641c-2.304,2.448-4.177,3.265-7.345,3.265c-2.736,0-4.993-0.912-6.289-2.544
				c-1.104-1.44-1.536-3.072-1.536-5.761v-15.506h4.417v15.17c0,3.168,1.44,4.704,4.464,4.704c3.792,0,6.096-2.208,6.096-5.809
				v-14.065h4.417v23.187H263.148z"/>
			<path d="M273.803,239.498c0.192-2.736,0.72-4.368,1.872-5.664c1.488-1.681,4.272-2.641,7.537-2.641
				c5.76,0,9.025,2.736,9.025,7.537v10.896c0,1.824,0.24,2.208,1.248,2.208c0.384,0,0.624-0.048,1.152-0.239v3.408
				c-1.056,0.24-1.968,0.336-2.88,0.336c-2.112,0-3.072-0.912-3.456-3.12c-2.352,2.353-4.896,3.408-8.017,3.408
				c-4.513,0-7.585-2.784-7.585-6.865c0-3.744,2.304-6.048,7.009-7.008l5.137-1.009c2.784-0.527,3.36-0.96,3.36-2.399
				c0-2.257-1.968-3.648-5.088-3.648c-2.256,0-4.032,0.72-4.656,1.968c-0.336,0.624-0.432,1.152-0.528,2.832H273.803z
				 M288.3,243.099c-0.816,0.336-1.584,0.576-2.736,0.864l-4.512,1.056c-2.688,0.624-3.888,1.729-3.888,3.553
				c0,2.112,1.728,3.552,4.32,3.552c3.744,0,6.816-2.736,6.816-6.048V243.099z"/>
			<path d="M303.13,231.817v3.648c0.912-1.344,1.296-1.872,1.92-2.448c1.056-1.104,2.736-1.824,4.128-1.824
				c0.864,0,1.68,0.192,2.448,0.576v3.984c-0.912-0.192-1.393-0.24-2.017-0.24c-3.552,0-6.288,3.169-6.288,7.297v12.193h-4.417
				v-23.187H303.13z"/>
			<path d="M318.49,244.491c0.336,4.752,2.736,7.44,6.721,7.44c2.736,0,4.561-1.296,5.616-4.032h4.225
				c-1.104,4.848-4.801,7.729-9.937,7.729c-6.529,0-11.041-4.992-11.041-12.241s4.416-12.193,10.896-12.193
				c4.608,0,7.969,2.448,9.505,6.913c0.576,1.728,0.864,3.6,0.912,6.385H318.49z M330.779,241.274
				c-0.192-4.225-2.304-6.576-5.809-6.576c-3.601,0-6.192,2.688-6.433,6.576H330.779z"/>
			<path d="M359.434,231.626v2.544c2.16-2.112,4.225-3.024,7.057-3.024c6.192,0,10.272,4.896,10.272,12.434
				c0,7.344-3.84,12.049-9.889,12.049c-3.12,0-5.664-1.104-7.44-3.265v9.985h-4.417v-30.723H359.434z M359.193,243.242
				c0,5.617,2.305,8.689,6.576,8.689c4.177,0,6.529-3.072,6.529-8.545s-2.353-8.545-6.529-8.545
				C361.594,234.842,359.193,237.914,359.193,243.242z"/>
			<path d="M381.944,239.498c0.192-2.736,0.721-4.368,1.872-5.664c1.488-1.681,4.272-2.641,7.537-2.641
				c5.761,0,9.024,2.736,9.024,7.537v10.896c0,1.824,0.24,2.208,1.248,2.208c0.385,0,0.624-0.048,1.152-0.239v3.408
				c-1.056,0.24-1.968,0.336-2.88,0.336c-2.112,0-3.072-0.912-3.456-3.12c-2.353,2.353-4.896,3.408-8.018,3.408
				c-4.512,0-7.584-2.784-7.584-6.865c0-3.744,2.304-6.048,7.009-7.008l5.136-1.009c2.784-0.527,3.36-0.96,3.36-2.399
				c0-2.257-1.968-3.648-5.088-3.648c-2.257,0-4.032,0.72-4.657,1.968c-0.336,0.624-0.432,1.152-0.527,2.832H381.944z
				 M396.442,243.099c-0.816,0.336-1.585,0.576-2.736,0.864l-4.513,1.056c-2.688,0.624-3.889,1.729-3.889,3.553
				c0,2.112,1.729,3.552,4.32,3.552c3.745,0,6.817-2.736,6.817-6.048V243.099z"/>
			<path d="M416.217,235.322h-4.176v14.545c0,1.344,0.624,2.112,1.728,2.112c0.625,0,1.249-0.145,2.448-0.624v3.601
				c-1.92,0.432-2.64,0.528-3.696,0.528c-3.312,0-4.896-1.776-4.896-5.617v-14.545h-3.12v-3.505h3.12v-7.345h4.417v7.345h4.176
				V235.322z"/>
			<path d="M430.568,235.322h-4.176v14.545c0,1.344,0.624,2.112,1.728,2.112c0.625,0,1.249-0.145,2.448-0.624v3.601
				c-1.92,0.432-2.64,0.528-3.696,0.528c-3.312,0-4.896-1.776-4.896-5.617v-14.545h-3.12v-3.505h3.12v-7.345h4.417v7.345h4.176
				V235.322z"/>
			<path d="M437.479,244.491c0.336,4.752,2.736,7.44,6.721,7.44c2.736,0,4.561-1.296,5.616-4.032h4.225
				c-1.104,4.848-4.801,7.729-9.937,7.729c-6.529,0-11.041-4.992-11.041-12.241s4.416-12.193,10.896-12.193
				c4.608,0,7.969,2.448,9.505,6.913c0.576,1.728,0.864,3.6,0.912,6.385H437.479z M449.769,241.274
				c-0.192-4.225-2.304-6.576-5.809-6.576c-3.601,0-6.192,2.688-6.433,6.576H449.769z"/>
			<path d="M463.831,231.817v3.648c0.912-1.344,1.296-1.872,1.92-2.448c1.057-1.104,2.736-1.824,4.129-1.824
				c0.864,0,1.68,0.192,2.448,0.576v3.984c-0.912-0.192-1.393-0.24-2.017-0.24c-3.552,0-6.288,3.169-6.288,7.297v12.193h-4.417
				v-23.187H463.831z"/>
			<path d="M480.534,231.817v2.641c2.305-2.448,4.177-3.265,7.345-3.265c2.736,0,4.992,0.912,6.289,2.545
				c1.104,1.439,1.536,3.072,1.536,5.76v15.506h-4.417v-15.17c0-3.168-1.439-4.704-4.464-4.704c-3.793,0-6.097,2.208-6.097,5.809
				v14.065h-4.417v-23.187H480.534z"/>
			<path d="M194.269,286.121h-4.417v-5.136h4.417V286.121z M194.269,313.004h-4.417v-23.186h4.417V313.004z"/>
			<path d="M205.116,313.004H200.7v-32.019h4.417V313.004z"/>
			<path d="M215.964,313.004h-4.417v-32.019h4.417V313.004z"/>
			<path d="M237.565,313.004v-2.641c-2.304,2.448-4.177,3.265-7.345,3.265c-2.736,0-4.993-0.912-6.289-2.544
				c-1.104-1.44-1.536-3.072-1.536-5.761v-15.505h4.417v15.169c0,3.168,1.44,4.704,4.464,4.704c3.792,0,6.096-2.208,6.096-5.809
				v-14.064h4.417v23.186H237.565z"/>
			<path d="M261.612,296.923c-0.624-2.881-2.208-4.081-5.281-4.081c-2.64,0-4.416,1.104-4.416,2.736c0,1.152,0.816,1.921,2.688,2.4
				l5.376,1.393c4.849,1.248,6.865,3.264,6.865,6.816c0,4.561-3.744,7.44-9.649,7.44c-6.289,0-10.033-3.072-10.513-8.593h4.368
				c0.24,3.072,2.544,4.896,6.241,4.896c3.168,0,5.232-1.393,5.232-3.553c0-1.536-1.008-2.352-3.696-3.072l-4.608-1.151
				c-2.448-0.624-3.937-1.297-4.896-2.16c-1.056-0.912-1.728-2.448-1.728-3.984c0-3.984,3.696-6.817,8.929-6.817
				c3.312,0,6.048,1.104,7.681,3.072c1.008,1.249,1.44,2.497,1.632,4.657H261.612z"/>
			<path d="M280.812,293.322h-4.176v14.545c0,1.345,0.624,2.112,1.728,2.112c0.624,0,1.248-0.144,2.448-0.624v3.601
				c-1.92,0.432-2.64,0.528-3.696,0.528c-3.312,0-4.896-1.776-4.896-5.617v-14.545h-3.12v-3.504h3.12v-7.345h4.417v7.345h4.176
				V293.322z"/>
			<path d="M289.306,289.818v3.647c0.912-1.344,1.296-1.872,1.92-2.448c1.056-1.104,2.736-1.824,4.128-1.824
				c0.864,0,1.68,0.192,2.448,0.576v3.984c-0.912-0.191-1.392-0.239-2.016-0.239c-3.552,0-6.289,3.168-6.289,7.296v12.193h-4.417
				v-23.186H289.306z"/>
			<path d="M301.45,297.499c0.192-2.736,0.72-4.369,1.872-5.665c1.488-1.68,4.272-2.641,7.537-2.641
				c5.761,0,9.024,2.736,9.024,7.537v10.896c0,1.824,0.24,2.209,1.248,2.209c0.385,0,0.624-0.048,1.152-0.24v3.408
				c-1.056,0.24-1.968,0.336-2.88,0.336c-2.112,0-3.072-0.912-3.457-3.12c-2.352,2.353-4.896,3.408-8.016,3.408
				c-4.513,0-7.585-2.784-7.585-6.864c0-3.744,2.304-6.049,7.009-7.009l5.136-1.008c2.784-0.528,3.36-0.961,3.36-2.4
				c0-2.257-1.968-3.648-5.088-3.648c-2.256,0-4.033,0.72-4.657,1.968c-0.336,0.624-0.432,1.152-0.528,2.833H301.45z
				 M315.946,301.099c-0.815,0.336-1.584,0.576-2.735,0.864l-4.513,1.057c-2.688,0.624-3.889,1.728-3.889,3.552
				c0,2.112,1.729,3.553,4.32,3.553c3.744,0,6.816-2.736,6.816-6.049V301.099z"/>
			<path d="M335.722,293.322h-4.176v14.545c0,1.345,0.624,2.112,1.729,2.112c0.624,0,1.248-0.144,2.447-0.624v3.601
				c-1.92,0.432-2.64,0.528-3.696,0.528c-3.312,0-4.896-1.776-4.896-5.617v-14.545h-3.121v-3.504h3.121v-7.345h4.416v7.345h4.176
				V293.322z"/>
			<path d="M344.408,286.121h-4.417v-5.136h4.417V286.121z M344.408,313.004h-4.417v-23.186h4.417V313.004z"/>
			<path d="M372.01,301.579c0,7.104-4.56,12.049-11.185,12.049s-11.137-4.944-11.137-12.241c0-7.248,4.512-12.193,11.137-12.193
				C367.594,289.193,372.01,294.09,372.01,301.579z M354.152,301.387c0,5.425,2.448,8.545,6.721,8.545c4.177,0,6.673-3.12,6.673-8.4
				c0-5.568-2.4-8.641-6.721-8.641C356.601,292.891,354.152,296.011,354.152,301.387z"/>
			<path d="M381.463,289.818v2.64c2.305-2.448,4.177-3.265,7.345-3.265c2.736,0,4.992,0.912,6.289,2.545
				c1.104,1.439,1.536,3.072,1.536,5.761v15.505h-4.417v-15.169c0-3.169-1.439-4.705-4.464-4.705c-3.793,0-6.097,2.208-6.097,5.809
				v14.065h-4.417v-23.186H381.463z"/>
			<path d="M416.456,296.923c-0.624-2.881-2.208-4.081-5.28-4.081c-2.641,0-4.417,1.104-4.417,2.736c0,1.152,0.816,1.921,2.688,2.4
				l5.377,1.393c4.848,1.248,6.864,3.264,6.864,6.816c0,4.561-3.744,7.44-9.648,7.44c-6.289,0-10.033-3.072-10.514-8.593h4.369
				c0.239,3.072,2.544,4.896,6.24,4.896c3.168,0,5.232-1.393,5.232-3.553c0-1.536-1.008-2.352-3.696-3.072l-4.608-1.151
				c-2.448-0.624-3.937-1.297-4.896-2.16c-1.057-0.912-1.729-2.448-1.729-3.984c0-3.984,3.696-6.817,8.929-6.817
				c3.312,0,6.049,1.104,7.681,3.072c1.009,1.249,1.44,2.497,1.633,4.657H416.456z"/>
		</g>
	</g>
	<g id="Jusqu_x27_au_bout" display="none">
		
			<line id="underbar_6_" display="inline" fill="none" stroke="#000000" stroke-width="4.252" stroke-miterlimit="10" x1="88.862" y1="297.284" x2="609.441" y2="297.284"/>
		<g display="inline">
			<path d="M108.162,250.705v22.705c0,3.744-0.528,5.664-2.064,7.297c-1.632,1.775-4.176,2.735-7.249,2.735
				c-4.32,0-7.44-1.872-8.689-5.28c-0.48-1.344-0.624-2.832-0.672-5.951h4.561c0.048,2.304,0.144,3.359,0.48,4.367
				c0.672,1.872,2.208,2.881,4.32,2.881c1.536,0,2.832-0.576,3.6-1.585c0.864-1.056,1.152-2.304,1.152-4.56v-22.609H108.162z"/>
			<path d="M130.337,282.723v-2.64c-2.304,2.447-4.176,3.264-7.345,3.264c-2.736,0-4.993-0.912-6.289-2.544
				c-1.104-1.44-1.536-3.072-1.536-5.761v-15.505h4.417v15.169c0,3.168,1.44,4.704,4.464,4.704c3.792,0,6.096-2.208,6.096-5.808
				v-14.065h4.417v23.186H130.337z"/>
			<path d="M154.384,266.642c-0.624-2.88-2.208-4.08-5.281-4.08c-2.64,0-4.416,1.104-4.416,2.736c0,1.152,0.816,1.92,2.688,2.4
				l5.376,1.392c4.849,1.248,6.865,3.265,6.865,6.816c0,4.561-3.744,7.44-9.649,7.44c-6.289,0-10.033-3.072-10.513-8.593h4.368
				c0.24,3.072,2.544,4.896,6.241,4.896c3.168,0,5.232-1.392,5.232-3.552c0-1.536-1.008-2.352-3.696-3.072l-4.608-1.152
				c-2.448-0.624-3.937-1.296-4.896-2.16c-1.056-0.912-1.728-2.448-1.728-3.984c0-3.984,3.696-6.816,8.929-6.816
				c3.312,0,6.048,1.104,7.681,3.072c1.008,1.248,1.44,2.496,1.632,4.656H154.384z"/>
			<path d="M184.912,290.067h-4.417v-9.889c-2.256,2.208-4.464,3.168-7.393,3.168c-5.953,0-9.889-4.896-9.889-12.288
				c0-7.44,3.937-12.146,10.177-12.146c2.88,0,4.992,0.912,7.104,3.12v-2.496h4.417V290.067z M167.678,271.106
				c0,5.472,2.353,8.544,6.529,8.544c4.128,0,6.529-3.072,6.529-8.4c0-5.568-2.305-8.641-6.529-8.641
				C170.031,262.609,167.678,265.682,167.678,271.106z"/>
			<path d="M206.608,282.723v-2.64c-2.304,2.447-4.177,3.264-7.345,3.264c-2.736,0-4.993-0.912-6.289-2.544
				c-1.104-1.44-1.536-3.072-1.536-5.761v-15.505h4.417v15.169c0,3.168,1.44,4.704,4.464,4.704c3.792,0,6.096-2.208,6.096-5.808
				v-14.065h4.417v23.186H206.608z"/>
			<path d="M222.494,250.705v4.08c0,3.888-1.729,6.433-4.945,7.297v-2.929c1.345-0.672,1.921-1.776,1.921-3.648h-1.921v-4.8H222.494
				z"/>
			<path d="M228.924,267.218c0.192-2.736,0.721-4.368,1.872-5.664c1.488-1.681,4.272-2.641,7.537-2.641
				c5.761,0,9.024,2.736,9.024,7.537v10.896c0,1.824,0.24,2.208,1.248,2.208c0.385,0,0.624-0.048,1.152-0.24v3.408
				c-1.056,0.24-1.968,0.336-2.88,0.336c-2.112,0-3.072-0.912-3.456-3.12c-2.353,2.353-4.896,3.408-8.018,3.408
				c-4.512,0-7.584-2.784-7.584-6.864c0-3.744,2.304-6.048,7.009-7.008l5.136-1.009c2.784-0.527,3.36-0.96,3.36-2.399
				c0-2.257-1.968-3.648-5.088-3.648c-2.257,0-4.032,0.72-4.657,1.968c-0.336,0.624-0.432,1.152-0.527,2.832H228.924z
				 M243.422,270.818c-0.816,0.336-1.585,0.576-2.736,0.864l-4.513,1.056c-2.688,0.624-3.889,1.728-3.889,3.552
				c0,2.112,1.729,3.553,4.32,3.553c3.745,0,6.817-2.736,6.817-6.048V270.818z"/>
			<path d="M269.198,282.723v-2.64c-2.305,2.447-4.177,3.264-7.345,3.264c-2.736,0-4.992-0.912-6.289-2.544
				c-1.104-1.44-1.536-3.072-1.536-5.761v-15.505h4.417v15.169c0,3.168,1.44,4.704,4.464,4.704c3.793,0,6.097-2.208,6.097-5.808
				v-14.065h4.417v23.186H269.198z"/>
			<path d="M294.298,250.705h4.417v11.473c2.208-2.256,4.464-3.265,7.393-3.265c6,0,9.984,4.801,9.984,12.098
				c0,7.584-3.936,12.336-10.129,12.336c-2.976,0-5.04-0.912-7.248-3.216v2.592h-4.417V250.705z M298.571,271.011
				c0,5.567,2.305,8.64,6.529,8.64c4.176,0,6.528-3.072,6.528-8.544c0-5.425-2.353-8.497-6.528-8.497
				C300.971,262.609,298.571,265.682,298.571,271.011z"/>
			<path d="M342.541,271.299c0,7.104-4.56,12.048-11.185,12.048s-11.137-4.944-11.137-12.24c0-7.249,4.512-12.193,11.137-12.193
				C338.125,258.913,342.541,263.81,342.541,271.299z M324.683,271.106c0,5.424,2.448,8.544,6.721,8.544
				c4.177,0,6.673-3.12,6.673-8.4c0-5.568-2.4-8.641-6.721-8.641C327.131,262.609,324.683,265.729,324.683,271.106z"/>
			<path d="M362.939,282.723v-2.64c-2.305,2.447-4.178,3.264-7.346,3.264c-2.736,0-4.992-0.912-6.289-2.544
				c-1.104-1.44-1.536-3.072-1.536-5.761v-15.505h4.417v15.169c0,3.168,1.441,4.704,4.465,4.704c3.793,0,6.096-2.208,6.096-5.808
				v-14.065h4.418v23.186H362.939z"/>
			<path d="M382.857,263.042h-4.176v14.545c0,1.344,0.625,2.111,1.729,2.111c0.625,0,1.248-0.144,2.447-0.624v3.601
				c-1.92,0.432-2.639,0.528-3.695,0.528c-3.312,0-4.896-1.776-4.896-5.616v-14.545h-3.121v-3.505h3.121v-7.345h4.416v7.345h4.176
				V263.042z"/>
			<path d="M405.512,255.841h-4.416v-5.136h4.416V255.841z M405.512,282.723h-4.416v-23.186h4.416V282.723z"/>
			<path d="M416.361,282.723h-4.418v-32.018h4.418V282.723z"/>
			<path d="M427.209,282.723h-4.418v-32.018h4.418V282.723z"/>
			<path d="M448.809,282.723v-2.64c-2.305,2.447-4.176,3.264-7.344,3.264c-2.736,0-4.992-0.912-6.289-2.544
				c-1.104-1.44-1.537-3.072-1.537-5.761v-15.505h4.418v15.169c0,3.168,1.439,4.704,4.463,4.704c3.793,0,6.098-2.208,6.098-5.808
				v-14.065h4.416v23.186H448.809z"/>
			<path d="M472.857,266.642c-0.625-2.88-2.209-4.08-5.281-4.08c-2.641,0-4.416,1.104-4.416,2.736c0,1.152,0.816,1.92,2.688,2.4
				l5.377,1.392c4.848,1.248,6.865,3.265,6.865,6.816c0,4.561-3.744,7.44-9.648,7.44c-6.289,0-10.033-3.072-10.514-8.593h4.369
				c0.238,3.072,2.543,4.896,6.24,4.896c3.168,0,5.232-1.392,5.232-3.552c0-1.536-1.008-2.352-3.697-3.072l-4.607-1.152
				c-2.449-0.624-3.938-1.296-4.896-2.16c-1.057-0.912-1.729-2.448-1.729-3.984c0-3.984,3.695-6.816,8.928-6.816
				c3.312,0,6.049,1.104,7.682,3.072c1.008,1.248,1.439,2.496,1.633,4.656H472.857z"/>
			<path d="M492.055,263.042h-4.176v14.545c0,1.344,0.625,2.111,1.729,2.111c0.625,0,1.248-0.144,2.447-0.624v3.601
				c-1.92,0.432-2.639,0.528-3.695,0.528c-3.312,0-4.896-1.776-4.896-5.616v-14.545h-3.121v-3.505h3.121v-7.345h4.416v7.345h4.176
				V263.042z"/>
			<path d="M500.551,259.537v3.648c0.912-1.344,1.295-1.872,1.92-2.448c1.057-1.104,2.736-1.824,4.129-1.824
				c0.863,0,1.68,0.192,2.447,0.576v3.984c-0.912-0.192-1.393-0.24-2.016-0.24c-3.553,0-6.289,3.169-6.289,7.297v12.192h-4.416
				v-23.186H500.551z"/>
			<path d="M512.693,267.218c0.191-2.736,0.721-4.368,1.871-5.664c1.488-1.681,4.273-2.641,7.537-2.641
				c5.762,0,9.025,2.736,9.025,7.537v10.896c0,1.824,0.24,2.208,1.248,2.208c0.385,0,0.623-0.048,1.152-0.24v3.408
				c-1.057,0.24-1.969,0.336-2.881,0.336c-2.111,0-3.072-0.912-3.457-3.12c-2.352,2.353-4.895,3.408-8.016,3.408
				c-4.512,0-7.584-2.784-7.584-6.864c0-3.744,2.303-6.048,7.008-7.008l5.137-1.009c2.783-0.527,3.359-0.96,3.359-2.399
				c0-2.257-1.967-3.648-5.088-3.648c-2.256,0-4.033,0.72-4.656,1.968c-0.336,0.624-0.432,1.152-0.527,2.832H512.693z
				 M527.189,270.818c-0.814,0.336-1.584,0.576-2.734,0.864l-4.514,1.056c-2.688,0.624-3.889,1.728-3.889,3.552
				c0,2.112,1.729,3.553,4.32,3.553c3.744,0,6.816-2.736,6.816-6.048V270.818z"/>
			<path d="M546.965,263.042h-4.176v14.545c0,1.344,0.625,2.111,1.729,2.111c0.625,0,1.248-0.144,2.447-0.624v3.601
				c-1.92,0.432-2.639,0.528-3.695,0.528c-3.312,0-4.896-1.776-4.896-5.616v-14.545h-3.121v-3.505h3.121v-7.345h4.416v7.345h4.176
				V263.042z"/>
			<path d="M555.652,255.841h-4.416v-5.136h4.416V255.841z M555.652,282.723h-4.416v-23.186h4.416V282.723z"/>
			<path d="M583.254,271.299c0,7.104-4.561,12.048-11.186,12.048s-11.137-4.944-11.137-12.24c0-7.249,4.512-12.193,11.137-12.193
				C578.838,258.913,583.254,263.81,583.254,271.299z M565.396,271.106c0,5.424,2.447,8.544,6.721,8.544
				c4.176,0,6.672-3.12,6.672-8.4c0-5.568-2.4-8.641-6.721-8.641C567.844,262.609,565.396,265.729,565.396,271.106z"/>
			<path d="M592.707,259.537v2.641c2.305-2.448,4.178-3.265,7.346-3.265c2.736,0,4.992,0.912,6.289,2.545
				c1.104,1.439,1.535,3.072,1.535,5.76v15.505h-4.416v-15.169c0-3.168-1.439-4.704-4.465-4.704c-3.793,0-6.096,2.208-6.096,5.809
				v14.064h-4.418v-23.186H592.707z"/>
		</g>
	</g>
	<g id="SIMPLE_THINGS" display="none">
		
			<line id="underbar_10_" display="inline" fill="none" stroke="#000000" stroke-width="4.252" stroke-miterlimit="10" x1="195.371" y1="270.45" x2="489" y2="270.45"/>
		<g display="inline">
			<path d="M218.269,232.874c-0.48-4.417-3.12-6.577-7.969-6.577c-4.272,0-7.008,1.824-7.008,4.608c0,2.352,1.68,3.745,5.76,4.656
				l5.185,1.152c3.792,0.864,5.712,1.68,7.249,3.072c1.68,1.488,2.592,3.648,2.592,6.145c0,6.048-4.896,9.792-12.673,9.792
				c-8.305,0-13.297-4.224-13.969-11.905h4.752c0.48,5.088,3.84,7.921,9.361,7.921c4.608,0,7.873-2.256,7.873-5.473
				c0-2.4-1.729-3.984-5.089-4.8l-7.2-1.728c-5.857-1.392-8.497-3.984-8.497-8.305c0-5.617,4.657-9.169,12.001-9.169
				c7.345,0,11.281,3.408,12.289,10.609H218.269z"/>
			<path d="M234.204,228.122h-4.417v-5.136h4.417V228.122z M234.204,255.004h-4.417v-23.186h4.417V255.004z"/>
			<path d="M244.859,231.818v2.928c1.776-2.64,3.409-3.552,6.289-3.552c3.072,0,4.945,1.2,6,3.888
				c1.824-2.784,3.745-3.888,7.009-3.888c2.448,0,4.561,0.864,5.712,2.4c1.056,1.296,1.488,2.976,1.488,5.665v15.745h-4.417v-15.409
				c0-3.024-1.248-4.464-3.84-4.464c-3.024,0-4.896,2.208-4.896,5.76v14.113h-4.416V239.21c0-2.64-1.344-4.08-3.84-4.08
				c-2.977,0-4.896,2.16-4.896,5.521v14.353h-4.417v-23.186H244.859z"/>
			<path d="M282.299,231.626v2.544c2.16-2.112,4.224-3.024,7.057-3.024c6.192,0,10.272,4.896,10.272,12.433
				c0,7.344-3.84,12.049-9.889,12.049c-3.12,0-5.665-1.104-7.44-3.264v9.985h-4.417v-30.723H282.299z M282.059,243.243
				c0,5.617,2.304,8.689,6.577,8.689c4.176,0,6.528-3.072,6.528-8.545c0-5.472-2.352-8.544-6.528-8.544
				S282.059,237.915,282.059,243.243z"/>
			<path d="M309.274,255.004h-4.417v-32.019h4.417V255.004z"/>
			<path d="M318.971,244.491c0.336,4.752,2.736,7.44,6.72,7.44c2.736,0,4.561-1.296,5.617-4.032h4.224
				c-1.104,4.848-4.8,7.729-9.937,7.729c-6.528,0-11.041-4.992-11.041-12.241c0-7.249,4.417-12.193,10.897-12.193
				c4.608,0,7.969,2.448,9.505,6.913c0.575,1.728,0.863,3.6,0.912,6.385H318.971z M331.26,241.275
				c-0.192-4.225-2.305-6.577-5.809-6.577c-3.601,0-6.192,2.688-6.433,6.577H331.26z"/>
			<path d="M367.307,255.004h-4.561V226.97h-9.984v-3.984h24.529v3.984h-9.984V255.004z"/>
			<path d="M385.736,233.93c2.256-1.968,4.128-2.736,6.912-2.736c2.833,0,5.137,0.96,6.529,2.688
				c1.104,1.344,1.536,2.977,1.536,5.617v15.505h-4.417v-14.785c0-1.968-0.24-2.977-0.96-3.745
				c-0.768-0.864-2.016-1.344-3.552-1.344c-3.841,0-6.049,2.304-6.049,6.192v13.681h-4.417v-32.019h4.417V233.93z"/>
			<path d="M411.607,228.122h-4.417v-5.136h4.417V228.122z M411.607,255.004h-4.417v-23.186h4.417V255.004z"/>
			<path d="M422.264,231.818v2.64c2.305-2.448,4.177-3.264,7.345-3.264c2.736,0,4.992,0.912,6.289,2.544
				c1.104,1.44,1.536,3.072,1.536,5.76v15.505h-4.417v-15.169c0-3.168-1.439-4.704-4.464-4.704c-3.793,0-6.097,2.208-6.097,5.808
				v14.065h-4.417v-23.186H422.264z"/>
			<path d="M463.592,231.818v22.274c0,3.072-0.72,5.089-2.352,6.433c-1.824,1.584-4.657,2.448-8.113,2.448
				c-3.408,0-6.097-0.912-7.729-2.641c-1.008-1.056-1.488-2.208-1.681-4.272h4.225c0.24,2.257,2.017,3.409,5.329,3.409
				c4.176,0,6.096-1.776,6.096-5.617v-2.64c-1.872,2.016-4.176,3.025-6.864,3.025c-5.856,0-9.937-4.657-9.937-11.33
				c0-6.913,4.128-11.713,10.032-11.713c3.024,0,4.944,0.912,6.865,3.168l-0.097-2.544H463.592z M447.03,242.715
				c0,4.752,2.353,7.681,6.241,7.681c3.792,0,6.192-2.928,6.192-7.584c0-4.849-2.305-7.777-6.241-7.777
				C449.383,235.034,447.03,237.962,447.03,242.715z"/>
			<path d="M483.464,238.922c-0.624-2.88-2.208-4.08-5.28-4.08c-2.641,0-4.417,1.104-4.417,2.736c0,1.152,0.816,1.92,2.688,2.4
				l5.377,1.392c4.848,1.248,6.864,3.264,6.864,6.817c0,4.56-3.744,7.44-9.648,7.44c-6.289,0-10.033-3.072-10.514-8.593h4.369
				c0.239,3.072,2.544,4.896,6.24,4.896c3.168,0,5.232-1.392,5.232-3.552c0-1.536-1.008-2.352-3.696-3.072l-4.608-1.152
				c-2.448-0.624-3.937-1.296-4.896-2.16c-1.057-0.912-1.729-2.448-1.729-3.984c0-3.984,3.696-6.816,8.929-6.816
				c3.312,0,6.049,1.104,7.681,3.072c1.009,1.248,1.44,2.496,1.633,4.656H483.464z"/>
			<path d="M203.004,286.121h-4.417v-5.136h4.417V286.121z M203.004,313.004h-4.417v-23.186h4.417V313.004z"/>
			<path d="M213.852,313.004h-4.417v-32.019h4.417V313.004z"/>
			<path d="M224.7,313.004h-4.417v-32.019h4.417V313.004z"/>
			<path d="M246.301,313.004v-2.641c-2.304,2.448-4.177,3.265-7.345,3.265c-2.736,0-4.993-0.912-6.289-2.544
				c-1.104-1.44-1.536-3.072-1.536-5.761v-15.505h4.417v15.169c0,3.168,1.44,4.704,4.464,4.704c3.792,0,6.096-2.208,6.096-5.809
				v-14.064h4.417v23.186H246.301z"/>
			<path d="M270.348,296.923c-0.624-2.881-2.208-4.081-5.281-4.081c-2.64,0-4.416,1.104-4.416,2.736c0,1.152,0.816,1.921,2.688,2.4
				l5.376,1.393c4.849,1.248,6.865,3.264,6.865,6.816c0,4.561-3.744,7.44-9.649,7.44c-6.289,0-10.033-3.072-10.513-8.593h4.368
				c0.24,3.072,2.544,4.896,6.241,4.896c3.168,0,5.232-1.393,5.232-3.553c0-1.536-1.008-2.352-3.696-3.072l-4.608-1.151
				c-2.448-0.624-3.937-1.297-4.896-2.16c-1.056-0.912-1.728-2.448-1.728-3.984c0-3.984,3.696-6.817,8.929-6.817
				c3.312,0,6.048,1.104,7.681,3.072c1.008,1.249,1.44,2.497,1.632,4.657H270.348z"/>
			<path d="M289.547,293.322h-4.176v14.545c0,1.345,0.624,2.112,1.728,2.112c0.624,0,1.248-0.144,2.448-0.624v3.601
				c-1.92,0.432-2.64,0.528-3.696,0.528c-3.312,0-4.896-1.776-4.896-5.617v-14.545h-3.12v-3.504h3.12v-7.345h4.417v7.345h4.176
				V293.322z"/>
			<path d="M298.041,289.818v3.647c0.912-1.344,1.296-1.872,1.92-2.448c1.056-1.104,2.736-1.824,4.128-1.824
				c0.864,0,1.68,0.192,2.448,0.576v3.984c-0.912-0.191-1.392-0.239-2.016-0.239c-3.552,0-6.289,3.168-6.289,7.296v12.193h-4.417
				v-23.186H298.041z"/>
			<path d="M310.185,297.499c0.192-2.736,0.72-4.369,1.872-5.665c1.488-1.68,4.272-2.641,7.537-2.641
				c5.761,0,9.024,2.736,9.024,7.537v10.896c0,1.824,0.24,2.209,1.248,2.209c0.385,0,0.624-0.048,1.152-0.24v3.408
				c-1.056,0.24-1.968,0.336-2.88,0.336c-2.112,0-3.072-0.912-3.457-3.12c-2.352,2.353-4.896,3.408-8.016,3.408
				c-4.513,0-7.585-2.784-7.585-6.864c0-3.744,2.304-6.049,7.009-7.009l5.136-1.008c2.784-0.528,3.36-0.961,3.36-2.4
				c0-2.257-1.968-3.648-5.088-3.648c-2.256,0-4.033,0.72-4.657,1.968c-0.336,0.624-0.432,1.152-0.528,2.833H310.185z
				 M324.682,301.099c-0.815,0.336-1.584,0.576-2.735,0.864l-4.513,1.057c-2.688,0.624-3.889,1.728-3.889,3.552
				c0,2.112,1.729,3.553,4.32,3.553c3.744,0,6.816-2.736,6.816-6.049V301.099z"/>
			<path d="M344.457,293.322h-4.176v14.545c0,1.345,0.624,2.112,1.729,2.112c0.624,0,1.248-0.144,2.447-0.624v3.601
				c-1.92,0.432-2.64,0.528-3.696,0.528c-3.312,0-4.896-1.776-4.896-5.617v-14.545h-3.121v-3.504h3.121v-7.345h4.416v7.345h4.176
				V293.322z"/>
			<path d="M353.144,286.121h-4.417v-5.136h4.417V286.121z M353.144,313.004h-4.417v-23.186h4.417V313.004z"/>
			<path d="M380.745,301.579c0,7.104-4.56,12.049-11.185,12.049s-11.137-4.944-11.137-12.241c0-7.248,4.512-12.193,11.137-12.193
				C376.329,289.193,380.745,294.09,380.745,301.579z M362.888,301.387c0,5.425,2.448,8.545,6.721,8.545
				c4.177,0,6.673-3.12,6.673-8.4c0-5.568-2.4-8.641-6.721-8.641C365.336,292.891,362.888,296.011,362.888,301.387z"/>
			<path d="M390.198,289.818v2.64c2.305-2.448,4.177-3.265,7.345-3.265c2.736,0,4.992,0.912,6.289,2.545
				c1.104,1.439,1.536,3.072,1.536,5.761v15.505h-4.417v-15.169c0-3.169-1.439-4.705-4.464-4.705c-3.793,0-6.097,2.208-6.097,5.809
				v14.065h-4.417v-23.186H390.198z"/>
		</g>
		
			<line id="underbar_9_" display="inline" fill="none" stroke="#000000" stroke-width="4.252" stroke-miterlimit="10" x1="197.5" y1="323.601" x2="407" y2="323.601"/>
	</g>
	<g id="microsoft_web_design" display="none">
		<g display="inline">
			<path d="M144.307,280.887l-7.441-19.202c-0.864-2.448-1.584-4.561-2.16-6.625c0.144,2.4,0.24,4.992,0.24,7.009v18.818h-4.32
				v-32.019h5.616l7.969,20.497c1.008,2.786,1.152,3.122,1.92,5.665c0.96-2.879,1.344-3.936,1.92-5.568l7.921-20.45h5.616v31.875
				h-4.32v-18.818c0-2.208,0.096-4.513,0.24-7.009c-0.768,2.592-1.344,4.417-2.353,7.009l-7.249,18.818H144.307z"/>
			<path d="M173.01,254.004h-4.417v-5.136h4.417V254.004z M173.01,280.887h-4.417V257.7h4.417V280.887z"/>
			<path d="M195.667,265.573c-0.672-3.168-2.688-4.8-5.857-4.8c-4.224,0-7.057,3.36-7.057,8.449c0,5.232,2.785,8.593,7.057,8.593
				c3.457,0,5.521-1.873,6.145-5.617h4.177c-0.624,5.904-4.417,9.312-10.417,9.312c-6.913,0-11.425-4.848-11.425-12.241
				c0-7.393,4.561-12.193,11.569-12.193c5.665,0,9.361,3.12,9.985,8.497H195.667z"/>
			<path d="M209.057,257.7v3.648c0.912-1.344,1.296-1.872,1.92-2.448c1.056-1.104,2.736-1.824,4.128-1.824
				c0.864,0,1.68,0.192,2.448,0.576v3.984c-0.912-0.192-1.392-0.24-2.016-0.24c-3.552,0-6.289,3.168-6.289,7.296v12.194h-4.417
				V257.7H209.057z"/>
			<path d="M242.275,269.461c0,7.105-4.561,12.048-11.185,12.048s-11.137-4.943-11.137-12.241c0-7.249,4.513-12.193,11.137-12.193
				C237.858,257.076,242.275,261.973,242.275,269.461z M224.417,269.269c0,5.424,2.448,8.545,6.721,8.545
				c4.176,0,6.673-3.121,6.673-8.401c0-5.569-2.4-8.641-6.721-8.641C226.865,260.772,224.417,263.893,224.417,269.269z"/>
			<path d="M260.85,264.805c-0.624-2.88-2.208-4.08-5.28-4.08c-2.641,0-4.417,1.104-4.417,2.736c0,1.152,0.816,1.92,2.688,2.4
				l5.377,1.392c4.848,1.249,6.864,3.264,6.864,6.817c0,4.561-3.744,7.439-9.648,7.439c-6.289,0-10.033-3.072-10.513-8.592h4.369
				c0.239,3.072,2.544,4.896,6.24,4.896c3.168,0,5.232-1.393,5.232-3.553c0-1.535-1.008-2.352-3.696-3.072l-4.608-1.153
				c-2.448-0.623-3.937-1.295-4.896-2.16c-1.056-0.912-1.728-2.448-1.728-3.984c0-3.984,3.696-6.816,8.928-6.816
				c3.312,0,6.049,1.104,7.681,3.072c1.009,1.248,1.44,2.496,1.633,4.656H260.85z"/>
			<path d="M292.001,269.461c0,7.105-4.56,12.048-11.185,12.048s-11.137-4.943-11.137-12.241c0-7.249,4.512-12.193,11.137-12.193
				C287.585,257.076,292.001,261.973,292.001,269.461z M274.144,269.269c0,5.424,2.448,8.545,6.721,8.545
				c4.177,0,6.673-3.121,6.673-8.401c0-5.569-2.4-8.641-6.721-8.641C276.592,260.772,274.144,263.893,274.144,269.269z"/>
			<path d="M306.352,261.205h-4.08v19.682h-4.417v-19.682h-3.264V257.7h3.264v-3.792c0-4.032,1.729-5.616,6.145-5.616
				c0.769,0,1.297,0.048,2.353,0.24v3.745c-0.768-0.096-1.152-0.144-1.68-0.144c-1.921,0-2.4,0.624-2.4,3.168v2.4h4.08V261.205z"/>
			<path d="M320.607,261.205h-4.176v14.545c0,1.344,0.624,2.111,1.728,2.111c0.625,0,1.249-0.143,2.448-0.623v3.6
				c-1.92,0.432-2.64,0.529-3.696,0.529c-3.312,0-4.896-1.777-4.896-5.617v-14.545h-3.12V257.7h3.12v-7.345h4.417v7.345h4.176
				V261.205z"/>
			<path d="M342.782,280.887l-7.009-23.187h4.561l3.408,12.049c0.097,0.48,0.192,0.72,0.864,3.6c0.097,0.48,0.145,0.816,0.528,2.785
				c0.24-0.961,0.432-1.873,0.624-2.832c0.144-0.77,0.336-1.586,0.384-1.633l0.48-1.873l3.12-12.097h4.177l3.216,11.954
				c0.432,1.825,1.008,4.561,1.344,6.481c0.721-3.361,1.057-4.85,1.488-6.434l3.217-12h4.608l-7.057,23.187h-4.465l-2.928-10.801
				c-0.721-2.736-1.057-4.177-1.488-6l-1.488,6l-2.88,10.801H342.782z"/>
			<path d="M374.318,270.374c0.336,4.751,2.736,7.441,6.721,7.441c2.736,0,4.561-1.297,5.616-4.033h4.225
				c-1.104,4.85-4.801,7.729-9.937,7.729c-6.529,0-11.041-4.992-11.041-12.241s4.416-12.193,10.896-12.193
				c4.608,0,7.969,2.448,9.505,6.913c0.576,1.728,0.864,3.6,0.912,6.385H374.318z M386.607,267.157
				c-0.192-4.225-2.304-6.577-5.809-6.577c-3.601,0-6.192,2.688-6.433,6.577H386.607z"/>
			<path d="M396.445,248.868h4.417v11.473c2.208-2.256,4.464-3.264,7.393-3.264c6,0,9.984,4.8,9.984,12.097
				c0,7.584-3.936,12.336-10.129,12.336c-2.976,0-5.04-0.912-7.248-3.215v2.592h-4.417V248.868z M400.718,269.173
				c0,5.569,2.305,8.641,6.529,8.641c4.176,0,6.528-3.072,6.528-8.545c0-5.424-2.353-8.497-6.528-8.497
				C403.118,260.772,400.718,263.845,400.718,269.173z"/>
			<path d="M458.559,280.887h-4.417v-2.496c-2.208,2.207-4.416,3.119-7.345,3.119c-6.192,0-10.08-4.799-10.08-12.336
				c0-7.393,3.936-12.097,10.08-12.097c2.977,0,5.185,0.96,7.345,3.12v-11.329h4.417V280.887z M441.181,269.269
				c0,5.473,2.4,8.545,6.576,8.545c4.225,0,6.625-3.072,6.625-8.401c0-5.569-2.353-8.641-6.625-8.641
				C443.581,260.772,441.181,263.845,441.181,269.269z"/>
			<path d="M468.253,270.374c0.336,4.751,2.736,7.441,6.721,7.441c2.736,0,4.561-1.297,5.616-4.033h4.225
				c-1.104,4.85-4.801,7.729-9.937,7.729c-6.529,0-11.041-4.992-11.041-12.241s4.416-12.193,10.896-12.193
				c4.608,0,7.969,2.448,9.505,6.913c0.576,1.728,0.864,3.6,0.912,6.385H468.253z M480.542,267.157
				c-0.192-4.225-2.304-6.577-5.809-6.577c-3.601,0-6.192,2.688-6.433,6.577H480.542z"/>
			<path d="M503.726,264.805c-0.624-2.88-2.208-4.08-5.28-4.08c-2.641,0-4.417,1.104-4.417,2.736c0,1.152,0.816,1.92,2.688,2.4
				l5.377,1.392c4.848,1.249,6.864,3.264,6.864,6.817c0,4.561-3.744,7.439-9.648,7.439c-6.289,0-10.033-3.072-10.514-8.592h4.369
				c0.239,3.072,2.544,4.896,6.24,4.896c3.168,0,5.232-1.393,5.232-3.553c0-1.535-1.008-2.352-3.696-3.072l-4.608-1.153
				c-2.448-0.623-3.937-1.295-4.896-2.16c-1.057-0.912-1.729-2.448-1.729-3.984c0-3.984,3.696-6.816,8.929-6.816
				c3.312,0,6.049,1.104,7.681,3.072c1.009,1.248,1.44,2.496,1.633,4.656H503.726z"/>
			<path d="M518.124,254.004h-4.417v-5.136h4.417V254.004z M518.124,280.887h-4.417V257.7h4.417V280.887z"/>
			<path d="M544.43,257.7v22.274c0,3.072-0.72,5.088-2.353,6.432c-1.823,1.584-4.656,2.449-8.112,2.449
				c-3.408,0-6.097-0.912-7.729-2.641c-1.008-1.057-1.488-2.209-1.681-4.273h4.225c0.24,2.258,2.017,3.41,5.329,3.41
				c4.176,0,6.096-1.777,6.096-5.617v-2.641c-1.872,2.016-4.176,3.025-6.864,3.025c-5.856,0-9.937-4.656-9.937-11.331
				c0-6.912,4.128-11.712,10.032-11.712c3.024,0,4.944,0.912,6.865,3.168l-0.097-2.544H544.43z M527.868,268.597
				c0,4.752,2.353,7.68,6.241,7.68c3.792,0,6.192-2.928,6.192-7.584c0-4.848-2.305-7.776-6.241-7.776
				C530.221,260.917,527.868,263.845,527.868,268.597z"/>
			<path d="M555.084,257.7v2.64c2.305-2.448,4.177-3.264,7.345-3.264c2.736,0,4.992,0.912,6.289,2.544
				c1.104,1.44,1.536,3.072,1.536,5.76v15.506h-4.417v-15.17c0-3.168-1.439-4.704-4.464-4.704c-3.793,0-6.097,2.208-6.097,5.808
				v14.066h-4.417V257.7H555.084z"/>
		</g>
		
			<line id="underbar_7_" display="inline" fill="none" stroke="#000000" stroke-width="4.252" stroke-miterlimit="10" x1="129.5" y1="291.709" x2="570.5" y2="291.709"/>
	</g>
	<g id="diamonds">
		<g>
			<path d="M130.517,248.58h9.024c4.992,0,7.681,0.672,9.841,2.544c2.496,2.16,3.841,5.568,3.841,9.937
				c0,5.568-2.064,11.088-5.473,14.832c-3.36,3.648-6.721,4.705-14.642,4.705H123.7L130.517,248.58z M134.356,276.566
				c5.425,0,7.921-0.865,10.177-3.602c2.497-3.023,4.033-7.392,4.033-11.521c0-2.784-0.721-5.136-2.064-6.672
				c-1.344-1.632-3.217-2.208-6.961-2.208h-5.328l-5.089,24.002H134.356z"/>
			<path d="M159.459,280.598h-4.416l4.944-23.186h4.368L159.459,280.598z M165.22,253.38h-4.416l1.056-4.8h4.368L165.22,253.38z"/>
			<path d="M168.867,263.797c1.345-4.657,4.801-7.009,10.273-7.009c4.704,0,7.776,2.064,7.776,5.232c0,0.576-0.24,2.304-0.48,3.312
				l-1.728,8.161c-0.336,1.631-0.385,1.967-0.385,2.496c0,1.199,0.48,1.584,1.824,1.584h0.864l-0.72,3.312h-1.681
				c-2.496,0-3.312-0.672-3.552-2.785c-1.92,2.16-4.08,3.121-7.152,3.121c-2.305,0-4.177-0.625-5.473-1.873
				s-2.112-3.312-2.112-5.279c0-2.113,0.912-4.128,2.448-5.377c1.44-1.248,3.504-1.872,6.673-2.064l3.744-0.24
				c1.824-0.144,2.496-0.336,2.976-0.96c0.433-0.576,0.721-1.536,0.721-2.544c0-1.873-1.248-2.736-3.984-2.736
				c-3.456,0-5.137,1.056-5.953,3.648H168.867z M181.637,269.366c-0.624,0.096-0.864,0.144-1.345,0.239
				c-0.239,0-0.672,0.048-1.248,0.144l-1.151,0.097l-2.641,0.288c-2.977,0.336-4.416,1.632-4.416,3.937
				c0,2.111,1.439,3.455,3.792,3.455c1.92,0,3.984-0.959,4.992-2.352c0.72-0.961,1.345-2.641,1.824-5.041L181.637,269.366z"/>
			<path d="M198.963,257.412l-0.672,3.072c3.024-2.64,5.328-3.696,7.921-3.696c3.024,0,4.896,1.44,5.328,4.176
				c2.496-2.736,5.28-4.176,8.113-4.176c3.456,0,5.76,2.064,5.76,5.232c0,0.912-0.144,1.92-0.432,3.408l-3.265,15.169h-4.368
				l3.072-14.593c0.433-1.92,0.48-2.256,0.48-2.976c0-1.536-1.009-2.544-2.593-2.544c-3.6,0-6.721,3.168-7.729,7.873l-2.592,12.241
				h-4.417l3.12-14.593c0.337-1.632,0.433-2.208,0.433-2.928c0-1.68-0.864-2.592-2.496-2.592c-1.969,0-4.081,1.152-5.377,2.88
				c-1.2,1.584-2.016,3.696-2.688,6.721l-2.209,10.512h-4.416l4.944-23.186H198.963z"/>
			<path d="M251.669,266.821c0,3.84-1.536,7.777-4.129,10.56c-2.353,2.545-5.28,3.842-8.737,3.842
				c-5.952,0-9.648-3.889-9.648-10.082c0-7.968,5.713-14.353,12.913-14.353C248.021,256.788,251.669,260.581,251.669,266.821z
				 M233.619,271.045c0,3.889,2.16,6.48,5.376,6.48c1.92,0,3.937-1.057,5.28-2.688c1.729-2.113,2.929-5.376,2.929-7.969
				c0-4.081-1.968-6.385-5.377-6.385C237.267,260.484,233.619,265.189,233.619,271.045z"/>
			<path d="M263.14,257.412l-0.673,3.072c2.736-2.64,4.944-3.696,7.633-3.696c3.793,0,6.241,2.208,6.241,5.521
				c0,0.912-0.097,1.776-0.385,3.168l-3.264,15.121h-4.369l3.169-14.881c0.336-1.536,0.384-1.968,0.384-2.496
				c0-1.728-1.008-2.736-2.736-2.736c-1.536,0-3.265,0.72-4.704,1.92c-1.776,1.488-2.736,3.312-3.408,6.288l-2.496,11.905h-4.417
				l4.944-23.186H263.14z"/>
			<path d="M298.611,280.598h-4.08l0.576-2.736c-2.4,2.449-4.225,3.361-6.816,3.361c-5.041,0-8.353-3.744-8.353-9.361
				c0-3.984,1.584-8.305,4.128-11.281c2.064-2.4,5.089-3.84,8.064-3.84c3.024,0,4.801,1.152,6.289,4.032l2.592-12.193h4.417
				L298.611,280.598z M286.947,263.653c-1.537,2.304-2.545,5.568-2.545,8.16c0,3.506,1.872,5.713,4.801,5.713
				c2.112,0,4.225-1.248,5.616-3.264c1.536-2.305,2.641-5.712,2.641-8.161c0-3.601-1.824-5.665-4.993-5.665
				C290.307,260.437,288.339,261.588,286.947,263.653z"/>
			<path d="M321.699,264.517c-0.096-2.448-2.016-4.08-4.896-4.08c-2.592,0-4.512,1.248-4.512,2.928c0,1.008,0.576,1.536,2.784,2.544
				l3.504,1.536c3.841,1.729,5.377,3.553,5.377,6.385c0,4.367-3.889,7.393-9.457,7.393c-5.809,0-9.505-3.361-9.505-8.689v-0.672
				h4.32c-0.048,0.385-0.048,0.721-0.048,1.008c0,2.785,2.208,4.656,5.424,4.656c2.784,0,4.896-1.439,4.896-3.312
				c0-1.295-0.575-1.92-2.88-2.977l-3.696-1.727c-2.017-0.912-2.688-1.345-3.36-2.064c-0.96-1.008-1.44-2.208-1.44-3.648
				c0-4.177,3.553-7.057,8.641-7.057c3.648,0,6.721,1.584,8.065,4.224c0.624,1.104,0.768,1.92,0.768,3.552H321.699z"/>
			<path d="M348.48,253.716h-4.416v-5.136h4.416V253.716z M348.48,280.598h-4.416v-23.186h4.416V280.598z"/>
			<path d="M359.33,280.598h-4.418V248.58h4.418V280.598z"/>
			<path d="M370.178,280.598h-4.418V248.58h4.418V280.598z"/>
			<path d="M391.777,280.598v-2.641c-2.305,2.449-4.176,3.266-7.344,3.266c-2.736,0-4.992-0.912-6.289-2.545
				c-1.104-1.439-1.537-3.072-1.537-5.76v-15.506h4.418v15.17c0,3.168,1.439,4.703,4.463,4.703c3.793,0,6.098-2.207,6.098-5.809
				v-14.064h4.416v23.186H391.777z"/>
			<path d="M415.824,264.517c-0.623-2.88-2.207-4.08-5.279-4.08c-2.641,0-4.418,1.104-4.418,2.736c0,1.152,0.816,1.92,2.689,2.4
				l5.377,1.392c4.848,1.249,6.863,3.264,6.863,6.816c0,4.561-3.744,7.441-9.648,7.441c-6.289,0-10.033-3.072-10.514-8.594h4.369
				c0.24,3.072,2.545,4.896,6.24,4.896c3.168,0,5.232-1.393,5.232-3.553c0-1.535-1.008-2.352-3.695-3.072l-4.609-1.152
				c-2.447-0.623-3.936-1.295-4.896-2.16c-1.057-0.912-1.729-2.448-1.729-3.984c0-3.984,3.697-6.816,8.93-6.816
				c3.312,0,6.049,1.104,7.68,3.072c1.01,1.248,1.441,2.496,1.633,4.656H415.824z"/>
			<path d="M435.023,260.917h-4.176v14.544c0,1.344,0.625,2.113,1.729,2.113c0.625,0,1.248-0.145,2.447-0.625v3.602
				c-1.92,0.432-2.639,0.527-3.695,0.527c-3.312,0-4.896-1.775-4.896-5.617v-14.544h-3.121v-3.504h3.121v-7.345h4.416v7.345h4.176
				V260.917z"/>
			<path d="M443.518,257.412v3.648c0.912-1.344,1.297-1.872,1.92-2.448c1.057-1.104,2.736-1.824,4.129-1.824
				c0.865,0,1.68,0.192,2.449,0.576v3.984c-0.912-0.192-1.393-0.24-2.018-0.24c-3.551,0-6.287,3.168-6.287,7.296v12.193h-4.418
				v-23.186H443.518z"/>
			<path d="M455.662,265.093c0.191-2.736,0.721-4.368,1.871-5.665c1.488-1.68,4.273-2.64,7.537-2.64
				c5.762,0,9.025,2.736,9.025,7.537v10.896c0,1.824,0.24,2.209,1.248,2.209c0.385,0,0.623-0.049,1.152-0.24v3.408
				c-1.057,0.24-1.969,0.336-2.881,0.336c-2.111,0-3.072-0.912-3.455-3.119c-2.354,2.352-4.896,3.408-8.018,3.408
				c-4.512,0-7.584-2.785-7.584-6.865c0-3.744,2.303-6.048,7.008-7.008l5.137-1.008c2.783-0.528,3.359-0.96,3.359-2.4
				c0-2.256-1.967-3.648-5.088-3.648c-2.256,0-4.031,0.72-4.656,1.968c-0.336,0.624-0.432,1.152-0.527,2.832H455.662z
				 M470.16,268.693c-0.816,0.337-1.586,0.576-2.736,0.864l-4.514,1.057c-2.688,0.623-3.889,1.728-3.889,3.552
				c0,2.111,1.729,3.551,4.32,3.551c3.746,0,6.818-2.736,6.818-6.047V268.693z"/>
			<path d="M489.934,260.917h-4.176v14.544c0,1.344,0.625,2.113,1.729,2.113c0.625,0,1.248-0.145,2.447-0.625v3.602
				c-1.92,0.432-2.639,0.527-3.695,0.527c-3.312,0-4.896-1.775-4.896-5.617v-14.544h-3.121v-3.504h3.121v-7.345h4.416v7.345h4.176
				V260.917z"/>
			<path d="M498.621,253.716h-4.418v-5.136h4.418V253.716z M498.621,280.598h-4.418v-23.186h4.418V280.598z"/>
			<path d="M526.223,269.173c0,7.104-4.561,12.049-11.186,12.049s-11.137-4.945-11.137-12.242c0-7.249,4.512-12.193,11.137-12.193
				C521.807,256.788,526.223,261.685,526.223,269.173z M508.365,268.981c0,5.425,2.447,8.544,6.721,8.544
				c4.176,0,6.672-3.119,6.672-8.4c0-5.569-2.4-8.641-6.721-8.641C510.812,260.484,508.365,263.604,508.365,268.981z"/>
			<path d="M535.676,257.412v2.64c2.305-2.448,4.178-3.264,7.346-3.264c2.736,0,4.992,0.912,6.289,2.544
				c1.104,1.44,1.535,3.072,1.535,5.76v15.505h-4.416v-15.169c0-3.168-1.439-4.704-4.465-4.704c-3.793,0-6.096,2.208-6.096,5.808
				v14.065h-4.418v-23.186H535.676z"/>
			<path d="M570.668,264.517c-0.623-2.88-2.207-4.08-5.279-4.08c-2.641,0-4.418,1.104-4.418,2.736c0,1.152,0.816,1.92,2.689,2.4
				l5.377,1.392c4.848,1.249,6.863,3.264,6.863,6.816c0,4.561-3.744,7.441-9.648,7.441c-6.289,0-10.033-3.072-10.514-8.594h4.369
				c0.24,3.072,2.545,4.896,6.24,4.896c3.168,0,5.232-1.393,5.232-3.553c0-1.535-1.008-2.352-3.695-3.072l-4.609-1.152
				c-2.447-0.623-3.936-1.295-4.896-2.16c-1.057-0.912-1.729-2.448-1.729-3.984c0-3.984,3.697-6.816,8.93-6.816
				c3.312,0,6.049,1.104,7.68,3.072c1.01,1.248,1.441,2.496,1.633,4.656H570.668z"/>
		</g>
		
			<line id="underbar_5_" fill="none" stroke="#000000" stroke-width="4.252" stroke-miterlimit="10" x1="122.5" y1="291.42" x2="577.5" y2="291.42"/>
	</g>
	<g id="well_then" display="none">
		<g display="inline">
			<path d="M148.621,284.004l-2.448-32.019h4.705l1.008,17.521c0.048,1.296,0.096,2.496,0.096,3.168c0,0.144-0.048,4.657-0.096,6.48
				c1.056-3.265,2.736-7.872,3.456-9.648l7.345-17.521h4.848l1.44,17.521c0.24,4.032,0.288,4.849,0.288,8.641v1.008
				c0.624-2.688,1.344-4.896,2.832-8.785l7.201-18.385H184l-13.105,32.019h-4.656l-1.44-17.138c-0.192-1.872-0.336-5.76-0.336-7.824
				c0-1.152,0-1.776,0.096-3.168c-1.344,4.705-1.92,6.241-4.368,11.953l-6.865,16.177H148.621z"/>
			<path d="M186.109,273.491c-0.096,0.72-0.144,1.056-0.144,1.536c0,3.648,2.112,5.904,5.521,5.904c2.544,0,4.705-1.248,6.048-3.553
				h4.513c-2.304,4.896-5.809,7.249-10.801,7.249c-5.856,0-9.457-3.792-9.457-9.937c0-3.889,1.344-7.777,3.648-10.561
				c2.16-2.688,5.328-4.128,8.929-4.128c5.616,0,9.265,3.648,9.265,9.361c0,1.248-0.144,2.4-0.48,4.128H186.109z M199.454,268.834
				c0-3.264-1.92-5.136-5.232-5.136c-3.601,0-6.145,2.208-7.345,6.289h12.529L199.454,268.834z"/>
			<path d="M210.3,284.004h-4.417l6.817-32.019h4.368L210.3,284.004z"/>
			<path d="M221.148,284.004h-4.417l6.817-32.019h4.368L221.148,284.004z"/>
			<path d="M254.7,264.034h-3.456l-2.784,13.201c-0.288,1.2-0.288,1.2-0.288,1.632c0,0.961,0.576,1.44,1.776,1.44
				c0.672,0,1.248-0.097,2.064-0.384l-0.72,3.648c-1.056,0.288-1.92,0.432-2.736,0.432c-2.832,0-4.944-1.633-4.944-3.793
				c0-0.432,0.144-1.728,0.288-2.304l2.928-13.873h-3.457l0.768-3.216h3.457l1.392-6.816h4.368l-1.344,6.816h3.408L254.7,264.034z"
				/>
			<path d="M266.269,251.985l-2.449,11.617c2.833-2.496,4.848-3.408,7.345-3.408c3.552,0,6.096,2.208,6.096,5.376
				c0,0.864-0.144,2.064-0.479,3.504l-3.168,14.929h-4.417l3.217-14.929c0.288-1.44,0.384-2.064,0.384-2.688
				c0-1.584-1.057-2.496-2.881-2.496c-3.696,0-6.816,3.168-7.872,8.016l-2.544,12.098h-4.417l6.817-32.019H266.269z"/>
			<path d="M285.42,273.491c-0.097,0.72-0.145,1.056-0.145,1.536c0,3.648,2.112,5.904,5.521,5.904c2.544,0,4.704-1.248,6.049-3.553
				h4.512c-2.304,4.896-5.808,7.249-10.801,7.249c-5.856,0-9.457-3.792-9.457-9.937c0-3.889,1.345-7.777,3.648-10.561
				c2.16-2.688,5.329-4.128,8.929-4.128c5.617,0,9.266,3.648,9.266,9.361c0,1.248-0.145,2.4-0.48,4.128H285.42z M298.765,268.834
				c0-3.264-1.92-5.136-5.232-5.136c-3.601,0-6.145,2.208-7.345,6.289h12.529L298.765,268.834z"/>
			<path d="M314.412,260.818l-0.673,3.072c2.736-2.64,4.944-3.696,7.633-3.696c3.793,0,6.241,2.208,6.241,5.521
				c0,0.912-0.097,1.776-0.385,3.168l-3.264,15.121h-4.369l3.169-14.881c0.336-1.536,0.384-1.968,0.384-2.496
				c0-1.728-1.008-2.736-2.736-2.736c-1.536,0-3.265,0.72-4.704,1.92c-1.776,1.488-2.736,3.312-3.408,6.288l-2.496,11.905h-4.417
				l4.944-23.186H314.412z"/>
			<path d="M351.802,257.122h-4.417v-5.136h4.417V257.122z M351.802,284.004h-4.417v-23.186h4.417V284.004z"/>
			<path d="M362.65,284.004h-4.417v-32.019h4.417V284.004z"/>
			<path d="M373.498,284.004h-4.417v-32.019h4.417V284.004z"/>
			<path d="M395.099,284.004v-2.641c-2.305,2.448-4.177,3.265-7.345,3.265c-2.736,0-4.992-0.912-6.289-2.544
				c-1.104-1.44-1.536-3.072-1.536-5.761v-15.505h4.417v15.169c0,3.168,1.44,4.704,4.464,4.704c3.793,0,6.097-2.208,6.097-5.809
				v-14.065h4.417v23.186H395.099z"/>
			<path d="M419.146,267.922c-0.624-2.88-2.208-4.08-5.28-4.08c-2.641,0-4.417,1.104-4.417,2.736c0,1.152,0.816,1.92,2.688,2.4
				l5.377,1.392c4.848,1.249,6.864,3.264,6.864,6.817c0,4.561-3.744,7.44-9.648,7.44c-6.289,0-10.033-3.072-10.514-8.593h4.369
				c0.239,3.072,2.544,4.896,6.24,4.896c3.168,0,5.232-1.393,5.232-3.553c0-1.535-1.008-2.352-3.696-3.072l-4.608-1.152
				c-2.448-0.623-3.937-1.295-4.896-2.16c-1.057-0.912-1.729-2.448-1.729-3.984c0-3.984,3.696-6.816,8.929-6.816
				c3.312,0,6.049,1.104,7.681,3.072c1.009,1.248,1.44,2.496,1.633,4.656H419.146z"/>
			<path d="M438.345,264.322h-4.176v14.545c0,1.344,0.624,2.112,1.728,2.112c0.625,0,1.249-0.144,2.448-0.624v3.601
				c-1.92,0.432-2.64,0.528-3.696,0.528c-3.312,0-4.896-1.776-4.896-5.617v-14.545h-3.12v-3.504h3.12v-7.345h4.417v7.345h4.176
				V264.322z"/>
			<path d="M446.839,260.818v3.648c0.912-1.344,1.296-1.872,1.92-2.448c1.057-1.104,2.736-1.824,4.129-1.824
				c0.864,0,1.68,0.192,2.448,0.576v3.984c-0.912-0.192-1.393-0.24-2.017-0.24c-3.552,0-6.288,3.168-6.288,7.296v12.193h-4.417
				v-23.186H446.839z"/>
			<path d="M458.982,268.499c0.192-2.736,0.721-4.368,1.872-5.665c1.488-1.68,4.272-2.64,7.537-2.64
				c5.761,0,9.024,2.736,9.024,7.537v10.896c0,1.824,0.24,2.209,1.248,2.209c0.385,0,0.624-0.049,1.152-0.24v3.408
				c-1.056,0.24-1.968,0.336-2.88,0.336c-2.112,0-3.072-0.912-3.456-3.12c-2.353,2.353-4.896,3.408-8.018,3.408
				c-4.512,0-7.584-2.784-7.584-6.864c0-3.744,2.304-6.049,7.009-7.009l5.136-1.008c2.784-0.528,3.36-0.96,3.36-2.4
				c0-2.256-1.968-3.648-5.088-3.648c-2.257,0-4.032,0.72-4.657,1.968c-0.336,0.624-0.432,1.152-0.527,2.832H458.982z
				 M473.48,272.099c-0.816,0.337-1.585,0.576-2.736,0.864l-4.513,1.057c-2.688,0.623-3.889,1.728-3.889,3.552
				c0,2.112,1.729,3.552,4.32,3.552c3.745,0,6.817-2.736,6.817-6.048V272.099z"/>
			<path d="M493.255,264.322h-4.176v14.545c0,1.344,0.624,2.112,1.728,2.112c0.625,0,1.249-0.144,2.448-0.624v3.601
				c-1.92,0.432-2.64,0.528-3.696,0.528c-3.312,0-4.896-1.776-4.896-5.617v-14.545h-3.12v-3.504h3.12v-7.345h4.417v7.345h4.176
				V264.322z"/>
			<path d="M501.941,257.122h-4.417v-5.136h4.417V257.122z M501.941,284.004h-4.417v-23.186h4.417V284.004z"/>
			<path d="M529.543,272.579c0,7.104-4.56,12.049-11.185,12.049s-11.137-4.944-11.137-12.241c0-7.249,4.512-12.193,11.137-12.193
				C525.127,260.194,529.543,265.09,529.543,272.579z M511.686,272.387c0,5.425,2.448,8.545,6.721,8.545
				c4.177,0,6.673-3.12,6.673-8.4c0-5.569-2.4-8.641-6.721-8.641C514.134,263.89,511.686,267.01,511.686,272.387z"/>
			<path d="M538.997,260.818v2.64c2.305-2.448,4.177-3.264,7.345-3.264c2.736,0,4.992,0.912,6.289,2.544
				c1.104,1.44,1.536,3.072,1.536,5.76v15.505h-4.417v-15.169c0-3.168-1.439-4.704-4.464-4.704c-3.793,0-6.097,2.208-6.097,5.808
				v14.065h-4.417v-23.186H538.997z"/>
		</g>
		
			<line id="underbar_2_" display="inline" fill="none" stroke="#000000" stroke-width="4.252" stroke-miterlimit="10" x1="142.572" y1="294.826" x2="554.5" y2="294.826"/>
	</g>
	<g id="Q-T_1_" display="none">
		
			<line id="underbar_1_" display="inline" fill="none" stroke="#000000" stroke-width="4.252" stroke-miterlimit="10" x1="109.501" y1="298.369" x2="590.334" y2="298.369"/>
		<g id="Q-T" display="inline">
			<path d="M139.023,285.828l-2.976,2.496l-4.752-4.752c-1.92,0.815-3.937,1.248-6,1.248c-7.873,0-12.913-5.521-12.913-14.258
				c0-10.849,7.681-19.394,17.425-19.394c7.873,0,12.769,5.281,12.769,13.729c0,6.721-2.688,12.434-7.825,16.657L139.023,285.828z
				 M131.871,278.676c3.792-3.072,6.145-8.449,6.145-13.97c0-5.76-3.312-9.553-8.401-9.553c-3.312,0-6.336,1.44-8.497,4.081
				c-2.544,3.12-4.033,7.44-4.033,11.857c0,5.904,3.312,9.745,8.401,9.745c0.96,0,1.728-0.096,2.736-0.385l-2.64-2.64l3.12-2.304
				L131.871,278.676z"/>
			<path d="M163.454,284.004h-4.08l0.816-3.793c-2.592,3.169-4.8,4.417-7.921,4.417c-3.696,0-6.192-2.257-6.192-5.521
				c0-0.864,0.24-2.544,0.624-4.32l2.977-13.969h4.368l-3.12,14.833c-0.192,0.912-0.336,1.968-0.336,2.592
				c0,1.681,1.104,2.736,2.833,2.736c1.872,0,4.224-1.296,5.76-3.265c1.249-1.632,1.824-3.072,2.544-6.432l2.256-10.465h4.416
				L163.454,284.004z"/>
			<path d="M172.86,267.203c1.344-4.657,4.8-7.009,10.273-7.009c4.704,0,7.776,2.064,7.776,5.232c0,0.576-0.24,2.304-0.48,3.312
				l-1.728,8.161c-0.336,1.632-0.384,1.968-0.384,2.496c0,1.2,0.48,1.584,1.824,1.584h0.864l-0.72,3.312h-1.68
				c-2.496,0-3.312-0.672-3.552-2.784c-1.92,2.16-4.08,3.12-7.152,3.12c-2.304,0-4.177-0.624-5.473-1.872
				c-1.296-1.248-2.112-3.312-2.112-5.28c0-2.112,0.912-4.128,2.448-5.377c1.44-1.248,3.504-1.872,6.673-2.064l3.744-0.24
				c1.824-0.144,2.496-0.336,2.976-0.96c0.432-0.576,0.72-1.536,0.72-2.544c0-1.873-1.248-2.736-3.984-2.736
				c-3.456,0-5.136,1.056-5.953,3.648H172.86z M185.629,272.771c-0.624,0.096-0.864,0.144-1.344,0.239
				c-0.24,0-0.672,0.048-1.248,0.144l-1.152,0.097l-2.64,0.288c-2.976,0.336-4.416,1.632-4.416,3.937
				c0,2.112,1.44,3.456,3.792,3.456c1.92,0,3.984-0.96,4.993-2.352c0.72-0.961,1.344-2.641,1.824-5.041L185.629,272.771z"/>
			<path d="M198.348,284.004h-4.417l6.817-32.019h4.368L198.348,284.004z"/>
			<path d="M209.196,284.004h-4.417l4.945-23.186h4.368L209.196,284.004z M214.957,256.786h-4.417l1.056-4.8h4.368L214.957,256.786z
				"/>
			<path d="M228.348,264.034h-3.456l-2.784,13.201c-0.288,1.2-0.288,1.2-0.288,1.632c0,0.961,0.576,1.44,1.776,1.44
				c0.672,0,1.248-0.097,2.064-0.384l-0.72,3.648c-1.056,0.288-1.92,0.432-2.736,0.432c-2.832,0-4.944-1.633-4.944-3.793
				c0-0.432,0.144-1.728,0.288-2.304l2.928-13.873h-3.457l0.768-3.216h3.457l1.392-6.816h4.368l-1.344,6.816h3.408L228.348,264.034z
				"/>
			<path d="M252.061,260.818l-14.4,27.123c-1.776,3.312-3.072,4.08-7.057,4.08h-2.688l0.768-3.504h1.536
				c2.4,0,2.784-0.288,4.128-2.881l0.672-1.296l-3.888-23.522h4.56l1.681,11.521c0.239,1.392,0.479,4.561,0.624,7.345
				c0.672-1.68,1.872-4.176,3.168-6.673l6.192-12.193H252.061z"/>
			<path d="M276.347,284.004h-4.56l5.952-28.034h-9.505l0.864-3.984h23.186l-0.863,3.984H282.3L276.347,284.004z"/>
			<path d="M293.53,284.004h-4.417l4.944-23.186h4.369L293.53,284.004z M299.29,256.786h-4.416l1.056-4.8h4.369L299.29,256.786z"/>
			<path d="M308.986,260.818l-0.673,3.072c3.024-2.64,5.329-3.696,7.921-3.696c3.024,0,4.896,1.44,5.329,4.176
				c2.496-2.736,5.28-4.176,8.112-4.176c3.456,0,5.761,2.064,5.761,5.232c0,0.912-0.145,1.92-0.433,3.408l-3.264,15.169h-4.369
				l3.072-14.593c0.433-1.92,0.48-2.256,0.48-2.976c0-1.536-1.008-2.544-2.592-2.544c-3.601,0-6.721,3.168-7.729,7.873
				l-2.592,12.241h-4.416l3.12-14.593c0.336-1.632,0.432-2.208,0.432-2.928c0-1.68-0.864-2.592-2.496-2.592
				c-1.968,0-4.08,1.152-5.376,2.88c-1.2,1.584-2.017,3.696-2.688,6.721l-2.208,10.513h-4.417l4.944-23.186H308.986z"/>
			<path d="M343.546,273.491c-0.097,0.72-0.145,1.056-0.145,1.536c0,3.648,2.112,5.904,5.521,5.904c2.544,0,4.704-1.248,6.049-3.553
				h4.512c-2.304,4.896-5.808,7.249-10.801,7.249c-5.856,0-9.457-3.792-9.457-9.937c0-3.889,1.345-7.777,3.648-10.561
				c2.16-2.688,5.329-4.128,8.929-4.128c5.617,0,9.266,3.648,9.266,9.361c0,1.248-0.145,2.4-0.48,4.128H343.546z M356.891,268.834
				c0-3.264-1.92-5.136-5.232-5.136c-3.601,0-6.145,2.208-7.345,6.289h12.529L356.891,268.834z"/>
			<path d="M384.873,257.122h-4.417v-5.136h4.417V257.122z M384.873,284.004h-4.417v-23.186h4.417V284.004z"/>
			<path d="M395.721,284.004h-4.417v-32.019h4.417V284.004z"/>
			<path d="M406.568,284.004h-4.417v-32.019h4.417V284.004z"/>
			<path d="M428.17,284.004v-2.641c-2.305,2.448-4.177,3.265-7.345,3.265c-2.736,0-4.992-0.912-6.289-2.544
				c-1.104-1.44-1.536-3.072-1.536-5.761v-15.505h4.417v15.169c0,3.168,1.44,4.704,4.464,4.704c3.793,0,6.097-2.208,6.097-5.809
				v-14.065h4.417v23.186H428.17z"/>
			<path d="M452.217,267.922c-0.624-2.88-2.208-4.08-5.28-4.08c-2.641,0-4.417,1.104-4.417,2.736c0,1.152,0.816,1.92,2.688,2.4
				l5.377,1.392c4.848,1.249,6.864,3.264,6.864,6.817c0,4.561-3.744,7.44-9.648,7.44c-6.289,0-10.033-3.072-10.514-8.593h4.369
				c0.239,3.072,2.544,4.896,6.24,4.896c3.168,0,5.232-1.393,5.232-3.553c0-1.535-1.008-2.352-3.696-3.072l-4.608-1.152
				c-2.448-0.623-3.937-1.295-4.896-2.16c-1.057-0.912-1.729-2.448-1.729-3.984c0-3.984,3.696-6.816,8.929-6.816
				c3.312,0,6.049,1.104,7.681,3.072c1.009,1.248,1.44,2.496,1.633,4.656H452.217z"/>
			<path d="M471.415,264.322h-4.176v14.545c0,1.344,0.624,2.112,1.729,2.112c0.624,0,1.248-0.144,2.447-0.624v3.601
				c-1.92,0.432-2.64,0.528-3.696,0.528c-3.312,0-4.896-1.776-4.896-5.617v-14.545h-3.121v-3.504h3.121v-7.345h4.416v7.345h4.176
				V264.322z"/>
			<path d="M479.91,260.818v3.648c0.912-1.344,1.296-1.872,1.92-2.448c1.057-1.104,2.736-1.824,4.129-1.824
				c0.864,0,1.68,0.192,2.448,0.576v3.984c-0.912-0.192-1.393-0.24-2.017-0.24c-3.552,0-6.288,3.168-6.288,7.296v12.193h-4.417
				v-23.186H479.91z"/>
			<path d="M492.054,268.499c0.192-2.736,0.721-4.368,1.872-5.665c1.488-1.68,4.272-2.64,7.537-2.64
				c5.761,0,9.024,2.736,9.024,7.537v10.896c0,1.824,0.24,2.209,1.248,2.209c0.385,0,0.624-0.049,1.152-0.24v3.408
				c-1.056,0.24-1.968,0.336-2.88,0.336c-2.112,0-3.072-0.912-3.456-3.12c-2.353,2.353-4.896,3.408-8.018,3.408
				c-4.512,0-7.584-2.784-7.584-6.864c0-3.744,2.304-6.049,7.009-7.009l5.136-1.008c2.784-0.528,3.36-0.96,3.36-2.4
				c0-2.256-1.968-3.648-5.088-3.648c-2.257,0-4.032,0.72-4.657,1.968c-0.336,0.624-0.432,1.152-0.527,2.832H492.054z
				 M506.552,272.099c-0.816,0.337-1.585,0.576-2.736,0.864l-4.513,1.057c-2.688,0.623-3.889,1.728-3.889,3.552
				c0,2.112,1.729,3.552,4.32,3.552c3.745,0,6.817-2.736,6.817-6.048V272.099z"/>
			<path d="M526.326,264.322h-4.176v14.545c0,1.344,0.624,2.112,1.728,2.112c0.625,0,1.249-0.144,2.448-0.624v3.601
				c-1.92,0.432-2.64,0.528-3.696,0.528c-3.312,0-4.896-1.776-4.896-5.617v-14.545h-3.12v-3.504h3.12v-7.345h4.417v7.345h4.176
				V264.322z"/>
			<path d="M535.013,257.122h-4.417v-5.136h4.417V257.122z M535.013,284.004h-4.417v-23.186h4.417V284.004z"/>
			<path d="M562.613,272.579c0,7.104-4.56,12.049-11.185,12.049s-11.137-4.944-11.137-12.241c0-7.249,4.512-12.193,11.137-12.193
				C558.197,260.194,562.613,265.09,562.613,272.579z M544.756,272.387c0,5.425,2.448,8.545,6.721,8.545
				c4.177,0,6.673-3.12,6.673-8.4c0-5.569-2.4-8.641-6.721-8.641C547.204,263.89,544.756,267.01,544.756,272.387z"/>
			<path d="M572.067,260.818v2.64c2.305-2.448,4.177-3.264,7.345-3.264c2.736,0,4.992,0.912,6.289,2.544
				c1.104,1.44,1.536,3.072,1.536,5.76v15.505h-4.417v-15.169c0-3.168-1.439-4.704-4.464-4.704c-3.793,0-6.097,2.208-6.097,5.808
				v14.065h-4.417v-23.186H572.067z"/>
		</g>
	</g>
	<g id="touch_screen" display="none">
		
			<line id="underbar_4_" display="inline" fill="none" stroke="#000000" stroke-width="4.252" stroke-miterlimit="10" x1="201.656" y1="261.401" x2="481.544" y2="261.401"/>
		<g id="touchscreen" display="inline">
			<g display="none">
				<path display="inline" d="M148.812,275.382l-2.448-32.019h4.705l1.009,17.521c0.048,1.296,0.096,2.496,0.096,3.168
					c0,0.145-0.048,4.657-0.096,6.48c1.056-3.264,2.735-7.872,3.455-9.648l7.346-17.521h4.848l1.44,17.521
					c0.239,4.032,0.288,4.85,0.288,8.641v1.008c0.624-2.688,1.344-4.896,2.832-8.784l7.2-18.385h4.704l-13.104,32.019h-4.656
					l-1.44-17.137c-0.191-1.872-0.336-5.76-0.336-7.824c0-1.152,0-1.776,0.097-3.168c-1.345,4.705-1.92,6.241-4.368,11.953
					l-6.865,16.176H148.812z"/>
				<path display="inline" d="M186.3,264.87c-0.096,0.72-0.145,1.056-0.145,1.536c0,3.647,2.112,5.904,5.521,5.904
					c2.544,0,4.705-1.248,6.048-3.552h4.513c-2.304,4.896-5.809,7.248-10.801,7.248c-5.855,0-9.457-3.792-9.457-9.937
					c0-3.889,1.344-7.776,3.648-10.561c2.16-2.688,5.328-4.128,8.929-4.128c5.616,0,9.265,3.648,9.265,9.361
					c0,1.248-0.144,2.4-0.479,4.128L186.3,264.87L186.3,264.87z M199.645,260.212c0-3.264-1.92-5.136-5.231-5.136
					c-3.602,0-6.146,2.208-7.346,6.289h12.529L199.645,260.212z"/>
				<path display="inline" d="M210.49,275.382h-4.417l6.817-32.019h4.368L210.49,275.382z"/>
				<path display="inline" d="M221.339,275.382h-4.417l6.816-32.019h4.368L221.339,275.382z"/>
				<path display="inline" d="M254.891,255.413h-3.456l-2.784,13.2c-0.288,1.201-0.288,1.201-0.288,1.634
					c0,0.959,0.576,1.438,1.776,1.438c0.672,0,1.248-0.096,2.064-0.384l-0.721,3.647c-1.056,0.289-1.92,0.433-2.735,0.433
					c-2.832,0-4.944-1.632-4.944-3.792c0-0.434,0.144-1.728,0.288-2.304l2.928-13.873h-3.457l0.769-3.216h3.457l1.392-6.816h4.368
					l-1.344,6.816h3.407L254.891,255.413z"/>
				<path display="inline" d="M266.46,243.363l-2.449,11.617c2.833-2.496,4.848-3.408,7.345-3.408c3.552,0,6.097,2.208,6.097,5.376
					c0,0.864-0.145,2.064-0.479,3.504l-3.168,14.928h-4.417l3.217-14.928c0.288-1.44,0.384-2.064,0.384-2.688
					c0-1.584-1.057-2.496-2.881-2.496c-3.695,0-6.815,3.168-7.872,8.017l-2.544,12.096h-4.417l6.817-32.019H266.46L266.46,243.363z"
					/>
				<path display="inline" d="M285.61,264.87c-0.097,0.72-0.145,1.056-0.145,1.536c0,3.647,2.112,5.904,5.521,5.904
					c2.544,0,4.704-1.248,6.05-3.552h4.512c-2.304,4.896-5.809,7.248-10.801,7.248c-5.856,0-9.457-3.792-9.457-9.937
					c0-3.889,1.345-7.776,3.647-10.561c2.16-2.688,5.329-4.128,8.929-4.128c5.617,0,9.267,3.648,9.267,9.361
					c0,1.248-0.146,2.4-0.48,4.128L285.61,264.87L285.61,264.87z M298.956,260.212c0-3.264-1.92-5.136-5.232-5.136
					c-3.601,0-6.145,2.208-7.345,6.289h12.528L298.956,260.212z"/>
				<path display="inline" d="M314.603,252.196l-0.673,3.072c2.736-2.64,4.944-3.696,7.633-3.696c3.793,0,6.241,2.208,6.241,5.521
					c0,0.912-0.097,1.776-0.385,3.168l-3.265,15.121h-4.369l3.17-14.88c0.336-1.536,0.384-1.968,0.384-2.496
					c0-1.728-1.008-2.736-2.736-2.736c-1.536,0-3.265,0.72-4.704,1.92c-1.775,1.488-2.735,3.312-3.408,6.289l-2.495,11.904h-4.417
					l4.943-23.186H314.603L314.603,252.196z"/>
				<path display="inline" d="M351.992,248.5h-4.417v-5.136h4.417V248.5z M351.992,275.382h-4.417v-23.186h4.417V275.382z"/>
				<path display="inline" d="M362.841,275.382h-4.418v-32.019h4.418V275.382z"/>
				<path display="inline" d="M373.688,275.382h-4.417v-32.019h4.417V275.382z"/>
				<path display="inline" d="M395.29,275.382v-2.641c-2.306,2.447-4.178,3.265-7.346,3.265c-2.736,0-4.992-0.912-6.289-2.544
					c-1.104-1.439-1.535-3.072-1.535-5.76v-15.505h4.416v15.168c0,3.168,1.44,4.705,4.465,4.705c3.793,0,6.097-2.208,6.097-5.808
					v-14.066h4.417v23.186L395.29,275.382L395.29,275.382z"/>
				<path display="inline" d="M419.337,259.3c-0.624-2.88-2.209-4.08-5.28-4.08c-2.642,0-4.417,1.104-4.417,2.736
					c0,1.152,0.815,1.92,2.688,2.4l5.377,1.392c4.849,1.249,6.864,3.264,6.864,6.817c0,4.56-3.744,7.439-9.647,7.439
					c-6.289,0-10.033-3.072-10.515-8.592h4.369c0.239,3.071,2.544,4.895,6.24,4.895c3.168,0,5.231-1.391,5.231-3.551
					c0-1.536-1.008-2.353-3.695-3.071l-4.608-1.152c-2.448-0.625-3.937-1.297-4.896-2.161c-1.058-0.912-1.729-2.448-1.729-3.984
					c0-3.984,3.696-6.816,8.929-6.816c3.312,0,6.049,1.104,7.682,3.072c1.009,1.248,1.439,2.496,1.633,4.656L419.337,259.3
					L419.337,259.3z"/>
				<path display="inline" d="M438.535,255.7h-4.176v14.546c0,1.343,0.624,2.11,1.729,2.11c0.625,0,1.249-0.144,2.447-0.623v3.601
					c-1.92,0.433-2.64,0.528-3.695,0.528c-3.312,0-4.896-1.776-4.896-5.616v-14.546h-3.12v-3.504h3.12v-7.345h4.417v7.345h4.176
					L438.535,255.7L438.535,255.7z"/>
				<path display="inline" d="M447.029,252.196v3.648c0.912-1.344,1.296-1.872,1.92-2.448c1.058-1.104,2.736-1.824,4.129-1.824
					c0.864,0,1.681,0.192,2.448,0.576v3.984c-0.912-0.192-1.393-0.24-2.017-0.24c-3.553,0-6.288,3.168-6.288,7.296v12.192h-4.417
					v-23.186L447.029,252.196L447.029,252.196z"/>
				<path display="inline" d="M459.173,259.877c0.191-2.736,0.721-4.368,1.871-5.665c1.488-1.68,4.272-2.64,7.537-2.64
					c5.762,0,9.024,2.736,9.024,7.537v10.897c0,1.824,0.24,2.208,1.248,2.208c0.385,0,0.624-0.048,1.152-0.24v3.408
					c-1.057,0.24-1.969,0.336-2.881,0.336c-2.111,0-3.071-0.912-3.456-3.12c-2.353,2.353-4.896,3.408-8.018,3.408
					c-4.512,0-7.584-2.784-7.584-6.864c0-3.744,2.304-6.049,7.009-7.009l5.136-1.008c2.784-0.528,3.36-0.96,3.36-2.4
					c0-2.256-1.968-3.648-5.088-3.648c-2.257,0-4.032,0.72-4.657,1.968c-0.336,0.624-0.432,1.152-0.526,2.832H459.173
					L459.173,259.877z M473.671,263.478c-0.816,0.336-1.586,0.575-2.736,0.863l-4.513,1.057c-2.688,0.625-3.89,1.729-3.89,3.553
					c0,2.111,1.729,3.552,4.32,3.552c3.745,0,6.816-2.736,6.816-6.048v-2.977H473.671z"/>
				<path display="inline" d="M493.445,255.7h-4.176v14.546c0,1.343,0.624,2.11,1.728,2.11c0.625,0,1.249-0.144,2.448-0.623v3.601
					c-1.92,0.433-2.64,0.528-3.696,0.528c-3.312,0-4.896-1.776-4.896-5.616v-14.546h-3.12v-3.504h3.12v-7.345h4.417v7.345h4.176
					L493.445,255.7L493.445,255.7z"/>
				<path display="inline" d="M502.132,248.5h-4.417v-5.136h4.417V248.5z M502.132,275.382h-4.417v-23.186h4.417V275.382z"/>
				<path display="inline" d="M529.733,263.958c0,7.104-4.56,12.048-11.185,12.048s-11.138-4.944-11.138-12.241
					c0-7.249,4.513-12.193,11.138-12.193C525.317,251.572,529.733,256.468,529.733,263.958z M511.876,263.765
					c0,5.426,2.448,8.544,6.722,8.544c4.177,0,6.673-3.119,6.673-8.399c0-5.569-2.4-8.641-6.721-8.641
					C514.324,255.269,511.876,258.388,511.876,263.765z"/>
				<path display="inline" d="M539.188,252.196v2.64c2.305-2.448,4.177-3.264,7.345-3.264c2.736,0,4.992,0.912,6.289,2.544
					c1.104,1.44,1.536,3.072,1.536,5.76v15.504h-4.417v-15.168c0-3.168-1.439-4.704-4.464-4.704c-3.793,0-6.097,2.208-6.097,5.808
					v14.064h-4.417v-23.186L539.188,252.196L539.188,252.196z"/>
			</g>
			<g id="Q-T_2_" display="none">
				<path display="inline" d="M139.214,277.206l-2.977,2.496l-4.752-4.752c-1.92,0.814-3.937,1.248-6,1.248
					c-7.873,0-12.913-5.521-12.913-14.257c0-10.85,7.682-19.395,17.426-19.395c7.873,0,12.769,5.281,12.769,13.729
					c0,6.721-2.688,12.434-7.825,16.657L139.214,277.206z M132.062,270.054c3.792-3.072,6.146-8.449,6.146-13.97
					c0-5.76-3.312-9.553-8.401-9.553c-3.312,0-6.336,1.44-8.497,4.081c-2.544,3.12-4.033,7.44-4.033,11.857
					c0,5.904,3.312,9.745,8.401,9.745c0.96,0,1.728-0.096,2.736-0.384l-2.641-2.641l3.12-2.304L132.062,270.054z"/>
				<path display="inline" d="M163.645,275.382h-4.08l0.816-3.792c-2.592,3.168-4.8,4.416-7.921,4.416
					c-3.696,0-6.192-2.256-6.192-5.52c0-0.864,0.24-2.545,0.624-4.32l2.977-13.969h4.368l-3.12,14.833
					c-0.191,0.912-0.336,1.969-0.336,2.593c0,1.68,1.104,2.735,2.833,2.735c1.872,0,4.225-1.295,5.761-3.263
					c1.249-1.633,1.823-3.072,2.544-6.433l2.256-10.465h4.416L163.645,275.382z"/>
				<path display="inline" d="M173.051,258.582c1.344-4.657,4.8-7.009,10.272-7.009c4.704,0,7.776,2.064,7.776,5.232
					c0,0.576-0.24,2.304-0.479,3.312l-1.729,8.161c-0.336,1.633-0.384,1.97-0.384,2.496c0,1.201,0.479,1.583,1.824,1.583h0.863
					l-0.72,3.312h-1.68c-2.496,0-3.312-0.672-3.552-2.784c-1.921,2.16-4.08,3.12-7.152,3.12c-2.304,0-4.177-0.624-5.473-1.872
					c-1.297-1.248-2.112-3.311-2.112-5.28c0-2.111,0.912-4.127,2.448-5.377c1.439-1.248,3.504-1.872,6.673-2.063l3.744-0.24
					c1.823-0.144,2.496-0.336,2.976-0.96c0.432-0.576,0.72-1.536,0.72-2.544c0-1.873-1.248-2.736-3.983-2.736
					c-3.456,0-5.137,1.056-5.953,3.648L173.051,258.582L173.051,258.582z M185.819,264.15c-0.624,0.096-0.863,0.144-1.344,0.238
					c-0.24,0-0.672,0.049-1.248,0.145l-1.152,0.097l-2.64,0.288c-2.976,0.336-4.416,1.632-4.416,3.938
					c0,2.111,1.44,3.455,3.792,3.455c1.92,0,3.984-0.959,4.993-2.351c0.72-0.961,1.344-2.641,1.824-5.041L185.819,264.15z"/>
				<path display="inline" d="M198.539,275.382h-4.417l6.816-32.019h4.368L198.539,275.382z"/>
				<path display="inline" d="M209.387,275.382h-4.417l4.945-23.186h4.367L209.387,275.382z M215.147,248.165h-4.417l1.057-4.8
					h4.367L215.147,248.165z"/>
				<path display="inline" d="M228.539,255.413h-3.456l-2.784,13.2c-0.288,1.201-0.288,1.201-0.288,1.634
					c0,0.959,0.576,1.438,1.776,1.438c0.672,0,1.248-0.096,2.063-0.384l-0.72,3.647c-1.057,0.289-1.92,0.433-2.736,0.433
					c-2.832,0-4.944-1.632-4.944-3.792c0-0.434,0.145-1.728,0.288-2.304l2.929-13.873h-3.457l0.768-3.216h3.457l1.393-6.816h4.367
					l-1.344,6.816h3.408L228.539,255.413z"/>
				<path display="inline" d="M252.252,252.196l-14.4,27.123c-1.776,3.312-3.072,4.08-7.057,4.08h-2.688l0.769-3.504h1.536
					c2.399,0,2.783-0.289,4.128-2.882l0.672-1.296l-3.889-23.521h4.561l1.681,11.521c0.239,1.394,0.479,4.562,0.624,7.344
					c0.672-1.679,1.872-4.175,3.168-6.672l6.192-12.193H252.252L252.252,252.196z"/>
				<path display="inline" d="M276.538,275.382h-4.561l5.952-28.033h-9.505l0.864-3.984h23.186l-0.863,3.984h-9.121L276.538,275.382
					z"/>
				<path display="inline" d="M293.721,275.382h-4.417l4.944-23.186h4.368L293.721,275.382z M299.48,248.165h-4.416l1.057-4.8h4.368
					L299.48,248.165z"/>
				<path display="inline" d="M309.177,252.196l-0.673,3.072c3.023-2.64,5.329-3.696,7.921-3.696c3.023,0,4.896,1.44,5.329,4.176
					c2.496-2.736,5.279-4.176,8.111-4.176c3.456,0,5.762,2.064,5.762,5.232c0,0.912-0.146,1.92-0.434,3.408l-3.264,15.168h-4.369
					l3.072-14.592c0.433-1.92,0.479-2.256,0.479-2.976c0-1.536-1.008-2.544-2.592-2.544c-3.601,0-6.721,3.168-7.729,7.873
					l-2.593,12.241h-4.416l3.12-14.592c0.336-1.632,0.433-2.208,0.433-2.928c0-1.68-0.864-2.592-2.496-2.592
					c-1.968,0-4.08,1.152-5.376,2.88c-1.2,1.584-2.018,3.696-2.688,6.721l-2.208,10.512h-4.417l4.944-23.186L309.177,252.196
					L309.177,252.196z"/>
				<path display="inline" d="M343.736,264.87c-0.097,0.72-0.145,1.056-0.145,1.536c0,3.647,2.112,5.904,5.521,5.904
					c2.544,0,4.704-1.248,6.049-3.552h4.512c-2.303,4.896-5.808,7.248-10.8,7.248c-5.856,0-9.457-3.792-9.457-9.937
					c0-3.889,1.345-7.776,3.647-10.561c2.16-2.688,5.329-4.128,8.929-4.128c5.617,0,9.267,3.648,9.267,9.361
					c0,1.248-0.146,2.4-0.48,4.128L343.736,264.87L343.736,264.87z M357.081,260.212c0-3.264-1.92-5.136-5.231-5.136
					c-3.601,0-6.145,2.208-7.345,6.289h12.528L357.081,260.212z"/>
				<path display="inline" d="M385.063,248.5h-4.417v-5.136h4.417V248.5z M385.063,275.382h-4.417v-23.186h4.417V275.382z"/>
				<path display="inline" d="M395.911,275.382h-4.416v-32.019h4.416V275.382z"/>
				<path display="inline" d="M406.759,275.382h-4.417v-32.019h4.417V275.382z"/>
				<path display="inline" d="M428.36,275.382v-2.641c-2.305,2.447-4.177,3.265-7.345,3.265c-2.736,0-4.992-0.912-6.289-2.544
					c-1.104-1.439-1.536-3.072-1.536-5.76v-15.505h4.417v15.168c0,3.168,1.44,4.705,4.464,4.705c3.793,0,6.097-2.208,6.097-5.808
					v-14.066h4.417v23.186L428.36,275.382L428.36,275.382z"/>
				<path display="inline" d="M452.407,259.3c-0.624-2.88-2.208-4.08-5.279-4.08c-2.642,0-4.418,1.104-4.418,2.736
					c0,1.152,0.816,1.92,2.688,2.4l5.377,1.392c4.848,1.249,6.864,3.264,6.864,6.817c0,4.56-3.744,7.439-9.648,7.439
					c-6.289,0-10.033-3.072-10.514-8.592h4.369c0.238,3.071,2.544,4.895,6.24,4.895c3.168,0,5.231-1.391,5.231-3.551
					c0-1.536-1.008-2.353-3.696-3.071l-4.607-1.152c-2.448-0.625-3.938-1.297-4.896-2.161c-1.057-0.912-1.729-2.448-1.729-3.984
					c0-3.984,3.695-6.816,8.929-6.816c3.312,0,6.049,1.104,7.681,3.072c1.01,1.248,1.44,2.496,1.634,4.656L452.407,259.3
					L452.407,259.3z"/>
				<path display="inline" d="M471.605,255.7h-4.176v14.546c0,1.343,0.624,2.11,1.729,2.11c0.624,0,1.248-0.144,2.447-0.623v3.601
					c-1.92,0.433-2.64,0.528-3.696,0.528c-3.312,0-4.896-1.776-4.896-5.616v-14.546h-3.121v-3.504h3.121v-7.345h4.416v7.345h4.176
					V255.7L471.605,255.7z"/>
				<path display="inline" d="M480.101,252.196v3.648c0.912-1.344,1.296-1.872,1.92-2.448c1.057-1.104,2.736-1.824,4.129-1.824
					c0.864,0,1.68,0.192,2.448,0.576v3.984c-0.912-0.192-1.394-0.24-2.018-0.24c-3.552,0-6.288,3.168-6.288,7.296v12.192h-4.417
					v-23.186L480.101,252.196L480.101,252.196z"/>
				<path display="inline" d="M492.244,259.877c0.192-2.736,0.722-4.368,1.872-5.665c1.488-1.68,4.272-2.64,7.537-2.64
					c5.761,0,9.024,2.736,9.024,7.537v10.897c0,1.824,0.239,2.208,1.248,2.208c0.385,0,0.624-0.048,1.151-0.24v3.408
					c-1.056,0.24-1.968,0.336-2.88,0.336c-2.112,0-3.072-0.912-3.456-3.12c-2.353,2.353-4.896,3.408-8.018,3.408
					c-4.513,0-7.584-2.784-7.584-6.864c0-3.744,2.304-6.049,7.009-7.009l5.136-1.008c2.784-0.528,3.36-0.96,3.36-2.4
					c0-2.256-1.968-3.648-5.088-3.648c-2.257,0-4.032,0.72-4.657,1.968c-0.336,0.624-0.432,1.152-0.527,2.832H492.244
					L492.244,259.877z M506.742,263.478c-0.815,0.336-1.585,0.575-2.735,0.863l-4.514,1.057c-2.688,0.625-3.889,1.729-3.889,3.553
					c0,2.111,1.729,3.552,4.32,3.552c3.744,0,6.816-2.736,6.816-6.048L506.742,263.478L506.742,263.478z"/>
				<path display="inline" d="M526.517,255.7h-4.176v14.546c0,1.343,0.624,2.11,1.728,2.11c0.625,0,1.249-0.144,2.448-0.623v3.601
					c-1.92,0.433-2.641,0.528-3.696,0.528c-3.312,0-4.896-1.776-4.896-5.616v-14.546h-3.12v-3.504h3.12v-7.345h4.417v7.345h4.176
					L526.517,255.7L526.517,255.7z"/>
				<path display="inline" d="M535.203,248.5h-4.417v-5.136h4.417V248.5z M535.203,275.382h-4.417v-23.186h4.417V275.382z"/>
				<path display="inline" d="M562.804,263.958c0,7.104-4.561,12.048-11.186,12.048s-11.137-4.944-11.137-12.241
					c0-7.249,4.512-12.193,11.137-12.193C558.388,251.572,562.804,256.468,562.804,263.958z M544.946,263.765
					c0,5.426,2.448,8.544,6.721,8.544c4.178,0,6.674-3.119,6.674-8.399c0-5.569-2.4-8.641-6.722-8.641
					C547.395,255.269,544.946,258.388,544.946,263.765z"/>
				<path display="inline" d="M572.258,252.196v2.64c2.305-2.448,4.177-3.264,7.345-3.264c2.736,0,4.992,0.912,6.289,2.544
					c1.104,1.44,1.536,3.072,1.536,5.76v15.504h-4.417v-15.168c0-3.168-1.439-4.704-4.464-4.704c-3.794,0-6.098,2.208-6.098,5.808
					v14.064h-4.417v-23.186L572.258,252.196L572.258,252.196z"/>
			</g>
			<g>
				<path d="M216.203,250.381h-4.562v-28.034h-9.985v-3.984h24.53v3.984h-9.985v28.034H216.203z"/>
				<path d="M247.837,238.958c0,7.104-4.562,12.049-11.186,12.049s-11.137-4.944-11.137-12.241c0-7.249,4.513-12.193,11.137-12.193
					C243.42,226.571,247.837,231.468,247.837,238.958z M229.979,238.764c0,5.425,2.448,8.545,6.721,8.545
					c4.177,0,6.674-3.12,6.674-8.401c0-5.568-2.4-8.641-6.722-8.641C232.427,230.269,229.979,233.388,229.979,238.764z"/>
				<path d="M268.234,250.381v-2.64c-2.304,2.448-4.177,3.264-7.345,3.264c-2.736,0-4.993-0.912-6.289-2.544
					c-1.104-1.44-1.536-3.072-1.536-5.761v-15.505h4.417v15.169c0,3.168,1.44,4.704,4.464,4.704c3.792,0,6.097-2.208,6.097-5.808
					v-14.065h4.417v23.186H268.234L268.234,250.381z"/>
				<path d="M295.163,235.068c-0.673-3.168-2.688-4.8-5.857-4.8c-4.224,0-7.057,3.36-7.057,8.449c0,5.232,2.784,8.593,7.057,8.593
					c3.457,0,5.521-1.872,6.145-5.617h4.178c-0.624,5.905-4.417,9.313-10.417,9.313c-6.913,0-11.425-4.849-11.425-12.241
					c0-7.392,4.561-12.193,11.568-12.193c5.665,0,9.361,3.12,9.985,8.497L295.163,235.068L295.163,235.068z"/>
				<path d="M308.841,229.309c2.256-1.968,4.128-2.736,6.913-2.736c2.832,0,5.136,0.96,6.527,2.688
					c1.104,1.344,1.537,2.977,1.537,5.617v15.505h-4.417v-14.785c0-1.968-0.239-2.977-0.96-3.745
					c-0.768-0.864-2.016-1.344-3.552-1.344c-3.84,0-6.048,2.304-6.048,6.192v13.681h-4.417v-32.019h4.417L308.841,229.309
					L308.841,229.309z"/>
				<path d="M341.289,239.246H327.08v-3.984h14.209V239.246L341.289,239.246z"/>
				<path d="M359.673,234.3c-0.625-2.88-2.209-4.08-5.28-4.08c-2.642,0-4.417,1.104-4.417,2.736c0,1.152,0.816,1.92,2.689,2.4
					l5.377,1.392c4.848,1.248,6.863,3.264,6.863,6.817c0,4.56-3.744,7.44-9.648,7.44c-6.289,0-10.033-3.072-10.513-8.593h4.368
					c0.239,3.072,2.544,4.896,6.241,4.896c3.168,0,5.231-1.392,5.231-3.552c0-1.536-1.008-2.352-3.695-3.072l-4.608-1.152
					c-2.448-0.624-3.937-1.296-4.896-2.16c-1.058-0.912-1.729-2.448-1.729-3.984c0-3.984,3.696-6.816,8.93-6.816
					c3.312,0,6.049,1.104,7.681,3.072c1.009,1.248,1.44,2.496,1.633,4.656H359.673z"/>
				<path d="M385.88,235.068c-0.672-3.168-2.688-4.8-5.856-4.8c-4.226,0-7.058,3.36-7.058,8.449c0,5.232,2.785,8.593,7.058,8.593
					c3.456,0,5.521-1.872,6.146-5.617h4.176c-0.623,5.905-4.416,9.313-10.416,9.313c-6.913,0-11.426-4.849-11.426-12.241
					c0-7.392,4.562-12.193,11.568-12.193c5.665,0,9.361,3.12,9.985,8.497L385.88,235.068L385.88,235.068z"/>
				<path d="M399.271,227.195v3.648c0.912-1.344,1.296-1.872,1.92-2.448c1.057-1.104,2.736-1.824,4.129-1.824
					c0.864,0,1.68,0.192,2.448,0.576v3.984c-0.912-0.192-1.394-0.24-2.018-0.24c-3.552,0-6.287,3.168-6.287,7.297v12.193h-4.417
					v-23.186H399.271L399.271,227.195z"/>
				<path d="M414.631,239.87c0.336,4.752,2.735,7.44,6.721,7.44c2.736,0,4.561-1.296,5.616-4.032h4.225
					c-1.104,4.848-4.801,7.729-9.937,7.729c-6.529,0-11.041-4.992-11.041-12.241c0-7.249,4.416-12.193,10.896-12.193
					c4.608,0,7.969,2.448,9.505,6.913c0.576,1.728,0.864,3.6,0.912,6.385L414.631,239.87L414.631,239.87z M426.919,236.652
					c-0.191-4.225-2.304-6.577-5.809-6.577c-3.601,0-6.191,2.688-6.433,6.577H426.919z"/>
				<path d="M440.021,239.87c0.336,4.752,2.736,7.44,6.721,7.44c2.736,0,4.562-1.296,5.616-4.032h4.225
					c-1.104,4.848-4.801,7.729-9.937,7.729c-6.529,0-11.041-4.992-11.041-12.241c0-7.249,4.416-12.193,10.896-12.193
					c4.608,0,7.97,2.448,9.506,6.913c0.575,1.728,0.863,3.6,0.911,6.385L440.021,239.87L440.021,239.87z M452.311,236.652
					c-0.192-4.225-2.304-6.577-5.81-6.577c-3.601,0-6.191,2.688-6.433,6.577H452.311z"/>
				<path d="M466.374,227.195v2.64c2.306-2.448,4.178-3.264,7.346-3.264c2.735,0,4.992,0.912,6.289,2.544
					c1.104,1.44,1.535,3.072,1.535,5.76v15.505h-4.416v-15.169c0-3.168-1.439-4.704-4.465-4.704c-3.793,0-6.097,2.208-6.097,5.808
					v14.065h-4.417v-23.186L466.374,227.195L466.374,227.195z"/>
				<path d="M225.516,308.382h-5.376l-8.017-12.146l-3.312,2.93v9.217h-4.417v-32.02h4.417v17.57l9.938-8.736h5.855l-9.359,8.256
					L225.516,308.382z"/>
				<path d="M233.529,281.499h-4.417v-5.137h4.417V281.499L233.529,281.499z M233.529,308.382h-4.417v-23.186h4.417V308.382
					L233.529,308.382z"/>
				<path d="M261.131,296.957c0,7.104-4.562,12.049-11.186,12.049s-11.137-4.944-11.137-12.241c0-7.248,4.513-12.193,11.137-12.193
					C256.715,284.571,261.131,289.468,261.131,296.957z M243.273,296.765c0,5.425,2.448,8.545,6.722,8.545
					c4.176,0,6.673-3.119,6.673-8.399c0-5.568-2.4-8.642-6.722-8.642C245.722,288.269,243.273,291.389,243.273,296.765z"/>
				<path d="M279.706,292.301c-0.624-2.881-2.208-4.081-5.281-4.081c-2.641,0-4.416,1.104-4.416,2.736
					c0,1.152,0.815,1.921,2.688,2.4l5.376,1.393c4.85,1.248,6.865,3.264,6.865,6.816c0,4.561-3.744,7.439-9.648,7.439
					c-6.289,0-10.033-3.072-10.514-8.593h4.368c0.24,3.072,2.544,4.896,6.241,4.896c3.168,0,5.231-1.393,5.231-3.553
					c0-1.536-1.008-2.352-3.695-3.072l-4.608-1.15c-2.448-0.624-3.937-1.297-4.896-2.16c-1.057-0.912-1.729-2.448-1.729-3.984
					c0-3.984,3.696-6.816,8.929-6.816c3.312,0,6.049,1.104,7.682,3.072c1.008,1.248,1.439,2.496,1.632,4.656L279.706,292.301
					L279.706,292.301z"/>
				<path d="M311.049,308.382h-5.376l-8.018-12.146l-3.312,2.93v9.217h-4.417v-32.02h4.417v17.57l9.937-8.736h5.857l-9.361,8.256
					L311.049,308.382z"/>
				<path d="M349.448,308.382h-4.417v-2.496c-2.208,2.208-4.416,3.12-7.345,3.12c-6.191,0-10.08-4.801-10.08-12.337
					c0-7.393,3.937-12.098,10.08-12.098c2.978,0,5.186,0.961,7.345,3.121v-11.33h4.417V308.382z M332.07,296.765
					c0,5.474,2.4,8.545,6.577,8.545c4.225,0,6.624-3.071,6.624-8.399c0-5.568-2.353-8.642-6.624-8.642
					C334.472,288.269,332.07,291.341,332.07,296.765z"/>
				<path d="M359.143,297.869c0.336,4.752,2.735,7.439,6.721,7.439c2.736,0,4.562-1.296,5.616-4.031h4.225
					c-1.104,4.849-4.801,7.729-9.937,7.729c-6.529,0-11.041-4.992-11.041-12.241c0-7.248,4.416-12.193,10.896-12.193
					c4.608,0,7.969,2.449,9.506,6.914c0.576,1.729,0.863,3.601,0.912,6.385L359.143,297.869L359.143,297.869z M371.432,294.651
					c-0.192-4.224-2.304-6.575-5.81-6.575c-3.601,0-6.191,2.688-6.433,6.575H371.432z"/>
				<path d="M394.615,292.301c-0.624-2.881-2.208-4.081-5.28-4.081c-2.641,0-4.416,1.104-4.416,2.736c0,1.152,0.815,1.921,2.688,2.4
					l5.377,1.393c4.848,1.248,6.864,3.264,6.864,6.816c0,4.561-3.744,7.439-9.648,7.439c-6.288,0-10.032-3.072-10.514-8.593h4.368
					c0.24,3.072,2.545,4.896,6.24,4.896c3.168,0,5.232-1.393,5.232-3.553c0-1.536-1.008-2.352-3.695-3.072l-4.609-1.15
					c-2.447-0.624-3.937-1.297-4.896-2.16c-1.057-0.912-1.729-2.448-1.729-3.984c0-3.984,3.697-6.816,8.93-6.816
					c3.312,0,6.049,1.104,7.681,3.072c1.01,1.248,1.44,2.496,1.634,4.656L394.615,292.301L394.615,292.301z"/>
				<path d="M409.015,281.499h-4.417v-5.137h4.417V281.499z M409.015,308.382h-4.417v-23.186h4.417V308.382z"/>
				<path d="M435.319,285.196v22.272c0,3.072-0.72,5.089-2.353,6.434c-1.823,1.584-4.656,2.447-8.112,2.447
					c-3.408,0-6.097-0.912-7.729-2.641c-1.008-1.056-1.487-2.208-1.681-4.272h4.225c0.24,2.258,2.018,3.409,5.329,3.409
					c4.177,0,6.097-1.775,6.097-5.617v-2.64c-1.872,2.016-4.176,3.024-6.864,3.024c-5.856,0-9.938-4.657-9.938-11.329
					c0-6.913,4.129-11.715,10.032-11.715c3.024,0,4.944,0.912,6.865,3.17l-0.097-2.545h4.226V285.196z M418.758,296.093
					c0,4.752,2.353,7.682,6.24,7.682c3.792,0,6.192-2.93,6.192-7.586c0-4.848-2.305-7.775-6.241-7.775
					C421.11,288.412,418.758,291.341,418.758,296.093z"/>
				<path d="M445.974,285.196v2.64c2.305-2.448,4.177-3.265,7.345-3.265c2.736,0,4.992,0.912,6.289,2.545
					c1.104,1.438,1.536,3.072,1.536,5.761v15.505h-4.417v-15.169c0-3.169-1.439-4.705-4.464-4.705c-3.793,0-6.098,2.208-6.098,5.81
					v14.064h-4.417v-23.186H445.974z"/>
				<path d="M480.966,292.301c-0.624-2.881-2.208-4.081-5.28-4.081c-2.642,0-4.417,1.104-4.417,2.736c0,1.152,0.815,1.921,2.688,2.4
					l5.377,1.393c4.849,1.248,6.864,3.264,6.864,6.816c0,4.561-3.744,7.439-9.647,7.439c-6.289,0-10.033-3.072-10.515-8.593h4.369
					c0.239,3.072,2.544,4.896,6.24,4.896c3.168,0,5.231-1.393,5.231-3.553c0-1.536-1.008-2.352-3.695-3.072l-4.608-1.15
					c-2.448-0.624-3.937-1.297-4.896-2.16c-1.058-0.912-1.729-2.448-1.729-3.984c0-3.984,3.696-6.816,8.929-6.816
					c3.312,0,6.05,1.104,7.682,3.072c1.009,1.248,1.439,2.496,1.633,4.656L480.966,292.301L480.966,292.301z"/>
			</g>
		</g>
		
			<line id="underbar_3_" display="inline" fill="none" stroke="#000000" stroke-width="4.252" stroke-miterlimit="10" x1="204.394" y1="321.638" x2="486.197" y2="321.638"/>
	</g>
</g>
<g id="guides">
</g>
</svg>
