<?xml version="1.0" encoding="utf-8"?>
<!-- Generator: Adobe Illustrator 16.0.0, SVG Export Plug-In . SVG Version: 6.00 Build 0)  -->
<!DOCTYPE svg PUBLIC "-//W3C//DTD SVG 1.1//EN" "http://www.w3.org/Graphics/SVG/1.1/DTD/svg11.dtd">
<svg version="1.1" xmlns="http://www.w3.org/2000/svg" xmlns:xlink="http://www.w3.org/1999/xlink" x="0px" y="0px" width="50px"
	 height="50px" viewBox="0 0 50 50" enable-background="new 0 0 50 50" xml:space="preserve">
<g id="bg">
	<rect width="50" height="50.5"/>
</g>
<g id="circle">
	<circle fill="none" stroke="#FFFFFF" stroke-width="2.8346" stroke-miterlimit="10" cx="25" cy="25" r="20"/>
</g>
<g id="square" display="none">
	
		<rect x="5" y="5" display="inline" fill="none" stroke="#FFFFFF" stroke-width="2.8347" stroke-miterlimit="10" width="40" height="40"/>
</g>
<g id="eye">
	<path fill="none" stroke="#FFFFFF" stroke-width="2.8347" stroke-miterlimit="10" d="M39.608,24.9c0,0-5.077-8.254-14.608-8.254
		c-9.532,0-14.608,8.254-14.608,8.254v0.202c0,0,5.076,8.253,14.608,8.253c9.531,0,14.608-8.253,14.608-8.253V24.9z"/>
	<path fill="#FFFFFF" d="M32.225,25c0,3.99-3.234,7.225-7.225,7.225c-3.994,0-7.23-3.234-7.23-7.225c0-3.994,3.236-7.23,7.23-7.23
		C28.99,17.77,32.225,21.006,32.225,25z"/>
	<circle cx="24.999" cy="25" r="2.586"/>
</g>
<g id="rulers">
</g>
</svg>
