<?xml version="1.0" encoding="utf-8"?>
<!-- Generator: Adobe Illustrator 16.0.0, SVG Export Plug-In . SVG Version: 6.00 Build 0)  -->
<!DOCTYPE svg PUBLIC "-//W3C//DTD SVG 1.1//EN" "http://www.w3.org/Graphics/SVG/1.1/DTD/svg11.dtd">
<svg version="1.1" xmlns="http://www.w3.org/2000/svg" xmlns:xlink="http://www.w3.org/1999/xlink" x="0px" y="0px"
	 width="708.662px" height="354.331px" viewBox="0 0 708.662 354.331" enable-background="new 0 0 708.662 354.331"
	 xml:space="preserve">
<g id="Layer_1">
	<g>
		<path d="M74.256,282.109c0-13.268,8.37-21.142,19.157-21.142c5.766,0,9.733,2.542,12.275,5.146l-3.844,4.649
			c-2.046-1.984-4.402-3.534-8.184-3.534c-7.192,0-12.027,5.58-12.027,14.693c0,9.237,4.278,14.817,12.399,14.817
			c2.293,0,4.525-0.62,5.828-1.798v-8.741h-7.688v-5.89h14.135v17.854c-2.728,2.728-7.439,4.836-12.957,4.836
			C82.377,303.002,74.256,295.562,74.256,282.109z"/>
		<path d="M112.696,287.068c0-10.167,6.881-15.995,14.445-15.995c7.626,0,14.507,5.828,14.507,15.995
			c0,10.105-6.881,15.934-14.507,15.934C119.577,303.002,112.696,297.174,112.696,287.068z M134.333,287.068
			c0-6.138-2.728-10.167-7.192-10.167c-4.463,0-7.129,4.029-7.129,10.167c0,6.076,2.666,10.105,7.129,10.105
			C131.604,297.174,134.333,293.145,134.333,287.068z"/>
		<path d="M167.564,299.034h-0.186l-0.62,3.224h-5.642v-43.77h7.129v11.283l-0.186,5.084c2.542-2.232,5.704-3.782,8.804-3.782
			c7.625,0,12.027,6.076,12.027,15.438c0,10.478-6.262,16.491-13.02,16.491C173.083,303.002,170.106,301.576,167.564,299.034z
			 M181.514,286.635c0-6.076-1.984-9.672-6.571-9.672c-2.232,0-4.34,1.116-6.696,3.41v14.197c2.17,1.859,4.34,2.542,6.138,2.542
			C178.414,297.112,181.514,293.517,181.514,286.635z"/>
		<path d="M193.667,294.074c0-6.51,5.394-9.919,17.917-11.283c-0.124-3.224-1.426-5.952-5.58-5.952
			c-2.976,0-5.828,1.364-8.555,2.977l-2.604-4.774c3.348-2.107,7.688-3.968,12.523-3.968c7.563,0,11.345,4.65,11.345,13.144v18.041
			h-5.89l-0.496-3.348h-0.248c-2.728,2.294-5.828,4.092-9.423,4.092C197.325,303.002,193.667,299.406,193.667,294.074z
			 M211.584,294.074v-6.819c-8.308,1.054-11.036,3.224-11.036,6.262c0,2.728,1.86,3.905,4.402,3.905
			C207.43,297.422,209.29,296.183,211.584,294.074z"/>
		<path d="M225.286,287.068c0-10.167,7.129-15.995,15.251-15.995c3.906,0,6.696,1.488,8.928,3.41l-3.472,4.649
			c-1.612-1.426-3.162-2.231-5.083-2.231c-4.898,0-8.308,4.029-8.308,10.167c0,6.076,3.348,10.105,8.122,10.105
			c2.356,0,4.526-1.178,6.262-2.604l2.914,4.712c-2.852,2.479-6.447,3.72-9.919,3.72
			C231.672,303.002,225.286,297.174,225.286,287.068z"/>
		<path d="M255.914,258.488h7.005v27.341h0.186l11.283-14.012h7.812l-10.415,12.399l11.469,18.041h-7.75l-7.812-13.205l-4.774,5.455
			v7.75h-7.005V258.488z"/>
	</g>
	<line stroke="#241F20" stroke-width="8.5039" stroke-miterlimit="10" x1="73.146" y1="322.441" x2="282.146" y2="322.441"/>
	<g>
		<polyline fill="none" stroke="#000000" stroke-width="11.3386" stroke-miterlimit="10" points="488.979,139.129 531.497,93.947 
			574.018,139.13 		"/>
	</g>
	<g>
		<path d="M428.587,282.109c0-13.268,8.37-21.142,19.157-21.142c5.766,0,9.733,2.542,12.275,5.146l-3.844,4.649
			c-2.046-1.984-4.402-3.534-8.184-3.534c-7.192,0-12.027,5.58-12.027,14.693c0,9.237,4.278,14.817,12.399,14.817
			c2.293,0,4.525-0.62,5.828-1.798v-8.741h-7.688v-5.89h14.135v17.854c-2.728,2.728-7.439,4.836-12.957,4.836
			C436.708,303.002,428.587,295.562,428.587,282.109z"/>
		<path d="M467.027,287.068c0-10.167,6.881-15.995,14.445-15.995c7.626,0,14.507,5.828,14.507,15.995
			c0,10.105-6.881,15.934-14.507,15.934C473.908,303.002,467.027,297.174,467.027,287.068z M488.664,287.068
			c0-6.138-2.728-10.167-7.192-10.167c-4.463,0-7.129,4.029-7.129,10.167c0,6.076,2.666,10.105,7.129,10.105
			C485.936,297.174,488.664,293.145,488.664,287.068z"/>
		<path d="M521.896,299.034h-0.186l-0.62,3.224h-5.642v-43.77h7.129v11.283l-0.186,5.084c2.542-2.232,5.704-3.782,8.804-3.782
			c7.625,0,12.027,6.076,12.027,15.438c0,10.478-6.262,16.491-13.02,16.491C527.414,303.002,524.438,301.576,521.896,299.034z
			 M535.845,286.635c0-6.076-1.984-9.672-6.571-9.672c-2.232,0-4.34,1.116-6.696,3.41v14.197c2.17,1.859,4.34,2.542,6.138,2.542
			C532.745,297.112,535.845,293.517,535.845,286.635z"/>
		<path d="M547.998,294.074c0-6.51,5.394-9.919,17.917-11.283c-0.124-3.224-1.426-5.952-5.58-5.952
			c-2.976,0-5.828,1.364-8.555,2.977l-2.604-4.774c3.348-2.107,7.688-3.968,12.523-3.968c7.563,0,11.345,4.65,11.345,13.144v18.041
			h-5.89l-0.496-3.348h-0.248c-2.728,2.294-5.828,4.092-9.423,4.092C551.656,303.002,547.998,299.406,547.998,294.074z
			 M565.915,294.074v-6.819c-8.308,1.054-11.036,3.224-11.036,6.262c0,2.728,1.86,3.905,4.402,3.905
			C561.761,297.422,563.621,296.183,565.915,294.074z"/>
		<path d="M579.617,287.068c0-10.167,7.129-15.995,15.251-15.995c3.906,0,6.696,1.488,8.928,3.41l-3.472,4.649
			c-1.612-1.426-3.162-2.231-5.083-2.231c-4.898,0-8.308,4.029-8.308,10.167c0,6.076,3.348,10.105,8.122,10.105
			c2.356,0,4.526-1.178,6.262-2.604l2.914,4.712c-2.852,2.479-6.447,3.72-9.919,3.72
			C586.003,303.002,579.617,297.174,579.617,287.068z"/>
		<path d="M610.245,258.488h7.005v27.341h0.186l11.283-14.012h7.812l-10.415,12.399l11.469,18.041h-7.75l-7.812-13.205l-4.774,5.455
			v7.75h-7.005V258.488z"/>
	</g>
	<line stroke="#241F20" stroke-width="8.5039" stroke-miterlimit="10" x1="427.479" y1="322.441" x2="636.479" y2="322.441"/>
	<g>
		<path fill="#FFFFFF" stroke="#000000" stroke-width="11.3386" stroke-miterlimit="10" d="M632.544,116.292
			c0,55.804-45.24,101.042-101.046,101.042c-55.807,0-101.047-45.239-101.047-101.042c0-55.809,45.24-101.05,101.047-101.05
			C587.305,15.243,632.544,60.484,632.544,116.292z"/>
		<polyline fill="none" stroke="#000000" stroke-width="11.3386" stroke-miterlimit="10" points="488.979,139.13 531.497,93.948 
			574.018,139.131 		"/>
	</g>
	<g>
		<path d="M283.463,116.543c0,58.705-47.591,106.296-106.299,106.296c-58.708,0-106.299-47.591-106.299-106.296
			c0-58.71,47.591-106.303,106.299-106.303C235.872,10.24,283.463,57.833,283.463,116.543z"/>
		<polyline fill="none" stroke="#FFFFFF" stroke-width="11.3386" stroke-miterlimit="10" points="134.642,139.13 177.16,93.948 
			219.681,139.131 		"/>
	</g>
</g>
<g id="Layer_3" display="none">
</g>
<g id="Layer_4" display="none">
</g>
</svg>
