<?xml version="1.0" encoding="utf-8"?>
<!-- Generator: Adobe Illustrator 16.0.0, SVG Export Plug-In . SVG Version: 6.00 Build 0)  -->
<!DOCTYPE svg PUBLIC "-//W3C//DTD SVG 1.1//EN" "http://www.w3.org/Graphics/SVG/1.1/DTD/svg11.dtd">
<svg version="1.1" xmlns="http://www.w3.org/2000/svg" xmlns:xlink="http://www.w3.org/1999/xlink" x="0px" y="0px"
	 width="708.662px" height="354.331px" viewBox="0 0 708.662 354.331" enable-background="new 0 0 708.662 354.331"
	 xml:space="preserve">
<g id="Layer_1">
	<text transform="matrix(1 0 0 1 71.2183 302.2578)" font-family="'SourceSansPro-Semibold'" font-size="62">Go back</text>
	<line stroke="#241F20" stroke-width="8.5039" stroke-miterlimit="10" x1="73.146" y1="322.441" x2="282.146" y2="322.441"/>
	<g>
		<polyline fill="none" stroke="#000000" stroke-width="11.3386" stroke-miterlimit="10" points="488.979,139.129 531.497,93.947 
			574.018,139.13 		"/>
	</g>
	<text transform="matrix(1 0 0 1 425.5493 302.2578)" font-family="'SourceSansPro-Semibold'" font-size="62">Go back</text>
	<line stroke="#241F20" stroke-width="8.5039" stroke-miterlimit="10" x1="427.479" y1="322.441" x2="636.479" y2="322.441"/>
	<g>
		<path fill="#FFFFFF" stroke="#000000" stroke-width="11.3386" stroke-miterlimit="10" d="M632.544,116.292
			c0,55.804-45.24,101.042-101.046,101.042c-55.807,0-101.047-45.239-101.047-101.042c0-55.809,45.24-101.05,101.047-101.05
			C587.305,15.243,632.544,60.484,632.544,116.292z"/>
		<polyline fill="none" stroke="#000000" stroke-width="11.3386" stroke-miterlimit="10" points="488.979,139.13 531.497,93.948 
			574.018,139.131 		"/>
	</g>
	<g>
		<path d="M283.463,116.543c0,58.705-47.591,106.296-106.299,106.296c-58.708,0-106.299-47.591-106.299-106.296
			c0-58.71,47.591-106.303,106.299-106.303C235.872,10.24,283.463,57.833,283.463,116.543z"/>
		<polyline fill="none" stroke="#FFFFFF" stroke-width="11.3386" stroke-miterlimit="10" points="134.642,139.13 177.16,93.948 
			219.681,139.131 		"/>
	</g>
</g>
<g id="Layer_3" display="none">
</g>
<g id="Layer_4" display="none">
</g>
</svg>
