<?xml version="1.0" encoding="utf-8"?>
<!-- Generator: Adobe Illustrator 16.0.0, SVG Export Plug-In . SVG Version: 6.00 Build 0)  -->
<!DOCTYPE svg PUBLIC "-//W3C//DTD SVG 1.1//EN" "http://www.w3.org/Graphics/SVG/1.1/DTD/svg11.dtd">
<svg version="1.1" xmlns="http://www.w3.org/2000/svg" xmlns:xlink="http://www.w3.org/1999/xlink" x="0px" y="0px"
	 width="708.662px" height="354.331px" viewBox="0 0 708.662 354.331" enable-background="new 0 0 708.662 354.331"
	 xml:space="preserve">
<g id="Layer_1">
	<g>
		<path d="M107.734,300.397c-2.418,0.868-7.192,2.294-12.833,2.294c-6.324,0-11.531-1.611-15.623-5.518
			c-3.596-3.472-5.828-9.051-5.828-15.561c0.062-12.462,8.618-21.575,22.628-21.575c4.836,0,8.618,1.054,10.416,1.922l-1.302,4.402
			c-2.232-0.992-5.022-1.799-9.237-1.799c-10.167,0-16.801,6.324-16.801,16.802c0,10.602,6.386,16.863,16.119,16.863
			c3.534,0,5.952-0.496,7.191-1.116V284.65h-8.493v-4.339h13.763V300.397z"/>
		<path d="M143.26,287.007c0,11.098-7.688,15.933-14.941,15.933c-8.122,0-14.383-5.951-14.383-15.437
			c0-10.044,6.571-15.934,14.879-15.934C137.432,271.569,143.26,277.831,143.26,287.007z M119.453,287.316
			c0,6.572,3.782,11.531,9.113,11.531c5.208,0,9.114-4.897,9.114-11.655c0-5.083-2.542-11.531-8.99-11.531
			C122.243,275.661,119.453,281.613,119.453,287.316z"/>
		<path d="M163.039,302.258c0.124-2.046,0.248-5.084,0.248-7.75V258.24h5.394v18.847h0.124c1.922-3.348,5.394-5.518,10.229-5.518
			c7.439,0,12.709,6.2,12.647,15.313c0,10.726-6.757,16.057-13.453,16.057c-4.34,0-7.812-1.674-10.043-5.642h-0.186l-0.248,4.96
			H163.039z M168.68,290.23c0,0.682,0.124,1.364,0.248,1.984c1.054,3.781,4.216,6.385,8.184,6.385c5.704,0,9.113-4.649,9.113-11.531
			c0-6.014-3.1-11.159-8.927-11.159c-3.72,0-7.192,2.542-8.308,6.695c-0.124,0.62-0.31,1.364-0.31,2.232V290.23z"/>
		<path d="M215.178,302.258l-0.434-3.782h-0.186c-1.674,2.356-4.898,4.464-9.176,4.464c-6.076,0-9.175-4.277-9.175-8.617
			c0-7.254,6.448-11.222,18.041-11.159v-0.62c0-2.479-0.682-6.943-6.82-6.943c-2.79,0-5.704,0.868-7.812,2.231l-1.24-3.596
			c2.48-1.612,6.076-2.666,9.857-2.666c9.175,0,11.407,6.262,11.407,12.275v11.222c0,2.604,0.124,5.146,0.496,7.191H215.178z
			 M214.373,286.944c-5.952-0.124-12.709,0.931-12.709,6.758c0,3.534,2.356,5.208,5.146,5.208c3.906,0,6.385-2.48,7.253-5.021
			c0.186-0.559,0.31-1.179,0.31-1.736V286.944z"/>
		<path d="M249.836,301.142c-1.426,0.744-4.588,1.736-8.618,1.736c-9.051,0-14.941-6.138-14.941-15.313
			c0-9.237,6.324-15.933,16.119-15.933c3.224,0,6.076,0.806,7.563,1.55l-1.24,4.216c-1.302-0.744-3.348-1.426-6.323-1.426
			c-6.882,0-10.602,5.083-10.602,11.345c0,6.944,4.464,11.222,10.416,11.222c3.1,0,5.146-0.806,6.695-1.488L249.836,301.142z"/>
		<path d="M261.617,286.015h0.124c0.744-1.054,1.798-2.355,2.666-3.41l8.803-10.353h6.572l-11.593,12.337l13.205,17.669h-6.634
			l-10.353-14.383l-2.79,3.1v11.283h-5.394V258.24h5.394V286.015z"/>
	</g>
	<line stroke="#241F20" stroke-width="8.5039" stroke-miterlimit="10" x1="73.146" y1="322.441" x2="282.146" y2="322.441"/>
	<g>
		<polyline fill="none" stroke="#000000" stroke-width="11.3386" stroke-miterlimit="10" points="488.979,139.129 531.497,93.947 
			574.018,139.13 		"/>
	</g>
	<g>
		<path d="M462.065,300.397c-2.418,0.868-7.192,2.294-12.833,2.294c-6.324,0-11.531-1.611-15.623-5.518
			c-3.596-3.472-5.828-9.051-5.828-15.561c0.062-12.462,8.618-21.575,22.628-21.575c4.836,0,8.618,1.054,10.416,1.922l-1.302,4.402
			c-2.232-0.992-5.022-1.799-9.237-1.799c-10.167,0-16.801,6.324-16.801,16.802c0,10.602,6.386,16.863,16.119,16.863
			c3.534,0,5.952-0.496,7.191-1.116V284.65h-8.493v-4.339h13.763V300.397z"/>
		<path d="M497.591,287.007c0,11.098-7.688,15.933-14.941,15.933c-8.122,0-14.383-5.951-14.383-15.437
			c0-10.044,6.571-15.934,14.879-15.934C491.763,271.569,497.591,277.831,497.591,287.007z M473.784,287.316
			c0,6.572,3.782,11.531,9.113,11.531c5.208,0,9.114-4.897,9.114-11.655c0-5.083-2.542-11.531-8.99-11.531
			C476.574,275.661,473.784,281.613,473.784,287.316z"/>
		<path d="M517.37,302.258c0.124-2.046,0.248-5.084,0.248-7.75V258.24h5.394v18.847h0.124c1.922-3.348,5.394-5.518,10.229-5.518
			c7.439,0,12.709,6.2,12.647,15.313c0,10.726-6.757,16.057-13.453,16.057c-4.34,0-7.812-1.674-10.043-5.642h-0.186l-0.248,4.96
			H517.37z M523.011,290.23c0,0.682,0.124,1.364,0.248,1.984c1.054,3.781,4.216,6.385,8.184,6.385c5.704,0,9.113-4.649,9.113-11.531
			c0-6.014-3.1-11.159-8.927-11.159c-3.72,0-7.192,2.542-8.308,6.695c-0.124,0.62-0.31,1.364-0.31,2.232V290.23z"/>
		<path d="M569.509,302.258l-0.434-3.782h-0.186c-1.674,2.356-4.898,4.464-9.176,4.464c-6.076,0-9.175-4.277-9.175-8.617
			c0-7.254,6.448-11.222,18.041-11.159v-0.62c0-2.479-0.682-6.943-6.82-6.943c-2.79,0-5.704,0.868-7.812,2.231l-1.24-3.596
			c2.48-1.612,6.076-2.666,9.857-2.666c9.175,0,11.407,6.262,11.407,12.275v11.222c0,2.604,0.124,5.146,0.496,7.191H569.509z
			 M568.704,286.944c-5.952-0.124-12.709,0.931-12.709,6.758c0,3.534,2.356,5.208,5.146,5.208c3.906,0,6.385-2.48,7.253-5.021
			c0.186-0.559,0.31-1.179,0.31-1.736V286.944z"/>
		<path d="M604.167,301.142c-1.426,0.744-4.588,1.736-8.618,1.736c-9.051,0-14.941-6.138-14.941-15.313
			c0-9.237,6.324-15.933,16.119-15.933c3.224,0,6.076,0.806,7.563,1.55l-1.24,4.216c-1.302-0.744-3.348-1.426-6.323-1.426
			c-6.882,0-10.602,5.083-10.602,11.345c0,6.944,4.464,11.222,10.416,11.222c3.1,0,5.146-0.806,6.695-1.488L604.167,301.142z"/>
		<path d="M615.948,286.015h0.124c0.744-1.054,1.798-2.355,2.666-3.41l8.803-10.353h6.572l-11.593,12.337l13.205,17.669h-6.634
			l-10.353-14.383l-2.79,3.1v11.283h-5.394V258.24h5.394V286.015z"/>
	</g>
	<line stroke="#241F20" stroke-width="8.5039" stroke-miterlimit="10" x1="427.479" y1="322.441" x2="636.479" y2="322.441"/>
	<g>
		<path fill="#FFFFFF" stroke="#000000" stroke-width="11.3386" stroke-miterlimit="10" d="M632.544,116.292
			c0,55.804-45.24,101.042-101.046,101.042c-55.807,0-101.047-45.239-101.047-101.042c0-55.809,45.24-101.05,101.047-101.05
			C587.305,15.243,632.544,60.484,632.544,116.292z"/>
		<polyline fill="none" stroke="#000000" stroke-width="11.3386" stroke-miterlimit="10" points="488.979,139.13 531.497,93.948 
			574.018,139.131 		"/>
	</g>
	<g>
		<path d="M283.463,116.543c0,58.705-47.591,106.296-106.299,106.296c-58.708,0-106.299-47.591-106.299-106.296
			c0-58.71,47.591-106.303,106.299-106.303C235.872,10.24,283.463,57.833,283.463,116.543z"/>
		<polyline fill="none" stroke="#FFFFFF" stroke-width="11.3386" stroke-miterlimit="10" points="134.642,139.13 177.16,93.948 
			219.681,139.131 		"/>
	</g>
</g>
<g id="Layer_3" display="none">
</g>
<g id="Layer_4" display="none">
</g>
</svg>
