<?xml version="1.0" encoding="utf-8"?>
<!-- Generator: Adobe Illustrator 16.0.0, SVG Export Plug-In . SVG Version: 6.00 Build 0)  -->
<!DOCTYPE svg PUBLIC "-//W3C//DTD SVG 1.1//EN" "http://www.w3.org/Graphics/SVG/1.1/DTD/svg11.dtd">
<svg version="1.1" id="Layer_1" xmlns="http://www.w3.org/2000/svg" xmlns:xlink="http://www.w3.org/1999/xlink" x="0px" y="0px"
	 width="768px" height="384px" viewBox="0 0 768 384" enable-background="new 0 0 768 384" xml:space="preserve">
<g>
	<path d="M279.249,195.259c6.592-5.621,27.632-19.033,27.632-53.31c0-26.057-10.203-49.463-54.158-49.463
		c-57.365,0-99.625,62.819-148.629,74.804c-5.168,1.264-10.333,1.723-15.677,1.723c-8.901,0-24.807-5.173-24.807-15.858
		c0-17.17,27.689-23.863,44.723-23.863c8.16,0,26.146,3.12,26.319,13.828c0.044,2.712-1.854,4.049-2.04,5.61
		c-0.201,1.688-0.036,4.413,4.444,4.533c8.002,0.213,21.255-10.283,39.105-22.523l1.53,2.04
		c-22.61,14.79-41.479,35.189-54.569,57.63l14.11-2.551l13.09-2.55c13.26-17,57.799-54.229,79.559-54.229
		c6.46,0,10.71,3.23,10.71,9.18c0,20.57-52.7,40.799-81.599,46.41c-11.39,13.261-42.513,47.688-42.513,57.039
		c0,3.57,2.292,5.945,7.504,5.945c8.327,0,19.709-4.162,34.499-16.742l1.19-1.021l0.85,1.19l-1.02,0.851
		c-12.58,10.54-24.99,17.511-34.85,17.511c-6.97,0-12.07-3.23-12.07-9.69c0-14.111,27.88-45.563,36.38-53.384l-0.34-0.34
		l-17.531,3.183l-9.499,1.917c-21.76,34.513-57.459,58.314-77.349,58.314c-9.52,0-17.169-4.931-17.169-12.751
		c0-14.791,25.839-35.872,85.339-46.753c13.6-18.02,27.54-31.959,47.259-46.919l-0.34-0.34c-5.78,3.57-14.62,9.35-21.93,9.35
		c-4.76,0-9.769-2.97-9.769-7.56c0-3.06,2.04-5.27,2.04-6.8c0-3.74-7.623-9.311-21.373-9.311c-19.25,0-41.685,7.456-41.685,22.926
		c0,9.169,13.832,14.409,22.332,14.409c5.084,0,9.97-0.495,14.854-1.819c45.031-12.211,83.432-74.601,148.928-74.601
		c44.943,0,57.61,24.923,57.61,50.646c0,34.364-30.287,53.825-30.512,53.994C279.828,195.913,279.47,195.515,279.249,195.259z
		 M44.345,250.018c23.63,0,47.667-32.577,66.026-55.019c-22.78,2.721-81.961,21.04-81.961,43.777
		C28.411,244.349,33.276,250.018,44.345,250.018z M230.438,132.27c-23.8,0-54.617,35.529-69.917,51.338l0.34,0.34
		c36.889-8.33,78.224-27.897,78.224-43.707C239.085,134.753,235.622,132.27,230.438,132.27z"/>
	<path d="M194.351,233.271l-1.02,0.851c-13.77,11.39-23.629,17.511-31.79,17.511c-4.93,0-7.31-3.57-7.31-8.16
		c0-12.751,22.61-27.542,33.83-27.542c2.89,0,3.91,1.87,3.91,3.74c0,5.44-7.82,12.24-27.88,15.811
		c-2.55,1.87-6.853,6.808-6.853,10.888c0,2.04,1.29,4.118,4.416,4.118c6.63,0,18.587-7.015,30.657-17.386l1.19-1.021
		L194.351,233.271z M165.961,232.931l0.516,0.538c9.86-1.53,24.292-7.152,24.388-13.612c0.033-2.182-1.643-2.702-2.833-2.702
		C184.123,217.154,178.711,221.88,165.961,232.931z"/>
	<path d="M244.329,216.95c-3.06,3.06-25.363,26.245-26.18,31.451c-0.195,1.242,0.041,2.154,1.661,2.154
		c0.292,0,0.976-0.104,1.729-0.553c3.806-2.27,12.758-9.763,21.153-16.92l1.219-0.969l0.929,1.156l-1.02,0.851
		c-20.06,16.66-21.25,17.511-24.31,17.511c-3.74,0-4.76-1.871-4.76-4.59c0-3.061,1.36-6.121,2.72-8.331h-0.34
		c-9.01,8.161-15.81,12.921-22.27,12.921c-5.1,0-6.8-3.061-6.8-7.99c0-14.281,23.8-27.712,35.7-27.712c5.61,0,6.46,2.72,6.46,7.31
		h0.34l5.1-6.289H244.329z M191.133,247.127c0,2.039,1.139,3.616,4.419,3.549c4.759-0.098,13.586-6.185,22.426-14.516
		c7.65-7.31,10.824-11.153,11.152-15.049c0.188-2.233-1.901-4.113-4.718-4.186C214.557,216.673,191.133,240.666,191.133,247.127z"/>
	<path d="M242.786,233.008l1.188-0.953c16.566-14.221,19.396-16.125,22.965-16.125c2.38,0,4.42,2.21,4.42,5.271
		c0,10.54-18.749,22.271-18.749,27.031c0,1.928,1.241,2.248,3.287,2.248c6.46,0,16.142-5.818,28.722-16.358
		c-0.17-3.57,6.97-18.191,12.41-18.191c0.85,0,1.53,0.511,1.53,1.87c0,4.25-8.778,14.11-12.858,17.341
		c0,1.936,1.125,3.492,3.551,3.492c1.87,0,5.944-3.076,8.605-5.403l1.296-0.962l0.596,1.003l-1.02,0.851
		c-4.25,3.569-7.31,5.609-9.69,5.609s-3.74-1.529-4.42-3.57c-11.56,9.181-21.08,15.472-28.73,15.472c-3.74,0-6.46-1.53-6.46-6.121
		c0-8.841,18.53-20.061,18.53-24.821c0-1.19-0.85-2.38-2.04-2.38c-2.21,0-4.08,0.85-21.08,14.961l-1.02,0.851L242.786,233.008z"/>
	<path d="M297.592,233.438l1.19-1.021c9.35-7.99,19.202-16.362,25.152-16.362c3.91,0,5.95,2.21,5.95,5.78
		c0,7.821-21.42,20.571-21.42,26.012c0,1.869,0.687,2.807,2.658,2.807c7.31,0,29.132-18.278,44.602-33.748h8.67l-36.552,38.917h0.34
		c12.92-4.761,30.432-15.512,36.659-20.212c6.288-4.746,16.788-13.078,22.5-28.502c8.334-22.501-20.417-44.025-67.667-44.025
		c-30,0-76.015,6.46-76.015,22.569c0,11.205,38.402,20.915,79.183,20.915c52.109,0,83.732-8.86,83.732-40.349
		c0-11.048-10.742-44.223-141.089-44.223c-50.635,0-90.146,10.135-90.146,28.231c0,21,81.166,33.966,118.169,33.966
		c30.833,0,183.382-1.336,183.382-41.018c0-19.973-32.467-32.655-59.467-32.655c-26.994,0-59.874,12.911-59.874,32.884
		c0,41.841,173.29,40.625,217.286,40.625c80.512,0,100.9-18.011,100.9-31.396c0-20.067-37.08-30.829-83.58-30.829
		c-174.332,0-193.359,82.834-193.359,103.869c-0.605-0.049,0.066,0.017-0.859-0.05c0-29.398,19.904-104.854,194.238-104.854
		c48.5,0,88.375,9.896,88.375,31.841c0,9.761-9.004,32.591-105.725,32.591c-51.504,0-220.651-0.01-220.651-41.757
		c0-22.762,36.274-34.052,63.267-34.052c27.002,0,62.869,11.291,62.869,33.944c0,41.855-165.969,41.855-186.696,41.855
		c-39.273,0-123.15-10.935-123.15-34.796c0-17.633,27.82-29.535,95.21-29.535c137.731,0,144.751,35.25,145.001,45.25
		c0,28.334-27.708,41.378-87.909,41.378c-36.842,0-83.056-6.377-83.075-21.716c-0.018-14.329,33.232-23.482,79.973-23.482
		c52.676,0,83.011,23.82,70.343,46.488c-7.115,12.732-17.495,23.389-29.726,31.558c-12.231,8.168-30.396,16.524-34.307,17.714
		c-17.85,20.74-34.509,34.68-45.899,34.68c-2.89,0-5.61-1.699-5.61-5.779c0-11.561,27.71-23.63,43.01-28.05l22.609-24.312
		l-0.34-0.34c-14.45,11.56-23.97,17.511-28.729,17.511c-3.74,0-5.95-2.381-5.95-5.61c0-12.07,20.4-21.252,20.4-26.522
		c0-1.189-0.675-2.295-2.035-2.295c-3.4,0-10.545,5.016-23.805,16.066l-1.02,0.851L297.592,233.438z M315.604,261.108
		c-9.52,2.72-40.106,14.38-40.106,25.995c0,3.06,2.284,4.608,4.664,4.608c7.65,0,17.252-8.844,35.782-30.264L315.604,261.108z"/>
	<path d="M550.955,233.271l-1.02,0.851c-13.771,11.39-23.631,17.511-31.791,17.511c-4.93,0-7.309-3.57-7.309-8.16
		c0-12.751,22.609-27.542,33.828-27.542c2.891,0,3.91,1.87,3.91,3.74c0,5.44-7.82,12.24-27.879,15.811
		c-2.551,1.87-6.461,6.801-6.461,10.881c0,2.04,1.828,3.999,4.207,3.999c6.631,0,18.404-6.889,30.473-17.26l1.191-1.021
		L550.955,233.271z M522.564,232.931l0.34,0.34c9.861-1.53,24.131-6.809,24.732-13.31c0.221-2.388-1.736-2.996-2.928-2.996
		C540.799,216.965,535.314,221.88,522.564,232.931z"/>
	<path d="M567.85,206.238h14.213l14.451-15.13h8.84l-14.111,15.13h16.117l-0.85,1.36h-16.797l-19.721,21.082
		c-14.789,15.811-16.715,17.523-16.715,19.563c0,1.699,1.49,2.201,3.479,2.201c5.102,0,16.297-9.014,25.986-17.345l1.191-1.021
		l0.85,1.19l-1.02,0.851c-17.17,14.28-22.441,17.511-27.371,17.511c-3.74,0-6.289-1.36-6.289-5.78
		c0-6.631,5.949-13.432,31.789-37.232l-0.34-0.34c-10.199,8.501-20.57,16.66-30.6,24.991l-1.02,0.851l-1.02-1.021l1.189-1.021
		c9.689-8.331,19.889-15.98,29.75-24.141v-0.341H567L567.85,206.238z"/>
	<path d="M634.762,216.95c-3.061,3.06-26.42,26.226-26.42,31.495c0,1.794,0.762,2.027,1.781,2.027
		c3.227,0,12.738-8.531,23.107-17.372l1.189-1.021l0.852,1.19l-1.021,0.851c-20.059,16.66-21.248,17.511-24.309,17.511
		c-3.74,0-4.76-1.871-4.76-4.59c0-3.061,1.359-6.121,2.719-8.331h-0.34c-9.01,8.161-15.809,12.921-22.27,12.921
		c-5.1,0-6.799-3.061-6.799-7.99c0-14.281,23.799-27.712,35.699-27.712c5.609,0,6.459,2.72,6.459,7.31h0.34l5.102-6.289H634.762z
		 M581.891,247.042c0,1.839,0.359,3.637,3.76,3.637c4.76,0,13.92-6.188,22.76-14.519c7.65-7.31,11.078-11.244,11.078-15.153
		c0-3.011-1.711-3.717-4.617-3.717C604.508,217.29,581.891,240.581,581.891,247.042z"/>
	<path d="M646.832,223.579l-0.34-0.34c-3.061,2.892-6.291,5.951-11.221,10.031l-1.02,0.851l-1.02-1.021l1.189-1.021
		c7.65-6.63,16.32-14.62,28.729-27.541c13.771-14.11,45.221-49.98,63.24-49.98c3.4,0,4.76,2.38,4.76,5.1
		c0,11.9-30.43,35.36-61.879,47.771c-26.689,29.582-31.764,35.94-31.764,39.851c0,1.359,0.332,3.167,3.998,3.167
		c11.348,0,95.342-20.335,95.342-84.28c0-43.391-31.242-58.955-65.158-58.839c-38.113,0.131-65.422,19.059-66.938,43.51
		c-2.225,35.87,39.139,44.379,58.988,44.379l-0.064,1.093c-23.771,0-65.463-10.126-62.65-45.304
		c3.07-38.376,50.023-44.833,70.648-44.833c28.637,0,69.254,12.938,69.254,59.966c0,64.296-87.164,85.495-100.387,85.495
		c-4.08,0-6.119-2.891-6.119-6.801C634.422,239.051,640.031,231.4,646.832,223.579z M671.65,204.539
		c12.41-4.25,58.141-31.281,58.141-45.561c0-1.53-1.361-3.06-3.57-3.06c-11.051,0-33.83,24.479-54.91,48.281L671.65,204.539z"/>
</g>
<g>
	<path d="M530.631,132.578c-25.156,22.267-46.914,48.614-67.822,75.64c-22.777,29.579-26.865,35.627-26.865,39.198
		c0,2.136,0.904,2.732,2.377,2.685c4.926-0.16,19.561-18.593,47.096-51.062c28.217-33.145,59.59-61.191,87.637-67.649l0.752,1.189
		c-28.896,26.517-53.373,57.962-77.85,88.732c-7.139,9.009-14.191,18.335-14.617,24.646c-0.211,3.134,1.76,4.164,4.139,4.164
		c7.82,0,18.807-7.733,29.516-16.913l1.189-1.021l0.852,1.19l-1.021,0.849c-14.787,12.239-22.777,17.51-30.766,17.51
		c-4.418,0-7.309-2.889-7.309-7.99c0-23.967,52.014-75.132,69.01-90.77c7.309-6.629,14.619-13.259,22.607-19.208l-0.34-0.339
		c-28.045,10.368-54.223,35.185-73.43,57.112c-36.035,41.136-49.463,61.195-58.473,61.195c-3.908,0-6.289-2.72-6.289-7.479
		c0-15.299,38.416-57.455,55.242-74.793c12.58-12.918,26.178-25.326,40.455-36.375l-0.34-0.339
		c-26.346,7.818-50.822,30.085-70.709,52.693c-44.875,50.996-57.963,66.294-82.78,66.294c-7.309,0-17.507-3.57-17.507-13.26
		c0-5.447,2.205-7.531,2.205-7.531l3.8,2.867c0,0-6.505,16.68,12.449,16.68c19.376,0,35.429-16.096,61.265-45.503
		c46.574-54.903,72.176-70.222,94.781-73.622L530.631,132.578z"/>
</g>
</svg>
