<?xml version="1.0" encoding="utf-8"?>
<!-- Generator: Adobe Illustrator 16.0.0, SVG Export Plug-In . SVG Version: 6.00 Build 0)  -->
<!DOCTYPE svg PUBLIC "-//W3C//DTD SVG 1.1//EN" "http://www.w3.org/Graphics/SVG/1.1/DTD/svg11.dtd">
<svg version="1.1" xmlns="http://www.w3.org/2000/svg" xmlns:xlink="http://www.w3.org/1999/xlink" x="0px" y="0px"
	 width="708.662px" height="354.331px" viewBox="0 0 708.662 354.331" enable-background="new 0 0 708.662 354.331"
	 xml:space="preserve">
<g id="Layer_1">
	<g>
		<path d="M283.087,116.542c0,58.705-47.591,106.296-106.299,106.296c-58.708,0-106.299-47.592-106.299-106.296
			c0-58.71,47.591-106.302,106.299-106.302C235.496,10.24,283.087,57.833,283.087,116.542z"/>
		<polyline fill="none" stroke="#FFFFFF" stroke-width="11.3386" stroke-miterlimit="10" points="193,159.06 147.819,116.542 
			193.001,74.021 		"/>
	</g>
	<g>
		<path d="M66.217,261.711h12.771c8.989,0,15.685,3.1,15.685,12.523c0,8.989-6.696,13.144-15.437,13.144h-5.828v14.879h-7.192
			V261.711z M78.678,281.612c6.014,0,8.928-2.418,8.928-7.378c0-5.084-3.162-6.758-9.176-6.758h-5.021v14.136H78.678z"/>
		<path d="M101.68,271.816h5.89l0.496,5.394h0.248c2.17-3.968,5.394-6.138,8.618-6.138c1.55,0,2.542,0.187,3.472,0.62l-1.24,6.2
			c-1.054-0.311-1.86-0.496-3.162-0.496c-2.418,0-5.332,1.674-7.192,6.262v18.599h-7.129V271.816z"/>
		<path d="M122.202,287.067c0-9.919,6.881-15.995,14.011-15.995c8.246,0,12.585,5.952,12.585,14.445c0,1.364-0.124,2.729-0.31,3.472
			h-19.343c0.62,5.394,4.092,8.494,8.99,8.494c2.604,0,4.835-0.807,7.067-2.232l2.418,4.464c-2.914,1.922-6.572,3.286-10.416,3.286
			C128.773,303.001,122.202,297.111,122.202,287.067z M142.598,284.154c0-4.712-2.046-7.564-6.199-7.564
			c-3.596,0-6.696,2.666-7.316,7.564H142.598z"/>
		<path d="M151.837,271.816h7.253l4.836,15.81c0.806,2.976,1.736,6.075,2.542,9.175h0.248c0.868-3.1,1.736-6.199,2.604-9.175
			l4.835-15.81h6.882l-10.354,30.44h-8.246L151.837,271.816z"/>
		<path d="M185.502,262.455c0-2.418,1.86-4.092,4.402-4.092s4.402,1.674,4.402,4.092c0,2.355-1.86,4.03-4.402,4.03
			S185.502,264.811,185.502,262.455z M186.309,271.816h7.129v30.44h-7.129V271.816z"/>
		<path d="M200.568,287.067c0-10.167,6.881-15.995,14.445-15.995c7.626,0,14.507,5.828,14.507,15.995
			c0,10.105-6.881,15.934-14.507,15.934C207.45,303.001,200.568,297.173,200.568,287.067z M222.205,287.067
			c0-6.138-2.728-10.167-7.192-10.167c-4.463,0-7.129,4.029-7.129,10.167c0,6.076,2.666,10.105,7.129,10.105
			C219.477,297.173,222.205,293.144,222.205,287.067z"/>
		<path d="M236.28,290.911v-19.095h7.129v18.165c0,5.021,1.426,6.882,4.712,6.882c2.666,0,4.464-1.24,6.757-4.216v-20.831h7.13
			v30.44h-5.828l-0.558-4.464h-0.186c-2.666,3.162-5.642,5.208-9.795,5.208C239.131,303.001,236.28,298.599,236.28,290.911z"/>
		<path d="M268.024,298.785l3.348-4.588c2.728,2.108,5.332,3.41,8.431,3.41c3.286,0,4.836-1.55,4.836-3.658
			c0-2.542-3.286-3.657-6.51-4.897c-4.03-1.488-8.556-3.782-8.556-8.865c0-5.332,4.278-9.114,11.098-9.114
			c4.216,0,7.625,1.736,10.105,3.658l-3.286,4.34c-2.107-1.55-4.277-2.604-6.695-2.604c-3.038,0-4.464,1.427-4.464,3.349
			c0,2.418,3.038,3.348,6.324,4.525c4.154,1.55,8.741,3.534,8.741,9.237c0,5.208-4.153,9.424-11.841,9.424
			C275.402,303.001,271,301.203,268.024,298.785z"/>
	</g>
	
		<line fill="none" stroke="#000000" stroke-width="8.5039" stroke-miterlimit="10" x1="64.556" y1="322.443" x2="293.056" y2="322.443"/>
	<g>
		<g>
			<path fill="#FFFFFF" stroke="#000000" stroke-width="11.3386" stroke-miterlimit="10" d="M632.542,116.292
				c0,55.804-45.24,101.042-101.046,101.042c-55.807,0-101.047-45.239-101.047-101.042c0-55.809,45.24-101.05,101.047-101.05
				C587.302,15.243,632.542,60.484,632.542,116.292z"/>
			<polyline fill="none" stroke="#000000" stroke-width="11.3386" stroke-miterlimit="10" points="546.73,159.06 503.27,116.542 
				546.73,74.021 			"/>
		</g>
	</g>
	<g>
		<path d="M420.547,261.711h12.771c8.989,0,15.685,3.1,15.685,12.523c0,8.989-6.696,13.144-15.437,13.144h-5.828v14.879h-7.192
			V261.711z M433.009,281.612c6.014,0,8.928-2.418,8.928-7.378c0-5.084-3.162-6.758-9.176-6.758h-5.021v14.136H433.009z"/>
		<path d="M456.011,271.816h5.89l0.496,5.394h0.248c2.17-3.968,5.394-6.138,8.618-6.138c1.55,0,2.542,0.187,3.472,0.62l-1.24,6.2
			c-1.054-0.311-1.86-0.496-3.162-0.496c-2.418,0-5.332,1.674-7.192,6.262v18.599h-7.129V271.816z"/>
		<path d="M476.532,287.067c0-9.919,6.881-15.995,14.011-15.995c8.246,0,12.585,5.952,12.585,14.445c0,1.364-0.124,2.729-0.31,3.472
			h-19.343c0.62,5.394,4.092,8.494,8.99,8.494c2.604,0,4.835-0.807,7.067-2.232l2.418,4.464c-2.914,1.922-6.572,3.286-10.416,3.286
			C483.104,303.001,476.532,297.111,476.532,287.067z M496.929,284.154c0-4.712-2.046-7.564-6.199-7.564
			c-3.596,0-6.696,2.666-7.316,7.564H496.929z"/>
		<path d="M506.168,271.816h7.253l4.836,15.81c0.806,2.976,1.736,6.075,2.542,9.175h0.248c0.868-3.1,1.736-6.199,2.604-9.175
			l4.835-15.81h6.882l-10.354,30.44h-8.246L506.168,271.816z"/>
		<path d="M539.833,262.455c0-2.418,1.86-4.092,4.402-4.092s4.402,1.674,4.402,4.092c0,2.355-1.86,4.03-4.402,4.03
			S539.833,264.811,539.833,262.455z M540.639,271.816h7.129v30.44h-7.129V271.816z"/>
		<path d="M554.899,287.067c0-10.167,6.881-15.995,14.445-15.995c7.626,0,14.507,5.828,14.507,15.995
			c0,10.105-6.881,15.934-14.507,15.934C561.78,303.001,554.899,297.173,554.899,287.067z M576.536,287.067
			c0-6.138-2.728-10.167-7.192-10.167c-4.463,0-7.129,4.029-7.129,10.167c0,6.076,2.666,10.105,7.129,10.105
			C573.808,297.173,576.536,293.144,576.536,287.067z"/>
		<path d="M590.61,290.911v-19.095h7.129v18.165c0,5.021,1.426,6.882,4.712,6.882c2.666,0,4.464-1.24,6.757-4.216v-20.831h7.13
			v30.44h-5.828l-0.558-4.464h-0.186c-2.666,3.162-5.642,5.208-9.795,5.208C593.462,303.001,590.61,298.599,590.61,290.911z"/>
		<path d="M622.354,298.785l3.348-4.588c2.728,2.108,5.332,3.41,8.431,3.41c3.286,0,4.836-1.55,4.836-3.658
			c0-2.542-3.286-3.657-6.51-4.897c-4.03-1.488-8.556-3.782-8.556-8.865c0-5.332,4.278-9.114,11.098-9.114
			c4.216,0,7.625,1.736,10.105,3.658l-3.286,4.34c-2.107-1.55-4.277-2.604-6.695-2.604c-3.038,0-4.464,1.427-4.464,3.349
			c0,2.418,3.038,3.348,6.324,4.525c4.154,1.55,8.741,3.534,8.741,9.237c0,5.208-4.153,9.424-11.841,9.424
			C629.732,303.001,625.331,301.203,622.354,298.785z"/>
	</g>
	
		<line fill="none" stroke="#000000" stroke-width="8.5039" stroke-miterlimit="10" x1="418.889" y1="322.443" x2="647.389" y2="322.443"/>
</g>
<g id="Layer_3" display="none">
</g>
<g id="Layer_4" display="none">
</g>
</svg>
