<?xml version="1.0" encoding="utf-8"?>
<!-- Generator: Adobe Illustrator 16.0.0, SVG Export Plug-In . SVG Version: 6.00 Build 0)  -->
<!DOCTYPE svg PUBLIC "-//W3C//DTD SVG 1.1//EN" "http://www.w3.org/Graphics/SVG/1.1/DTD/svg11.dtd">
<svg version="1.1" xmlns="http://www.w3.org/2000/svg" xmlns:xlink="http://www.w3.org/1999/xlink" x="0px" y="0px" width="700px"
	 height="540px" viewBox="0 0 700 540" enable-background="new 0 0 700 540" xml:space="preserve">
<g id="text" display="none">
	<text transform="matrix(1 0 0 1 142.5723 284.0039)" display="inline"><tspan x="0" y="0" font-family="'NimbusSan-RegIta'" font-size="48">Well then</tspan><tspan x="187.581" y="0" font-family="'NimbusSan-Reg'" font-size="48"> illustration</tspan></text>
	
		<line id="underbar_2_" display="inline" fill="none" stroke="#000000" stroke-width="4.252" stroke-miterlimit="10" x1="142.572" y1="294.826" x2="554.5" y2="294.826"/>
</g>
<g id="outline">
	<g id="well_then">
		<g>
			<path d="M148.621,284.004l-2.448-32.019h4.705l1.008,17.521c0.048,1.296,0.096,2.496,0.096,3.168c0,0.144-0.048,4.657-0.096,6.48
				c1.056-3.265,2.736-7.872,3.456-9.648l7.345-17.521h4.848l1.44,17.521c0.24,4.032,0.288,4.849,0.288,8.641v1.008
				c0.624-2.688,1.344-4.896,2.832-8.785l7.201-18.385H184l-13.105,32.019h-4.656l-1.44-17.138c-0.192-1.872-0.336-5.76-0.336-7.824
				c0-1.152,0-1.776,0.096-3.168c-1.344,4.705-1.92,6.241-4.368,11.953l-6.865,16.177H148.621z"/>
			<path d="M186.109,273.491c-0.096,0.72-0.144,1.056-0.144,1.536c0,3.648,2.112,5.904,5.521,5.904c2.544,0,4.705-1.248,6.048-3.553
				h4.513c-2.304,4.896-5.809,7.249-10.801,7.249c-5.856,0-9.457-3.792-9.457-9.937c0-3.889,1.344-7.777,3.648-10.561
				c2.16-2.688,5.328-4.128,8.929-4.128c5.616,0,9.265,3.648,9.265,9.361c0,1.248-0.144,2.4-0.48,4.128H186.109z M199.454,268.834
				c0-3.264-1.92-5.136-5.232-5.136c-3.601,0-6.145,2.208-7.345,6.289h12.529L199.454,268.834z"/>
			<path d="M210.3,284.004h-4.417l6.817-32.019h4.368L210.3,284.004z"/>
			<path d="M221.148,284.004h-4.417l6.817-32.019h4.368L221.148,284.004z"/>
			<path d="M254.7,264.034h-3.456l-2.784,13.201c-0.288,1.2-0.288,1.2-0.288,1.632c0,0.961,0.576,1.44,1.776,1.44
				c0.672,0,1.248-0.097,2.064-0.384l-0.72,3.648c-1.056,0.288-1.92,0.432-2.736,0.432c-2.832,0-4.944-1.633-4.944-3.793
				c0-0.432,0.144-1.728,0.288-2.304l2.928-13.873h-3.457l0.768-3.216h3.457l1.392-6.816h4.368l-1.344,6.816h3.408L254.7,264.034z"
				/>
			<path d="M266.269,251.985l-2.449,11.617c2.833-2.496,4.848-3.408,7.345-3.408c3.552,0,6.096,2.208,6.096,5.376
				c0,0.864-0.144,2.064-0.479,3.504l-3.168,14.929h-4.417l3.217-14.929c0.288-1.44,0.384-2.064,0.384-2.688
				c0-1.584-1.057-2.496-2.881-2.496c-3.696,0-6.816,3.168-7.872,8.016l-2.544,12.098h-4.417l6.817-32.019H266.269z"/>
			<path d="M285.42,273.491c-0.097,0.72-0.145,1.056-0.145,1.536c0,3.648,2.112,5.904,5.521,5.904c2.544,0,4.704-1.248,6.049-3.553
				h4.512c-2.304,4.896-5.808,7.249-10.801,7.249c-5.856,0-9.457-3.792-9.457-9.937c0-3.889,1.345-7.777,3.648-10.561
				c2.16-2.688,5.329-4.128,8.929-4.128c5.617,0,9.266,3.648,9.266,9.361c0,1.248-0.145,2.4-0.48,4.128H285.42z M298.765,268.834
				c0-3.264-1.92-5.136-5.232-5.136c-3.601,0-6.145,2.208-7.345,6.289h12.529L298.765,268.834z"/>
			<path d="M314.412,260.818l-0.673,3.072c2.736-2.64,4.944-3.696,7.633-3.696c3.793,0,6.241,2.208,6.241,5.521
				c0,0.912-0.097,1.776-0.385,3.168l-3.264,15.121h-4.369l3.169-14.881c0.336-1.536,0.384-1.968,0.384-2.496
				c0-1.728-1.008-2.736-2.736-2.736c-1.536,0-3.265,0.72-4.704,1.92c-1.776,1.488-2.736,3.312-3.408,6.288l-2.496,11.905h-4.417
				l4.944-23.186H314.412z"/>
			<path d="M351.802,257.122h-4.417v-5.136h4.417V257.122z M351.802,284.004h-4.417v-23.186h4.417V284.004z"/>
			<path d="M362.65,284.004h-4.417v-32.019h4.417V284.004z"/>
			<path d="M373.498,284.004h-4.417v-32.019h4.417V284.004z"/>
			<path d="M395.099,284.004v-2.641c-2.305,2.448-4.177,3.265-7.345,3.265c-2.736,0-4.992-0.912-6.289-2.544
				c-1.104-1.44-1.536-3.072-1.536-5.761v-15.505h4.417v15.169c0,3.168,1.44,4.704,4.464,4.704c3.793,0,6.097-2.208,6.097-5.809
				v-14.065h4.417v23.186H395.099z"/>
			<path d="M419.146,267.922c-0.624-2.88-2.208-4.08-5.28-4.08c-2.641,0-4.417,1.104-4.417,2.736c0,1.152,0.816,1.92,2.688,2.4
				l5.377,1.392c4.848,1.249,6.864,3.264,6.864,6.817c0,4.561-3.744,7.44-9.648,7.44c-6.289,0-10.033-3.072-10.514-8.593h4.369
				c0.239,3.072,2.544,4.896,6.24,4.896c3.168,0,5.232-1.393,5.232-3.553c0-1.535-1.008-2.352-3.696-3.072l-4.608-1.152
				c-2.448-0.623-3.937-1.295-4.896-2.16c-1.057-0.912-1.729-2.448-1.729-3.984c0-3.984,3.696-6.816,8.929-6.816
				c3.312,0,6.049,1.104,7.681,3.072c1.009,1.248,1.44,2.496,1.633,4.656H419.146z"/>
			<path d="M438.345,264.322h-4.176v14.545c0,1.344,0.624,2.112,1.728,2.112c0.625,0,1.249-0.144,2.448-0.624v3.601
				c-1.92,0.432-2.64,0.528-3.696,0.528c-3.312,0-4.896-1.776-4.896-5.617v-14.545h-3.12v-3.504h3.12v-7.345h4.417v7.345h4.176
				V264.322z"/>
			<path d="M446.839,260.818v3.648c0.912-1.344,1.296-1.872,1.92-2.448c1.057-1.104,2.736-1.824,4.129-1.824
				c0.864,0,1.68,0.192,2.448,0.576v3.984c-0.912-0.192-1.393-0.24-2.017-0.24c-3.552,0-6.288,3.168-6.288,7.296v12.193h-4.417
				v-23.186H446.839z"/>
			<path d="M458.982,268.499c0.192-2.736,0.721-4.368,1.872-5.665c1.488-1.68,4.272-2.64,7.537-2.64
				c5.761,0,9.024,2.736,9.024,7.537v10.896c0,1.824,0.24,2.209,1.248,2.209c0.385,0,0.624-0.049,1.152-0.24v3.408
				c-1.056,0.24-1.968,0.336-2.88,0.336c-2.112,0-3.072-0.912-3.456-3.12c-2.353,2.353-4.896,3.408-8.018,3.408
				c-4.512,0-7.584-2.784-7.584-6.864c0-3.744,2.304-6.049,7.009-7.009l5.136-1.008c2.784-0.528,3.36-0.96,3.36-2.4
				c0-2.256-1.968-3.648-5.088-3.648c-2.257,0-4.032,0.72-4.657,1.968c-0.336,0.624-0.432,1.152-0.527,2.832H458.982z
				 M473.48,272.099c-0.816,0.337-1.585,0.576-2.736,0.864l-4.513,1.057c-2.688,0.623-3.889,1.728-3.889,3.552
				c0,2.112,1.729,3.552,4.32,3.552c3.745,0,6.817-2.736,6.817-6.048V272.099z"/>
			<path d="M493.255,264.322h-4.176v14.545c0,1.344,0.624,2.112,1.728,2.112c0.625,0,1.249-0.144,2.448-0.624v3.601
				c-1.92,0.432-2.64,0.528-3.696,0.528c-3.312,0-4.896-1.776-4.896-5.617v-14.545h-3.12v-3.504h3.12v-7.345h4.417v7.345h4.176
				V264.322z"/>
			<path d="M501.941,257.122h-4.417v-5.136h4.417V257.122z M501.941,284.004h-4.417v-23.186h4.417V284.004z"/>
			<path d="M529.543,272.579c0,7.104-4.56,12.049-11.185,12.049s-11.137-4.944-11.137-12.241c0-7.249,4.512-12.193,11.137-12.193
				C525.127,260.194,529.543,265.09,529.543,272.579z M511.686,272.387c0,5.425,2.448,8.545,6.721,8.545
				c4.177,0,6.673-3.12,6.673-8.4c0-5.569-2.4-8.641-6.721-8.641C514.134,263.89,511.686,267.01,511.686,272.387z"/>
			<path d="M538.997,260.818v2.64c2.305-2.448,4.177-3.264,7.345-3.264c2.736,0,4.992,0.912,6.289,2.544
				c1.104,1.44,1.536,3.072,1.536,5.76v15.505h-4.417v-15.169c0-3.168-1.439-4.704-4.464-4.704c-3.793,0-6.097,2.208-6.097,5.808
				v14.065h-4.417v-23.186H538.997z"/>
		</g>
		
			<line id="underbar" fill="none" stroke="#000000" stroke-width="4.252" stroke-miterlimit="10" x1="142.572" y1="294.826" x2="554.5" y2="294.826"/>
	</g>
	<g id="Q-T_1_" display="none">
		
			<line id="underbar_1_" display="inline" fill="none" stroke="#000000" stroke-width="4.252" stroke-miterlimit="10" x1="109.501" y1="294.826" x2="590.334" y2="294.826"/>
		<g id="Q-T" display="inline">
			<path d="M139.023,285.828l-2.976,2.496l-4.752-4.752c-1.92,0.815-3.937,1.248-6,1.248c-7.873,0-12.913-5.521-12.913-14.258
				c0-10.849,7.681-19.394,17.425-19.394c7.873,0,12.769,5.281,12.769,13.729c0,6.721-2.688,12.434-7.825,16.657L139.023,285.828z
				 M131.871,278.676c3.792-3.072,6.145-8.449,6.145-13.97c0-5.76-3.312-9.553-8.401-9.553c-3.312,0-6.336,1.44-8.497,4.081
				c-2.544,3.12-4.033,7.44-4.033,11.857c0,5.904,3.312,9.745,8.401,9.745c0.96,0,1.728-0.096,2.736-0.385l-2.64-2.64l3.12-2.304
				L131.871,278.676z"/>
			<path d="M163.454,284.004h-4.08l0.816-3.793c-2.592,3.169-4.8,4.417-7.921,4.417c-3.696,0-6.192-2.257-6.192-5.521
				c0-0.864,0.24-2.544,0.624-4.32l2.977-13.969h4.368l-3.12,14.833c-0.192,0.912-0.336,1.968-0.336,2.592
				c0,1.681,1.104,2.736,2.833,2.736c1.872,0,4.224-1.296,5.76-3.265c1.249-1.632,1.824-3.072,2.544-6.432l2.256-10.465h4.416
				L163.454,284.004z"/>
			<path d="M172.86,267.203c1.344-4.657,4.8-7.009,10.273-7.009c4.704,0,7.776,2.064,7.776,5.232c0,0.576-0.24,2.304-0.48,3.312
				l-1.728,8.161c-0.336,1.632-0.384,1.968-0.384,2.496c0,1.2,0.48,1.584,1.824,1.584h0.864l-0.72,3.312h-1.68
				c-2.496,0-3.312-0.672-3.552-2.784c-1.92,2.16-4.08,3.12-7.152,3.12c-2.304,0-4.177-0.624-5.473-1.872
				c-1.296-1.248-2.112-3.312-2.112-5.28c0-2.112,0.912-4.128,2.448-5.377c1.44-1.248,3.504-1.872,6.673-2.064l3.744-0.24
				c1.824-0.144,2.496-0.336,2.976-0.96c0.432-0.576,0.72-1.536,0.72-2.544c0-1.873-1.248-2.736-3.984-2.736
				c-3.456,0-5.136,1.056-5.953,3.648H172.86z M185.629,272.771c-0.624,0.096-0.864,0.144-1.344,0.239
				c-0.24,0-0.672,0.048-1.248,0.144l-1.152,0.097l-2.64,0.288c-2.976,0.336-4.416,1.632-4.416,3.937
				c0,2.112,1.44,3.456,3.792,3.456c1.92,0,3.984-0.96,4.993-2.352c0.72-0.961,1.344-2.641,1.824-5.041L185.629,272.771z"/>
			<path d="M198.348,284.004h-4.417l6.817-32.019h4.368L198.348,284.004z"/>
			<path d="M209.196,284.004h-4.417l4.945-23.186h4.368L209.196,284.004z M214.957,256.786h-4.417l1.056-4.8h4.368L214.957,256.786z
				"/>
			<path d="M228.348,264.034h-3.456l-2.784,13.201c-0.288,1.2-0.288,1.2-0.288,1.632c0,0.961,0.576,1.44,1.776,1.44
				c0.672,0,1.248-0.097,2.064-0.384l-0.72,3.648c-1.056,0.288-1.92,0.432-2.736,0.432c-2.832,0-4.944-1.633-4.944-3.793
				c0-0.432,0.144-1.728,0.288-2.304l2.928-13.873h-3.457l0.768-3.216h3.457l1.392-6.816h4.368l-1.344,6.816h3.408L228.348,264.034z
				"/>
			<path d="M252.061,260.818l-14.4,27.123c-1.776,3.312-3.072,4.08-7.057,4.08h-2.688l0.768-3.504h1.536
				c2.4,0,2.784-0.288,4.128-2.881l0.672-1.296l-3.888-23.522h4.56l1.681,11.521c0.239,1.392,0.479,4.561,0.624,7.345
				c0.672-1.68,1.872-4.176,3.168-6.673l6.192-12.193H252.061z"/>
			<path d="M276.347,284.004h-4.56l5.952-28.034h-9.505l0.864-3.984h23.186l-0.863,3.984H282.3L276.347,284.004z"/>
			<path d="M293.53,284.004h-4.417l4.944-23.186h4.369L293.53,284.004z M299.29,256.786h-4.416l1.056-4.8h4.369L299.29,256.786z"/>
			<path d="M308.986,260.818l-0.673,3.072c3.024-2.64,5.329-3.696,7.921-3.696c3.024,0,4.896,1.44,5.329,4.176
				c2.496-2.736,5.28-4.176,8.112-4.176c3.456,0,5.761,2.064,5.761,5.232c0,0.912-0.145,1.92-0.433,3.408l-3.264,15.169h-4.369
				l3.072-14.593c0.433-1.92,0.48-2.256,0.48-2.976c0-1.536-1.008-2.544-2.592-2.544c-3.601,0-6.721,3.168-7.729,7.873
				l-2.592,12.241h-4.416l3.12-14.593c0.336-1.632,0.432-2.208,0.432-2.928c0-1.68-0.864-2.592-2.496-2.592
				c-1.968,0-4.08,1.152-5.376,2.88c-1.2,1.584-2.017,3.696-2.688,6.721l-2.208,10.513h-4.417l4.944-23.186H308.986z"/>
			<path d="M343.546,273.491c-0.097,0.72-0.145,1.056-0.145,1.536c0,3.648,2.112,5.904,5.521,5.904c2.544,0,4.704-1.248,6.049-3.553
				h4.512c-2.304,4.896-5.808,7.249-10.801,7.249c-5.856,0-9.457-3.792-9.457-9.937c0-3.889,1.345-7.777,3.648-10.561
				c2.16-2.688,5.329-4.128,8.929-4.128c5.617,0,9.266,3.648,9.266,9.361c0,1.248-0.145,2.4-0.48,4.128H343.546z M356.891,268.834
				c0-3.264-1.92-5.136-5.232-5.136c-3.601,0-6.145,2.208-7.345,6.289h12.529L356.891,268.834z"/>
			<path d="M384.873,257.122h-4.417v-5.136h4.417V257.122z M384.873,284.004h-4.417v-23.186h4.417V284.004z"/>
			<path d="M395.721,284.004h-4.417v-32.019h4.417V284.004z"/>
			<path d="M406.568,284.004h-4.417v-32.019h4.417V284.004z"/>
			<path d="M428.17,284.004v-2.641c-2.305,2.448-4.177,3.265-7.345,3.265c-2.736,0-4.992-0.912-6.289-2.544
				c-1.104-1.44-1.536-3.072-1.536-5.761v-15.505h4.417v15.169c0,3.168,1.44,4.704,4.464,4.704c3.793,0,6.097-2.208,6.097-5.809
				v-14.065h4.417v23.186H428.17z"/>
			<path d="M452.217,267.922c-0.624-2.88-2.208-4.08-5.28-4.08c-2.641,0-4.417,1.104-4.417,2.736c0,1.152,0.816,1.92,2.688,2.4
				l5.377,1.392c4.848,1.249,6.864,3.264,6.864,6.817c0,4.561-3.744,7.44-9.648,7.44c-6.289,0-10.033-3.072-10.514-8.593h4.369
				c0.239,3.072,2.544,4.896,6.24,4.896c3.168,0,5.232-1.393,5.232-3.553c0-1.535-1.008-2.352-3.696-3.072l-4.608-1.152
				c-2.448-0.623-3.937-1.295-4.896-2.16c-1.057-0.912-1.729-2.448-1.729-3.984c0-3.984,3.696-6.816,8.929-6.816
				c3.312,0,6.049,1.104,7.681,3.072c1.009,1.248,1.44,2.496,1.633,4.656H452.217z"/>
			<path d="M471.415,264.322h-4.176v14.545c0,1.344,0.624,2.112,1.729,2.112c0.624,0,1.248-0.144,2.447-0.624v3.601
				c-1.92,0.432-2.64,0.528-3.696,0.528c-3.312,0-4.896-1.776-4.896-5.617v-14.545h-3.121v-3.504h3.121v-7.345h4.416v7.345h4.176
				V264.322z"/>
			<path d="M479.91,260.818v3.648c0.912-1.344,1.296-1.872,1.92-2.448c1.057-1.104,2.736-1.824,4.129-1.824
				c0.864,0,1.68,0.192,2.448,0.576v3.984c-0.912-0.192-1.393-0.24-2.017-0.24c-3.552,0-6.288,3.168-6.288,7.296v12.193h-4.417
				v-23.186H479.91z"/>
			<path d="M492.054,268.499c0.192-2.736,0.721-4.368,1.872-5.665c1.488-1.68,4.272-2.64,7.537-2.64
				c5.761,0,9.024,2.736,9.024,7.537v10.896c0,1.824,0.24,2.209,1.248,2.209c0.385,0,0.624-0.049,1.152-0.24v3.408
				c-1.056,0.24-1.968,0.336-2.88,0.336c-2.112,0-3.072-0.912-3.456-3.12c-2.353,2.353-4.896,3.408-8.018,3.408
				c-4.512,0-7.584-2.784-7.584-6.864c0-3.744,2.304-6.049,7.009-7.009l5.136-1.008c2.784-0.528,3.36-0.96,3.36-2.4
				c0-2.256-1.968-3.648-5.088-3.648c-2.257,0-4.032,0.72-4.657,1.968c-0.336,0.624-0.432,1.152-0.527,2.832H492.054z
				 M506.552,272.099c-0.816,0.337-1.585,0.576-2.736,0.864l-4.513,1.057c-2.688,0.623-3.889,1.728-3.889,3.552
				c0,2.112,1.729,3.552,4.32,3.552c3.745,0,6.817-2.736,6.817-6.048V272.099z"/>
			<path d="M526.326,264.322h-4.176v14.545c0,1.344,0.624,2.112,1.728,2.112c0.625,0,1.249-0.144,2.448-0.624v3.601
				c-1.92,0.432-2.64,0.528-3.696,0.528c-3.312,0-4.896-1.776-4.896-5.617v-14.545h-3.12v-3.504h3.12v-7.345h4.417v7.345h4.176
				V264.322z"/>
			<path d="M535.013,257.122h-4.417v-5.136h4.417V257.122z M535.013,284.004h-4.417v-23.186h4.417V284.004z"/>
			<path d="M562.613,272.579c0,7.104-4.56,12.049-11.185,12.049s-11.137-4.944-11.137-12.241c0-7.249,4.512-12.193,11.137-12.193
				C558.197,260.194,562.613,265.09,562.613,272.579z M544.756,272.387c0,5.425,2.448,8.545,6.721,8.545
				c4.177,0,6.673-3.12,6.673-8.4c0-5.569-2.4-8.641-6.721-8.641C547.204,263.89,544.756,267.01,544.756,272.387z"/>
			<path d="M572.067,260.818v2.64c2.305-2.448,4.177-3.264,7.345-3.264c2.736,0,4.992,0.912,6.289,2.544
				c1.104,1.44,1.536,3.072,1.536,5.76v15.505h-4.417v-15.169c0-3.168-1.439-4.704-4.464-4.704c-3.793,0-6.097,2.208-6.097,5.808
				v14.065h-4.417v-23.186H572.067z"/>
		</g>
	</g>
</g>
<g id="guides">
</g>
</svg>
